<?xml version="1.0" encoding="UTF-8"?>
<svg xmlns="http://www.w3.org/2000/svg" version="1.1" viewBox="0 0 800 800">
  <!-- Generator: Adobe Illustrator 29.5.1, SVG Export Plug-In . SVG Version: 2.1.0 Build 141)  -->
  <defs>
    <style>
      .st0 {
        fill: #303f9f;
      }

      .st1 {
        fill: #8092f2;
      }

      .st2 {
        fill: #6678d9;
      }

      .st3 {
        fill: #3f51b5;
      }

      .st4 {
        fill: #5366cf;
      }

      .st5 {
        fill: #2f3e82;
      }

      .st6 {
        fill: #5064c9;
      }

      .st7 {
        fill: #2c3f9e;
      }

      .st8 {
        fill: #9aa7ed;
      }

      .st9 {
        fill: #4054b0;
      }
    </style>
  </defs>
  <g id="Blue_x5F_Raspberry_x5F_3">
    <path id="top_x5F_flower_x5F_3" class="st3" d="M131.9,148.7c-2.9.7-13-7.7-43.8-4.8-11.7,1.1-15.9,4.1-15.9,4.1,0,0,1.1-16.6,15.1-27.8,9.8-7.9,18.8-10.9,25-12.1,4.4-.9,7.2-5.1,6.6-9.6-1.7-10.7-2-28.2,11.4-37.2,12.6-8.4,26.2-2.6,34.5,2.9,4.1,2.7,9.6,1.4,12-3,3.1-5.9,8.3-13.6,16.4-19.8,15.7-12.1,30.3-3.9,30.3-3.9,0,0-13.4,11.6-14.1,41.3,0,3.3,1.2,11.4-.6,14.2-20.5,14.6-33.6,25.8-54.1,40.4-8.6,6.1-10.9,7.7-19.6,13.7-1.1.8-2.2,1.3-3.2,1.5h0Z"/>
    <circle id="outercircle_x5F_light_x5F_3" class="st3" cx="273.9" cy="246.5" r="188.9"/>
    <path id="outercircle_x5F_dark_x5F_3" class="st0" d="M382.3,91.8c9.9,18.9,25.6,31.7,14.2,92.5-8.8,47.1-48.2,96.4-129.1,101.6-68.8,4.4-117.4-33.1-131.4-78.7-13.2-43.4-5.4-80.1,22.1-110-70.1,46.7-73.1,127.6-73.1,149.2,0,104.3,84.6,188.9,188.9,188.9s188.9-84.6,188.9-188.9c0-63.9-31.8-120.5-80.5-154.6h0Z"/>
  </g>
  <g id="Blue_x5F_Raspberry_x5F_2">
    <circle id="outercircle_x5F_dark_x5F_2" class="st6" cx="564.9" cy="373.4" r="207"/>
    <path id="outercircle_x5F_dark_x5F_21" data-name="outercircle_x5F_dark_x5F_2" class="st9" d="M771.7,381.6c-35.6,90.1-117.4,162-244.9,122.5-104.2-32.3-158.8-156.2-128.1-253.4-13.2,18-23.4,38-30.2,59.3-34.8,108.9,25.1,225.3,133.8,260,108.7,34.7,225-25.4,259.7-134.3,5.7-17.9,8.8-36.1,9.6-54.1h0Z"/>
    <path id="top_x5F_flower_x5F_2" class="st1" d="M627.3,288.6s21.8,50,57,38c21.1-7.2,15.6-42.4,15.6-42.4,0,0,56.2-2.6,53.6-27.3-2.6-25.3-37.9-33.6-37.9-33.6,0,0-3.1-36.6-15.7-46.2-21.1-16.1-47.2,8.9-47.2,8.9,0,0-20.2-33.8-50.7-27.3-24.4,5.3-11.1,57.5-11.1,57.5,0,0-35.4-.4-20.7,28.6,16.1,31.9,57.1,43.8,57.1,43.8h0Z"/>
    <ellipse id="inercircle_x5F_dark_x5F_2" class="st5" cx="652.6" cy="244.7" rx="40.3" ry="45.9" transform="translate(140.7 717.7) rotate(-63.3)"/>
    <ellipse id="inercircle_x5F_light_x5F_2" class="st6" cx="649.2" cy="251" rx="34.5" ry="39.8" transform="translate(76.8 647.1) rotate(-55.8)"/>
  </g>
  <g id="Blue_x5F_Raspberry_x5F_1">
    <circle id="outercircle_x5F_light" class="st2" cx="241.7" cy="551.5" r="213.6"/>
    <path id="outercircle_x5F_dark" class="st4" d="M443.6,481.8c1.2,8.2,4.2,220.5-211.2,226.6-88.2,2.5-148.1-55.7-175.8-122.4-28.5-68.6,5.2-149.7,5.2-149.7,0,0-18.1,29.1-22.1,45.6-7.6,21.9-11.7,45.3-11.7,69.7,0,118,95.6,213.6,213.6,213.6s213.6-95.6,213.6-213.6c0-24.4-4.3-47.9-11.7-69.7h0Z"/>
    <path id="top_x5F_flower" class="st8" d="M221.4,511s-25.3,49.4-71.2,36.1c-21.2-6.2-11.3-39.4-11.3-39.4,0,0-29.7-2.4-40.4-28-9.6-22.9,41.9-32,41.9-32,0,0-20.4-37.5,1.2-52.6s45.1,18.9,45.1,18.9c0,0,19.2-55.4,44.1-37.1,23.9,17.6,17.8,68.2,17.8,68.2,0,0,43,7.3,28.5,36.3-16,32-55.6,29.7-55.6,29.7h0Z"/>
    <ellipse id="inercircle_x5F_dark" class="st7" cx="188.7" cy="469.8" rx="48.6" ry="44.8" transform="translate(-95.6 50.9) rotate(-12.3)"/>
    <ellipse id="inercircle_x5F_light" class="st4" cx="196.4" cy="473.1" rx="41.1" ry="39.4" transform="translate(-96.2 52.6) rotate(-12.3)"/>
  </g>
</svg>