<?xml version="1.0" encoding="UTF-8"?>
<svg xmlns="http://www.w3.org/2000/svg" viewBox="0 0 56.09 146.82">
  <g id="cherry_inside">
    <path id="inside_dark" data-name="inside dark" d="M27.98,93.11c1.3.14,2.55-.04,3.83-.24,8.21-1.32,15.11-3.56,20.53,5.45,10.66,17.71-2.64,47.06-24.47,48.32-31.33,1.81-35.99-48.46-15.27-55.39,6.62-2.22,9.72,1.24,15.38,1.87h0Z" style="fill: #8b121c;"/>
    <path id="inside_light" data-name="inside light" d="M20.16,93.76c2.93.44,5.65,1.95,8.3,1.81,2.67-.1,5.39-1.34,8.07-1.43,2.39-.11,4.9.43,7.12,1.31,3.98,1.49,6.28,5.18,7.45,9.2,3.93,11.88-.86,27.21-10.81,35.03-6.77,5.11-16.02,5.22-23.39,1.62-3.47-1.7-6.53-5.18-8.84-8.27-2.62-3.4-3.98-7.76-4.7-12.79-1.83-11.48,2.38-28.3,16.6-26.5l.2.03h0Z" style="fill: #b60b1b;"/>
    <path id="inside_seed" data-name="inside seed" d="M29.42,101.99c12.83.34,17.03,15.03,7.43,23.17-17.93,15.2-33.06-21.35-9.1-23.17.54-.04,1.13-.01,1.68,0h-.01Z" style="fill: #fcca98;"/>
  </g>
  <g id="cherry_outside">
    <path id="outside_dark" data-name="outside dark" d="M31.48,93.09c11.13-5.92,22.68,2.6,23.89,14.53,2.67,20.2-10.95,42.74-33.23,38.74-9.69-1.55-21.73-12.75-21.89-29.22-.08-8.33,1.58-18.04,8.57-23.55,6.4-4.97,11.5-2.28,18.3-.51.11.03.22.05.34.05.73.04,3.6.19,4.02-.03h0Z" style="fill: #8b121c;"/>
    <path id="outside_light" data-name="outside light" d="M32.41,94.74c4.13-3.19,11.1-1.81,14.79,1.1,8.99,7.54,7.88,25.29,2.85,35-6.52,13.6-23.54,20.69-36.66,11.6-5.14-3.73-9.18-8.85-10.81-15.11-2.23-7.88-2.5-18.18.8-25.65,4.04-8.77,11.97-11.5,20.71-7.76.67.38,1.85,1.16,1.49,2.02-1.67,1.11-4.39-.51-6.27-.87-8.38-2.33-12.81,2.62-15.26,10.02-3.44,10.91-.64,25.64,7.39,33.9,12.56,12.52,29.69,3.53,37.67-9.62,3.51-6.36,4.11-15.14,2.74-22.29-1.09-5.99-5.61-11.69-12.03-11.99-2.32-.17-4.84.72-6.42.72-.72.07-1.86-.16-1.07-1.02l.06-.07.02.02Z" style="fill: #b60b1b;"/>
    <path id="outside_very_dark" data-name="outside very dark" d="M40.84,99.03c-4.54-1.11-6.22.3-4.8,4.47,2.5,8.16-3.4,20.05-9.93,26.92-1.69,2.3-10.31,6.44-3.58,7.91,22.46,5.29,41.56-31.87,18.5-39.24l-.2-.05h.01ZM30.53,137.25c-.97-.54.22-2.34.94-1.34.16.45-.14,1.54-.8,1.4l-.15-.06h0ZM47.5,114.49c-1.24-.09-1.4-1.99-.11-2.2,1.53-.24,1.77,2.05.27,2.2h-.16Z" style="fill: #740105;"/>
    <path id="outside_light_2" data-name="outside light 2" d="M10.85,97.23c1.17.47,1.77,1.45,2.81,2.16,2.32,1.53,4.94,2.69,7.34,4.39,1.83,1.22,4.08,2.38,4.43,4.18.39,1.62-1.25,2.96-2.78,2.28-1.06-.37-2.05-1.11-3.13-1.45-2.46-.65-5.15-.59-7.42-2-2.51-1.26-4.02-3.81-3.59-6.62.16-1.26.87-3.26,2.22-2.96l.11.03h.01ZM24.43,106.59c-1.42-1.4-4.07.44-2.19,1.95,1.23.79,3.41-.34,2.3-1.81l-.12-.14h.01Z" style="fill: #b60b1b;"/>
    <path id="outside_very_dark_2" data-name="outside very dark 2" d="M37.61,95.65c.19,1.14-1.47,2.31-2.4,3-3.79,2.65-9.04,2.81-12.76.25-.66-.43-1.81-1.31-1.78-1.9.24-.56,1.14-.24,1.63-.14,5.21,2.2,6.56,3.68,11.73-.19.99-.63,2.74-1.73,3.55-1.08l.03.06Z" style="fill: #740105;"/>
  </g>
  <g id="cherry_stem">
    <path id="stem" d="M33.06,59.01c.58,11.77-2.3,22.7-2.1,34.29-.04,1.82.13,4.25-.78,5.96-1.41,1.72-3.25-.41-2.92-2.32,5.65-23.73,6.68-75.66-13.54-92.47-2.24-1.65-1.96-3.88.82-4.41,1.95-.31,3.14.7,4.06,2.51,8.95,17.15,13.77,36.91,14.46,56.25v.2h0Z" style="fill: #446b2f;"/>
  </g>
</svg>