<?xml version="1.0" encoding="UTF-8"?>
<svg xmlns="http://www.w3.org/2000/svg" viewBox="0 0 1604.15 1775.8">
  <g id="grape_8">
    <path id="grape_8_dark" d="M1520.95,1473.79c-4.62,1.13-7.58,5.96-11.07,8.43-5.25,3.73-13.12,7.96-18.91,11.09-40.76,22.02-87.39,34.78-133.89,35.61-13.74,70.49-53.76,131.77-110.24,175.26-1.78,1.37-3.62,3.22-5.89,3.61-1.77-.97-4.45-1.51-6.67-2.83-25.48-15.23-49.22-37.78-64.18-63.52,40.7-39.82,68.86-92.8,77.56-149.44,4.7-30.62,3.61-59.64-.7-90.21,70.41,25.59,149.99,21.03,216.35-13.85,26.8,22.62,46.52,52.57,57.64,85.84Z" style="fill: #7f3ec1;"/>
    <path id="grape_8_light" d="M1520.95,1473.79c56.83,169.95-122.55,320.6-280,234,2.27-.39,4.12-2.24,5.89-3.61,56.48-43.49,96.5-104.77,110.24-175.26,46.5-.83,93.13-13.59,133.89-35.61,5.79-3.13,13.67-7.36,18.91-11.09,3.48-2.48,6.45-7.3,11.07-8.43Z" style="fill: #9e5ae4;"/>
  </g>
  <g id="grape_7">
    <path id="grape_7_dark" d="M1033.85,725.69c-39.37-.24-78.58,7.09-115.3,20.97-15.08-20.09-30.51-40.01-47.09-58.88-20.58-23.42-43.23-44.72-64.98-67.02-1.13-1.16-3.52-2.14-4.04-2.97-2.49-4,7.18-25.45,8.68-30.83,38.44-6.54,78.45-8.61,116.25-18.24,63.79-16.25,123.84-53.63,167.54-102.5.66-.78,1.26-1.24,2.34-1.23,3.02.04,23.32,10.4,27.37,12.64,24.97,13.8,47.61,33.44,65.31,55.67-17.39,8.53-34.49,17.45-50.3,28.68-54.62,38.81-92.73,97.81-105.78,163.71Z" style="fill: #7f3ec1;"/>
  </g>
  <g id="grape_6">
    <path id="grape_6_dark" d="M790.95,838.79c-4.02,5.68-8.79,10.97-12.82,16.68-32.42,45.97-53.25,99.77-57.19,156.32-10.29-2.59-20.35-6.85-30.78-9.72-64.85-17.84-134.64-11.06-194.24,20.19-9.13,4.79-17.62,11.3-26.9,15.47-19.43-29.63-31.06-62.73-35.08-97.95,7.31-15.27,15.63-30.17,25.61-43.89,67.98-93.41,192.87-123.42,297.75-74.97l33.64,17.86Z" style="fill: #9e5ae4;"/>
    <path id="grape_6_light" d="M790.95,838.79l-33.64-17.86c-104.88-48.45-229.77-18.44-297.75,74.97-9.98,13.72-18.3,28.62-25.61,43.89-13.44-117.57,66.43-224.92,183.26-243.83,45.98,28.99,90.51,60.88,131.75,96.32,5.58,4.8,45.34,39.76,44.86,42.83-.59,1.49-2,2.45-2.87,3.68Z" style="fill: #be8cf1;"/>
  </g>
  <g id="grape_5">
    <path id="grape_5_dark" d="M1512.95,809.79c-4.85,33.65-20.36,71.62-40.59,98.91-1.42,1.92-8.29,11.15-9.7,10.93-1.91-.29-12.84-6.65-16.04-8.02-35.36-15.17-76.49-24.06-115.17-22.81-4.48.14-23.04,3.01-25.52,1.5-38.14-71.36-103.07-125.36-180.32-149.72-1.3-.41-2.35-1.69-2.67-1.78,22.07-24.59,50.84-42.37,81.75-53.75,112.11-41.25,240.25,5.45,298.42,109.08,2.26,4.02,3.95,8.88,6.29,12.71.95,1.54,1.16,3.08,3.54,2.96Z" style="fill: #9e5ae4;"/>
    <path id="grape_5_light" d="M1512.95,809.79c-2.38.11-2.59-1.42-3.54-2.96-2.34-3.83-4.03-8.69-6.29-12.71-58.17-103.62-186.31-150.32-298.42-109.08-30.92,11.37-59.68,29.16-81.75,53.75-8.42-2.54-19.92-4.7-28.79-6.71-4.48-1.01-11.62-1.2-15.52-2.48-1.13-.37-1.75-.98-1.65-2.23,27.08-114.92,138.12-188.6,255.15-168.27s197.9,132.2,180.81,250.69Z" style="fill: #be8cf1;"/>
  </g>
  <g id="grape_4">
    <path id="grape_4_dark" d="M1560.95,1160.79c2.22,11.78-4.73,42.85-8.28,55.22-36.16,125.78-174.88,192.5-296.7,143.27-5.88-2.38-25.02-10.61-27.87-15.13-3.11-4.94-5.8-13.34-8.97-19.03-3.94-7.07-12.82-18.39-15.4-24.62-.42-1.01-1.04-1.86-.69-3.05.45-1.51,21.92-15.88,25.39-18.69,77.63-62.83,120.7-163.03,113.53-262.97,81.91,1.32,162.84,47.52,204.81,117.69,2.82,4.71,13.43,23.26,14.19,27.31Z" style="fill: #9e5ae4;"/>
    <path id="grape_4_light" d="M1560.95,1160.79c-.76-4.05-11.38-22.6-14.19-27.31-41.97-70.17-122.89-116.38-204.81-117.69-1.49-20.82-4.94-41.09-10.28-61.22-1.29-4.85-6.34-17-6.57-20.49-.08-1.21.41-1.81,1.51-2.14,3.04-.93,18.59-.39,22.89-.19,117.84,5.36,205.81,98.29,211.47,214.53.23,4.7,2.34,9.48-.01,14.51Z" style="fill: #be8cf1;"/>
  </g>
  <g id="grape_3">
    <path id="grape_3_light" d="M1202.95,1402.79c34.66,159.31-106.94,300.14-266.01,264.51-138.27-30.97-211.62-183.03-150.99-311.51,23.68,43.25,60.41,78.44,105.32,99.18,104.51,48.24,220.72,18.93,307.14-50.22,1.49-1.19,2.25-2.35,4.54-1.96Z" style="fill: #9e5ae4;"/>
    <path id="grape_3_dark" d="M785.95,1355.79c12.79-27.1,31.35-52.61,54.49-71.75,81.26,62.12,188.26,81.21,286.28,50.01,13.12-4.17,25.48-10.41,38.55-14.33,17.49,24.9,31.17,53.13,37.68,83.07-2.29-.39-3.05.77-4.54,1.96-86.42,69.14-202.63,98.46-307.14,50.22-44.92-20.73-81.64-55.92-105.32-99.18Z" style="fill: #7f3ec1;"/>
  </g>
  <g id="grape_2">
    <path id="grape_2_dark" d="M768.95,1205.79c11.34,17.69,25.06,33.65,38.93,49.36-54.93,50.54-86.65,122.52-86.42,197.64-54.24,30.5-121.8,33.29-180.02,12.01-72.62-26.54-128.73-93.51-141.48-170.02,18.39-39.1,42.94-70.43,79.08-94.42,90.22-59.88,198.4-58.87,286.63,4.25.92.66,2.11,2.08,3.29,1.16Z" style="fill: #9e5ae4;"/>
    <path id="grape_2_light" d="M768.95,1205.79c-1.17.92-2.36-.5-3.29-1.16-88.23-63.12-196.4-64.14-286.63-4.25-36.14,23.99-60.69,55.32-79.08,94.42-25.32-151.89,105.21-282.21,257.02-256.52,21.77,3.68,43.26,11.28,62.99,21.01,1.93,2.17.65,6.13.99,9.01,5.85,49.33,21.2,95.72,47.99,137.51Z" style="fill: #be8cf1;"/>
  </g>
  <g id="grape_1">
    <path id="grape_1_dark" d="M1296.6,1079.89c-20.7,129.05-131.23,224.5-261.91,226.2s-243.65-90.85-267.7-219.31c25.62-54.68,64.58-98.99,116.65-129.8,132.22-78.24,300.64-42.04,388.12,83.49,8.8,12.63,16.1,26.25,24.84,39.42Z" style="fill: #9e5ae4;"/>
    <path id="grape_1_light" d="M1296.6,1079.89c-8.74-13.17-16.04-26.79-24.84-39.42-87.48-125.53-255.9-161.73-388.12-83.49-52.07,30.81-91.03,75.12-116.65,129.8-19.72-105.31,24.99-212.27,113.78-272.23,88.79-59.96,204.7-61.47,295.02-3.84,90.32,57.63,137.79,163.39,120.82,269.18Z" style="fill: #be8cf1;"/>
  </g>
  <g id="leaf_and_stem">
    <path id="stem" d="M337.68,436.04c6.44-1.01,20.5,1.05,27.63,1.88,133.96,15.52,263.79,89.85,366.1,173.9,54.74,44.97,105.14,96.67,147.5,153.48-19.28,11.14-37.16,24.31-54.34,38.42-59.51-57.27-125.44-107.89-195.72-151.34-86.61-53.55-171.83-84.78-273.54-97.46-27.08-3.37-67.91,2.3-63.93-38.19,10.42-20.5,17.24-46.95,28.38-66.62,3.68-6.5,10.21-12.86,17.92-14.07Z" style="fill: #6dd527;"/>
    <path id="leaf" d="M934.67,45.06c21.78,47.09,44.5,89.89,47.32,143.18,2.17,41.1-14.83,104.57,40.56,116.44l104.67-4.66c7.61,2.28,11.21,10.24,9.25,17.8-1.74,6.69-9.09,21.59-12.35,28.64-40.83,88.38-118.44,161.21-215.17,182.83-14.72,3.29-29.75,5.11-44.65,7.35-40.33,6.05-80.93,10.87-121.36,16.15.15-18.7,3.48-37.79,7.49-56.02,15.85-71.97,51.14-140.27,92.29-200.71,5.51-8.1,22.38-27.58,23.22-35.77,1.04-10.13-3.63-19.12-13.22-22.79-18.19-6.96-26.46,8.77-35.6,20.97-55.49,74.05-96.94,164-113.68,255.31-20.5-28.27-43.17-55.02-63.9-83.1-64.27-87.05-88.98-186.3-69.29-294.08,1.01-5.5,4.4-25.47,7.61-28.39s7.32-2.92,10.56-.4l96.2,81.8c10.28,6.08,21.83,8.19,33.55,5.9,29.1-5.68,33.66-28.61,48.55-49.45,38.5-53.88,99.03-89.78,163.46-103.1l4.48,2.1Z" style="fill: #6dd527;"/>
  </g>
  <g id="outline_grape">
    <path id="outline" d="M1027.11,261.62c16.42-1.01,32.93-1.08,49.37-1.79,32.36-1.4,67.89-11.22,90.87,18.04,31,39.46-5.96,85.86-23.24,122.59l-19.17,30.32c11.6,3.9,23.5,10.93,33.92,17.59,29.36,18.78,53.92,43.52,74.77,71.27,8.28-1.54,16.58-3.65,24.95-4.73,107.61-13.82,212.86,39.17,265.54,133.2,52.74,94.11,42.49,210.91-24.17,295.13,87.24,65.82,124.31,180.05,93.5,285.53-15.54,53.2-48.66,101.02-92.51,134.52,13.07,14.49,25.97,28.99,36.43,45.57,65.95,104.62,41.29,243.4-56.96,317.87-104.48,79.19-249.21,60.21-331.42-40.5-2.39-2.92-10.91-16.49-13.53-16.47-1.42.01-20.88,12.6-24.49,14.53-62.36,33.42-133.96,40.05-201.79,19.75-93.99-28.13-165.79-108.66-183.24-205.27-17.87,7.72-36.62,13.98-55.78,17.71-123.7,24.03-247.48-41.87-295.67-157.74-42.18-101.42-17.1-217.85,61.32-293.61.24-1.24-11.33-18.6-13.02-21.68-28.43-51.65-38.92-110.06-30.84-168.67-36.26,50.86-113.7,71.37-164.46,28.97-46.76-39.06-41.47-101.76-18.71-152.65,5.61-12.53,13.13-24.04,19.18-36.32-8.54-.87-16.98-3.04-25.51-3.99-49.26-5.53-98.25,1.44-145.7,14.27-11.38,3.08-29.99,11.75-41.06,9.49-7.07-1.45-14.1-9.65-15.28-16.72-3.76-22.73,20.14-26.6,36.55-31.56,71.53-21.59,149.95-28.11,222.47-7.48,53.66-44.41,124.05-59.05,192.52-60.03l-10.78-3.7c-40.87-12.99-83.39-15.32-125.59-20.41-39.37-4.75-71.13-37.31-67.5-78.24,1.53-17.29,21.46-59.99,29.69-77.31,21.73-45.73,48.46-49.16,95.54-43.18,78.95,10.03,158.62,39.57,228.66,76.34,9.01,4.73,17.53,10.62,26.97,14.51-11.28-15.67-24.12-30.41-35.22-46.27-55.88-79.88-80.27-178.89-70.77-276.22,5.08-52.05,15.93-123.68,87.3-93.31,32.83,26.25,64.36,54.3,96.15,81.86,7.22,4.27,9.89-7.77,12.75-12.37,43.63-70.14,118.11-123.24,199.77-139.23,47.01-9.21,58.16,34.19,72.86,67.21,26.25,58.94,34,92.07,33.22,157.87-.14,11.48-3.77,24.26,2.12,35.28ZM934.67,45.06l-4.48-2.1c-64.43,13.32-124.96,49.22-163.46,103.1-14.89,20.84-19.45,43.77-48.55,49.45-11.72,2.29-23.27.17-33.55-5.9l-96.2-81.8c-3.24-2.52-7.51-2.38-10.56.4-3.2,2.92-6.6,22.88-7.61,28.39-19.69,107.78,5.02,207.03,69.29,294.08,20.73,28.08,43.4,54.83,63.9,83.1,16.74-91.31,58.18-181.26,113.68-255.31,9.14-12.2,17.41-27.93,35.6-20.97,9.59,3.67,14.26,12.66,13.22,22.79-.84,8.19-17.71,27.68-23.22,35.77-41.15,60.44-76.44,128.74-92.29,200.71-4.01,18.22-7.34,37.31-7.49,56.02,40.44-5.28,81.03-10.09,121.36-16.15,14.9-2.24,29.94-4.06,44.65-7.35,96.73-21.63,174.33-94.45,215.17-182.83,3.26-7.05,10.61-21.95,12.35-28.64,1.96-7.56-1.64-15.52-9.25-17.8l-104.67,4.66c-55.39-11.87-38.39-75.33-40.56-116.44-2.82-53.29-25.54-96.09-47.32-143.18ZM337.68,436.04c-7.71,1.21-14.24,7.57-17.92,14.07-11.13,19.67-17.96,46.13-28.38,66.62-3.97,40.49,36.85,34.81,63.93,38.19,101.72,12.68,186.93,43.91,273.54,97.46,70.28,43.45,136.21,94.07,195.72,151.34,17.18-14.11,35.06-27.27,54.34-38.42-42.36-56.81-92.76-108.51-147.5-153.48-102.31-84.05-232.15-158.37-366.1-173.9-7.14-.83-21.19-2.9-27.63-1.88ZM1033.85,725.69c13.05-65.9,51.17-124.9,105.78-163.71,15.81-11.24,32.91-20.16,50.3-28.68-17.7-22.24-40.34-41.88-65.31-55.67-4.05-2.24-24.35-12.6-27.37-12.64-1.07-.01-1.68.45-2.34,1.23-43.7,48.87-103.75,86.25-167.54,102.5-37.81,9.63-77.81,11.7-116.25,18.24-1.5,5.38-11.17,26.83-8.68,30.83.52.84,2.91,1.81,4.04,2.97,21.75,22.3,44.4,43.6,64.98,67.02,16.58,18.87,32.01,38.8,47.09,58.88,36.71-13.88,75.93-21.22,115.3-20.97ZM1122.95,738.79c.32.1,1.37,1.38,2.67,1.78,77.25,24.37,142.17,78.36,180.32,149.72,2.49,1.51,21.05-1.35,25.52-1.5,38.68-1.24,79.81,7.64,115.17,22.81,3.2,1.37,14.13,7.73,16.04,8.02,1.41.22,8.28-9.01,9.7-10.93,20.22-27.29,35.73-65.26,40.59-98.91,17.08-118.48-63.15-230.24-180.81-250.69s-228.06,53.36-255.15,168.27c-.1,1.25.52,1.87,1.65,2.23,3.91,1.27,11.05,1.46,15.52,2.48,8.88,2.01,20.37,4.16,28.79,6.71ZM552.95,668.8c-81.53-10.76-173.09-15.45-246,28.49,42.94,23.2,82.22,58.36,94.7,107.3l3.28,21.2c20.81-60.57,65.34-112.39,121.34-143.16,7.8-4.29,16.8-7.51,24.37-11.63.93-.51,2.2-.95,2.31-2.18ZM433.95,939.79c4.03,35.21,15.65,68.31,35.08,97.95,9.28-4.17,17.77-10.68,26.9-15.47,59.6-31.25,129.39-38.03,194.24-20.19,10.43,2.87,20.49,7.12,30.78,9.72,3.94-56.55,24.77-110.35,57.19-156.32,4.03-5.71,8.8-11,12.82-16.68.87-1.24,2.28-2.19,2.87-3.68.48-3.07-39.28-38.03-44.86-42.83-41.24-35.44-85.77-67.32-131.75-96.32-116.83,18.92-196.7,126.26-183.26,243.83ZM271.6,728.87c-26.25,33.61-55.7,99.15-22.68,136.44,33.88,38.26,114.49,11.37,113.07-39.07-1.21-43.14-52.65-84.29-90.39-97.37ZM766.99,1086.78c24.05,128.46,137.02,221.01,267.7,219.31s241.21-97.15,261.91-226.2c16.97-105.79-30.5-211.55-120.82-269.18-90.32-57.63-206.23-56.12-295.02,3.84-88.79,59.96-133.49,166.92-113.78,272.23ZM1341.95,1015.79c7.17,99.94-35.9,200.14-113.53,262.97-3.47,2.81-24.93,17.18-25.39,18.69-.36,1.19.27,2.04.69,3.05,2.58,6.23,11.46,17.55,15.4,24.62,3.17,5.69,5.87,14.09,8.97,19.03,2.84,4.52,21.99,12.76,27.87,15.13,121.82,49.23,260.54-17.49,296.7-143.27,3.55-12.36,10.5-43.43,8.28-55.22,2.35-5.03.24-9.81.01-14.51-5.66-116.24-93.62-209.17-211.47-214.53-4.3-.2-19.85-.74-22.89.19-1.1.34-1.59.93-1.51,2.14.23,3.48,5.28,15.64,6.57,20.49,5.35,20.13,8.79,40.4,10.28,61.22ZM399.95,1294.79c12.75,76.5,68.87,143.48,141.48,170.02,58.22,21.28,125.78,18.49,180.02-12.01-.23-75.12,31.49-147.11,86.42-197.64-13.87-15.71-27.59-31.67-38.93-49.36-26.79-41.79-42.14-88.18-47.99-137.51-.34-2.88.94-6.84-.99-9.01-19.72-9.73-41.22-17.33-62.99-21.01-151.81-25.69-282.34,104.63-257.02,256.52ZM785.95,1355.79c-60.63,128.48,12.72,280.54,150.99,311.51,159.07,35.63,300.67-105.21,266.01-264.51-6.51-29.94-20.19-58.16-37.68-83.07-13.07,3.93-25.43,10.16-38.55,14.33-98.02,31.19-205.02,12.1-286.28-50.01-23.14,19.13-41.7,44.65-54.49,71.75ZM1520.95,1473.79c-11.13-33.27-30.84-63.23-57.64-85.84-66.36,34.87-145.94,39.44-216.35,13.85,4.32,30.57,5.4,59.58.7,90.21-8.7,56.64-36.86,109.61-77.56,149.44,14.96,25.74,38.7,48.29,64.18,63.52,2.22,1.33,4.9,1.86,6.67,2.83,157.45,86.6,336.83-64.05,280-234Z" style="fill: #45413d;"/>
  </g>
</svg>