<?xml version="1.0" encoding="UTF-8"?>
<svg id="Lemon-Lime" xmlns="http://www.w3.org/2000/svg" viewBox="0 0 283.9 284.86">
  <path id="Lemon-Lime_outside" d="M101.88.22c31.17-2.58,75.32,18.1,100.51,35.89,55.81,39.39,118.35,141.53,54.7,199.33-41.39,37.58-104.93,59.04-160.22,45.19-10.37-2.6-22.56-9.45-32.4-10.6-15.08-1.77-28.91,3.79-42.42-6.58-16.75-12.87-10.59-25.8-10.94-43.07C10.68,198.64.65,176.65.04,153.47-1.39,99.33,40.67,5.29,101.88.22Z" style="fill: #37a513;"/>
  <path id="Lemon-Lime_inside" d="M99.88,10.21c73.07-7.54,159.65,76.07,172.74,144.67,11.54,60.48-26.08,95.07-85.53,78.53-63.85-17.76-111.46-64.77-133.02-126.98-14.28-41.22-4.69-91.01,45.81-96.22Z" style="fill: #fefefe;"/>
  <path id="Lemon-Lime_dark" d="M147.8,130.22c2.03,1.67,3.14,7.5,3.31,10.17.43,6.51-2.55,34.49-5.61,39.46-1.43,2.32-3.02,3.37-5.83,3.09-7.92-.79-32-26.4-36.23-33.86-2.53-4.45-3.55-6.96,1.62-9.66,3.89-2.04,26.36-9.19,30.97-10.03,3.14-.57,9.18-1.29,11.77.84Z" style="fill: #197306;"/>
  <path id="Lemon-Lime_dark_2" d="M222.82,103.67c-1.18,1.24-29.42,10.52-32.48,11.01-9.7,1.56-13.59.48-15-9.52-.99-7.05,1.63-33.56,4.69-39.79,2.08-4.24,4.02-5.58,8.63-3.53,6.1,2.71,20.63,17.06,25.44,22.55,3.45,3.93,13.44,14.3,8.71,19.28Z" style="fill: #197306;"/>
  <path id="Lemon-Lime_dark_3" d="M220.88,117.22c17.91-1.26,21.05,6.24,25.7,21.7,2.09,6.94,9.73,27.29-3.22,23.22-10.39-3.27-32.68-15.98-43.3-21.7-17.26-9.3-23.45-12.83.6-19.44,6.5-1.79,13.48-3.31,20.22-3.78Z" style="fill: #197306;"/>
  <path id="Lemon-Lime_dark_4" d="M165,100.83c-2.52,1.69-5.88-2.29-7.42-3.9-7.82-8.16-31.54-44.07-34.72-54.28-1.69-5.45-2.2-9.05,4.42-8.51,15.21,1.22,42.53,7.86,41.89,27.29-1.89,4.83-2.52,38.31-4.17,39.41Z" style="fill: #197306;"/>
  <path id="Lemon-Lime_dark_5" d="M161.09,142.91c2-1.99,6.48,1.83,7.97,3.53,7.4,8.49,32.24,45.73,34.54,55.46,1.81,7.67-1,7.62-7.91,6.9-11.88-1.24-37.94-8.57-38.54-23.46l3.94-42.43Z" style="fill: #197306;"/>
  <path id="Lemon-Lime_dark_6" d="M87.42,121.58c-4.42-4.43-11.91-29.1-12.14-35.46-.17-4.71,4.21-4.72,7.84-3.73,7.34,2.01,25.23,12.01,32.99,16.01,5.92,3.05,17.61,8.27,22.32,11.68,5.17,3.75,2.54,6.44-1.96,8.72-10.97,5.56-39.48,12.38-49.04,2.79Z" style="fill: #197306;"/>
  <path id="Lemon-Lime_dark_7" d="M180.63,141.93c4.69-1.17,50.48,26.18,56.46,31.48,8.11,7.17,11.75,12.1,3.5,21.52-10.93,12.49-18.01,11.05-27.93-1.09-11.82-14.46-21.21-34.1-33.1-48.91-1.12-1.03.2-2.78,1.07-2.99Z" style="fill: #197306;"/>
  <path id="Lemon-Lime_dark_8" d="M98.85,40.12c5.38-.75,7.97,2.68,11.2,6.33,13.41,15.15,23.57,36.59,36.55,52.47l-1.04,3.01c-15.13-7.68-31.21-14.2-45.39-23.59-6.8-4.5-20.38-12.9-19.05-21.85.86-5.74,12.21-15.6,17.73-16.37Z" style="fill: #197306;"/>
  <path id="Lemon-Lime_dark_9" d="M153.79,110.12c10.57-3.18,26.97,17.26,19.9,22.89-8.97,7.13-30.96-19.56-19.9-22.89Z" style="fill: #197306;"/>
</svg>