<?xml version="1.0" encoding="UTF-8"?>
<svg id="Layer_10" data-name="Layer 10" xmlns="http://www.w3.org/2000/svg" viewBox="0 0 3466.76 1914.87">
  <g>
    <path d="M2255.68,998.92c-.07,1.04-.18,2.05-.33,3.03-12.41,82.21-71.26,154.2-157.45,192.59-27.56,12.27-79.31,18.5-153.83,18.5-43.04,0-90.03-2.32-101.73-4.29-15.82-2.59-37.17-11.61-49.25-39.84-6.49-15.16-8.28-31.41-9.59-43.28l-.18-1.62c-1.79-15.32-3.03-30.3-4.16-44.33,0-.12-.01-.24-.02-.36-.69-10.22-1.38-20.38-2.08-30.54-.97-14.25-1.95-28.55-2.9-42.91,6.64,11.09,17.41,16.73,29.94,15.84.35-.02.71-.05,1.07-.09-.36.2-.7.4-1.04.61-13.74,8.19-16.57,20.72-17.15,25.31-1.12,9.05,1.59,18.25,7.43,25.22,1.41,1.67,2.97,3.18,4.66,4.51-.87,3.18-1.1,6.76-.35,10.8.64,3.45,2.05,6.7,4.14,9.52,2.43,3.29,4.98,6.49,7.62,9.58,2.12,2.47,4.3,4.88,6.54,7.21,39.88,41.57,99.25,61.74,156.87,51.96,2.31-.39,4.65-.84,6.93-1.32,54.7-11.67,99.43-47.5,122.72-98.29,23.55-51.38,21.46-109.33-5.73-159.01-.11-.21-11.65-21.16-21.13-26.84-4.82-2.89-10.57-3.96-16.19-3-6.9,1.17-12.34,5.05-19.85,10.84-.48.36-.88.67-1.09.83-1.51,1.08-3.01,2.19-4.52,3.28-4.01-4.45-9.01-7.83-14.55-9.7-4.95-1.66-10.08-2.24-15.29-1.76-.92-2.09-2.01-4.1-3.26-5.99,16.1-17.15,22.14-31.9,18.91-45.74-4.36-18.72-20.53-30.1-38.43-27.06-14.2,2.4-25.68,13.4-29.38,27.79-6.51-3.29-13.94-4.47-21.15-3.25-8.9,1.51-16.82,6.5-22.46,13.98-1.2-2.72-2.61-5.43-4.31-8.09-7.78-12.17-22.07-18.46-36.41-16.03-17.25,2.92-29.45,17.19-29.67,34.69-.06,4.98.76,9.56,2.16,13.74-1.16-.08-2.34-.12-3.53-.09-2,.04-4.01.23-5.95.56-13.21,2.24-24.17,10.84-29.33,23-.12.28-.23.55-.34.83-2.51,6.34-3.23,13.13-2.26,19.73-.89-.38-1.75-.73-2.59-1.04-1.86-.71-3.59-1.25-5.1-1.58-5.54-1.2-10.94-1.36-16.07-.49-2.69.46-5.25,1.2-7.66,2.19-3.89-77.6-5.51-156.01-.94-233.91.03-.59.09-1.25.17-1.92,4.16-36.6,24.31-66.51,53.93-80.04,16.91-7.87,34.23-9,48.16-9.91,6.96-.46,12.97-.85,17.8-1.9,6.64-1.45,13.72-3.39,20.57-5.25,14.35-3.92,30.61-8.35,48.36-9.97,8.4-.95,17.15-1.43,26.01-1.43,22.65,0,45.33,3.11,65.62,9,44.31,12.58,74.27,38.3,84.37,72.45,4.4,14.88,4.75,30.45,1.04,46.26-4.44,18.92-14.71,37.67-30.52,55.74-5.14,5.95-10.87,11.83-17.53,17.96,120.15,42.08,177.4,120.47,170.28,233.32Z" style="fill: #fff;"/>
    <path d="M1804.1,1021.71c0,.17,0,.35.03.52.34-.21.68-.41,1.04-.61-.36.04-.72.07-1.07.09ZM2053.99,785.76c-3.03-.99-5.82-1.75-8.53-2.49-6.86-1.87-11.95-3.26-15.61-6.97.19-.63.94-2.28,3.92-5.19,3.14-3.05,7.43-6.23,11.22-9.04,3.63-2.69,6.79-5.04,8.86-7.17,11.46-9.51,20.16-17.83,27.33-26.14,28.29-32.29,28.46-58.58,23.61-74.95-7.2-24.36-30.19-43.16-64.7-52.94-17.73-5.15-37.67-7.88-57.67-7.88-7.89,0-15.66.44-23.1,1.29-15.33,1.36-29.75,5.29-43.69,9.09-7.19,1.96-14.63,3.99-22.04,5.62-6.92,1.5-14.26,1.98-22.03,2.49-12.75.83-25.93,1.69-37.98,7.32-20.41,9.29-34.38,30.66-37.38,57.19-.02.1-.02.2-.03.31-4.52,77.02-2.88,154.9,1.02,232.1.84.31,1.7.66,2.59,1.04-.97-6.6-.25-13.39,2.26-19.73.11-.28.22-.55.34-.83,5.16-12.16,16.12-20.76,29.33-23,1.94-.33,3.95-.52,5.95-.56,1.19-.03,2.37.01,3.53.09-1.4-4.18-2.22-8.76-2.16-13.74.22-17.5,12.42-31.77,29.67-34.69,14.34-2.43,28.63,3.86,36.41,16.03,1.7,2.66,3.11,5.37,4.31,8.09,5.64-7.48,13.56-12.47,22.46-13.98,7.21-1.22,14.64-.04,21.15,3.25,3.7-14.39,15.18-25.39,29.38-27.79,17.9-3.04,34.07,8.34,38.43,27.06,3.23,13.84-2.81,28.59-18.91,45.74,1.25,1.89,2.34,3.9,3.26,5.99,5.21-.48,10.34.1,15.29,1.76,5.54,1.87,10.54,5.25,14.55,9.7,1.51-1.09,3.01-2.2,4.52-3.28.21-.16.61-.47,1.09-.83,7.51-5.79,12.95-9.67,19.85-10.84,5.62-.96,11.37.11,16.19,3,9.48,5.68,21.02,26.63,21.13,26.84,27.19,49.68,29.28,107.63,5.73,159.01-23.29,50.79-68.02,86.62-122.72,98.29-2.28.48-4.62.93-6.93,1.32-57.62,9.78-116.99-10.39-156.87-51.96-2.24-2.33-4.42-4.74-6.54-7.21.44,4.5.93,9.04,1.46,13.59l.19,1.72c2.33,21.17,5.86,53.15,34.94,57.86,6.22,1.19,49.5,3.9,97,3.9s112.41-2.78,142.12-16.01c77.17-34.38,129.77-98.16,140.69-170.63.03-.16.04-.33.05-.49,6.71-106.14-49.86-175.27-172.94-211.35ZM1895.34,764.79c-.75-.61-1.76-1.77-1.9-4.69-.61-13.03,16.47-40.18,39.73-63.14,19.78-19.51,40.66-32.12,53.21-32.12,5.39,0,7.6,2.32,8.79,4.07,7.62,11.18-11.85,39.05-35.07,59.54-26.2,23.12-49.44,37.48-60.66,37.48-1.82,0-3.16-.38-4.1-1.14Z" style="fill: #1e1e1e;"/>
    <path d="M2052.29,791.26c-11.74-3.85-21.17-4.45-27.66-12.13l-.05-.1c-4.47-9.26,19.33-21.91,25.34-28.35,9.5-7.87,18.83-16.34,26.93-25.72,45.51-51.95,24.89-100.64-38.36-118.56-24.82-7.21-53.52-9.28-78.59-6.39-22.68,2-43.21,9.81-65.08,14.6-19.02,4.13-40.74.97-58.86,9.44-20.59,9.37-31.57,30.74-34.04,52.59-4.16,70.9-3.12,141.99.12,213.07.11-.28.22-.55.34-.83,5.16-12.16,16.12-20.76,29.33-23,1.94-.33,3.95-.52,5.95-.56,1.19-.03,2.37.01,3.53.09-1.4-4.18-2.22-8.76-2.16-13.74.22-17.5,12.42-31.77,29.67-34.69,14.34-2.43,28.63,3.86,36.41,16.03,1.7,2.66,3.11,5.37,4.31,8.09,5.64-7.48,13.56-12.47,22.46-13.98,7.21-1.22,14.64-.04,21.15,3.25,3.7-14.39,15.18-25.39,29.38-27.79,17.9-3.04,34.07,8.34,38.43,27.06,3.23,13.84-2.81,28.59-18.91,45.74,1.25,1.89,2.34,3.9,3.26,5.99,5.21-.48,10.34.1,15.29,1.76,5.54,1.87,10.54,5.25,14.55,9.7,1.51-1.09,3.01-2.2,4.52-3.28.21-.16.61-.47,1.09-.83,7.51-5.79,12.95-9.67,19.85-10.84,5.62-.96,11.37.11,16.19,3,9.48,5.68,21.02,26.63,21.13,26.84,27.19,49.68,29.28,107.63,5.73,159.01-23.29,50.79-68.02,86.62-122.72,98.29-2.28.48-4.62.93-6.93,1.32-57.62,9.78-116.99-10.39-156.87-51.96.21,1.92.42,3.84.65,5.75,2.38,21.49,4.89,50.47,30.41,54.54,10.03,2.1,182.72,11.92,235.76-11.7,69.65-31.02,125.92-90.42,137.35-166.22,6.49-102.85-47.68-169.98-168.9-205.49ZM1963.91,732.77c-21.25,18.76-58.72,47.49-72.21,36.48s8.89-48.22,37.43-76.39c28.54-28.16,59.8-43.32,70.8-27.19,11,16.13-14.77,48.35-36.02,67.1Z" style="fill: #892cdc;"/>
  </g>
  <g>
    <path d="M1945.95,1483.85c-15.13,0-29.69-10.14-36.26-20.15l-.02-.03c-9.09-13.66-13.67-36.13-15.8-59.28-3.18,10.13-7.03,19.49-11.53,28.01-.28.52-.56,1.02-.86,1.49-5.54,8.73-13.39,15.28-22.66,18.9-.02,0-.1.04-.1.04-8.79,3.46-20.47,5.07-36.75,5.07-6.65,0-12.93-.27-17.68-.5-40.53-1.79-50.61-34.43-57.28-56.04-.06-.18-.11-.36-.16-.53,0-.03-.01-.05-.02-.08-13-47.1-14.85-101.03-5.27-149.3-3.82.63-7.82.95-11.98.95-3.2,0-6.54-.19-9.94-.57l-.31-.03c-11.4-1.07-22.8-3.03-33.83-4.91q-3.62-.62-3.88-.67c-2.43-.49-4.87-.94-7.23-1.37h-.08c-17.37-3.18-41.08-7.5-51.95-31.41-.32-.69-.6-1.43-.84-2.16-7.5-23.07-6.03-61.63,4.13-108.59,9.05-41.83,22.94-80.12,36.24-99.93,11.21-16.76,28.89-25.63,51.13-25.63,8.47,0,17.7,1.2,29.03,3.78,18.42,4.1,32.74,10.88,42.58,20.14l.07.06c10.41,9.37,17.31,22.41,19.45,36.73,2.14,14.36-.7,28.68-8.02,40.34l-.03.06c-2.38,3.95-4.91,7.46-7.13,10.56-2.29,3.19-4.89,6.8-5.65,8.78-.09.24-.17.43-.25.62-1.23,2.88,1.17,10.13,3.29,16.52l.69,2.08c3.77,11.1,6.17,22.16,7.16,32.88,1.08,12.35.62,24.89-1.3,36.73,1.32-.14,2.63-.2,3.9-.2,9.62,0,17.72,3.86,22.72,10.7,5.17-7.15,13.52-11.21,23.18-11.21,12.79,0,25.45,6.66,32.36,13.27.22.2.44.4.65.61,17.4,17.05,22.76,47.17,26.24,70.96,4.83-19.72,11.31-33.94,19.39-42.48.4-.42.83-.84,1.27-1.23,14.96-13.42,33.32-15.28,50.92-15.28,1.85,0,3.69.02,5.52.04h1.74c19.04.04,35.99,4.36,49.02,12.5,13.46,8.42,22.57,20.55,26.81,35.52,4.46-25.21,11.19-43.91,20.08-55.76.6-.79,1.23-1.52,1.9-2.2,15.24-15.32,36.23-17.09,50.68-17.09,6.07,0,11.9.33,17.54.64,1.78.1,3.53.2,5.25.28,14.22.74,27.8,5.05,39.01,12.27-1.85-24.33.41-48.42,2.11-61.72,1.69-13.18,11.5-80.56,38.95-113.06.16-.19.35-.4.54-.61,7.12-7.8,16.71-13.8,26.31-16.48l.08-.02c3.29-.98,6.8-1.49,10.18-1.49,9.03,0,16.78,3.51,21.82,9.88,1.89,2.38,3.28,5.07,4.16,7.92.01-.02.03-.03.04-.05,12.89-14.77,31.08-17.72,45.52-18.63l.26-.02c7.27-.56,15.54-1.19,23.34-1.19,2.09,0,4.08.05,5.94.14,7.14.32,29.05,1.3,34.69,18.9,2.35,7.39,1.3,18.05-8.71,25.89-.76.59-1.58,1.15-2.42,1.64-.66.38-1.32.74-1.99,1.09,17.35,4.96,24.06,18.15,24.43,28.61.54,15.63-10.92,28.71-29.19,33.3-.02,0-.03,0-.05.01-7.51,1.96-16.17,2.77-24.42,3.35-5.81.56-10.95.64-15.47.71-6.29.09-10.23.2-13.11,1.14.03.21.1.83.11.84.18,1.48.39,3.16.58,5.05,6.9,41.57,16,49.24,17.47,50.23.98.49,3.7,1.41,10.63,1.41,4.02,0,8.42-.29,13.07-.59,5.11-.33,10.35-.67,15.57-.67,9.9,0,24.38,1.11,35.86,10.71.75.63,1.48,1.33,2.14,2.07l.14.16c6.32,7.1,8.56,16.26,6.18,25.15-2.58,9.66-10.55,17.95-20.83,21.68-10.87,4.38-26.52,5.28-41.67,6.14h-.18c-4.2.25-8.22.48-11.93.78-.25.02-.48.03-.71.05-1.83.08-3.7.2-5.69.33,0,0-.14,0-.31.01h0c-3.35.22-7.09.46-10.93.53,1.8,6.46,1.28,13.24-1.63,19.46-2.86,6.13-10.59,16.78-30.1,19.29,0,0-.02,0-.03,0-3.24.44-6.74.66-10.7.66-7.94,0-16.34-.85-25.7-1.89-.23-.02-.51-.06-.79-.1-3.81-.57-7.75-.97-11.93-1.39-13.99-1.41-30.86-3.12-44.74-12.8-6.73,26.34-30.59,46.02-61.02,49.2-9.09,1.23-17.95,1.48-26.52,1.72h-.48c-1.89.07-3.8.12-5.69.19,0,0-.01,0-.02,0-2.96.13-8.83.41-12.28,1.46-.83,5.22-.14,15.04,2.05,29.24v.06c2.05,12.63,5.07,25.11,8.99,37.1.16.5.32,1.04.45,1.59.59,2.48,2.34,6.66,4.03,10.69,2.74,6.55,5.83,13.96,7.29,21.42,3.4,17.4-3.52,27.53-9.92,32.96-.44.37-.88.71-1.32,1.03-5.59,4.02-12.29,6.15-19.37,6.15-9.84,0-19.97-4.01-28.54-11.29-.16-.14-.32-.28-.48-.42-2.18-1.97-4.19-4.15-6.02-6.55-2.21,12.85-6.9,22.5-14.48,30.22l-.18.18c-7.61,7.96-17.99,12.71-27.8,12.71-12.21,0-22.54-6.79-27.64-18.18-.05-.11-.1-.22-.14-.31-5.55-12.74-2.35-26.45.23-37.48.43-1.84.83-3.55,1.15-5.09,0,0,.08-.38.09-.41,3.16-13.93,3.21-31.23.14-45.16-2.21-10-6.97-23.09-17.14-28.85-5.85-2.42-12.85-3.8-19.26-3.8-4.97,0-8.33.8-10.37,1.54-.13.52-.29,1.31-.4,2.43-.52,5.28.36,12.47,1.13,18.82.33,2.69.64,5.24.87,7.72,2.01,13.89,5.1,26.81,9.45,39.5.1.29.19.59.28.89.97,3.32,2.43,6.79,3.97,10.45,3.83,9.12,8.6,20.47,7.04,33.91-.12,1.01-.31,2.01-.57,2.98-3.78,14.22-15.1,23.06-29.54,23.06ZM1797.8,1334.18c2.03,18.62,5.34,32.57,9.83,41.46,5.77,11.41,11.61,11.41,14.11,11.41.16,0,.34,0,.52,0,2.19-.31,5.45-1.48,9.21-7.25,7.26-11.11,11.74-32.09,12.31-57.56.55-24.68-2.67-46.7-5.89-56.71-.09-.28-.18-.57-.25-.85-2.66-9.74-7.25-19.69-13.28-28.81-.27-.41-.54-.84-.78-1.28-.28-.5-.83-1.36-1.32-2.11-.69-1.08-1.53-2.38-2.39-3.87-.64,1.21-1.36,2.45-2.17,3.72-.15.24-.31.47-.46.69-16.61,24.13-23.16,58.17-19.45,101.12v.05ZM2050.38,1309.92c-5.22,11.78-5.97,14.62-2.85,20.67.99,1.92,1.95,3.81,2.87,5.69.05-9.36.34-18.98.87-28.4-.31.7-.61,1.38-.9,2.04ZM1956.91,1286.1c1.4.08,3.08.13,5.1.13,1.33,0,2.62-.02,3.83-.03h.62c22.19-.52,27.59-4.45,28.72-5.65.04-.04.57-.59.57-.59,2.46-2.53,2.09-3.75,1.83-4.64-.88-2.96-4.14-5.47-8.3-6.4-.35-.08-.69-.16-1.03-.26-3.69-1.02-7.15-1.54-10.26-1.54-10.44,0-17.51,6.38-21.08,18.98ZM2115.24,1258.9c1.33.06,2.87.1,4.67.1,1.36,0,2.78-.02,4.37-.06,23.07-.53,28.18-4.79,28.98-5.64.31-.34.83-.86,1.04-1.06.96-.92,1.46-2.27,1.38-3.71-.07-1.47-.73-2.79-1.8-3.63-3.93-3.09-10.12-4.94-16.55-4.94-2.68,0-5.2.32-7.5.94l-.4.11c-7.28,1.84-11.7,10.54-14.18,17.89ZM2262.21,1188.21c3.74,15.76,8.81,18.13,15.05,19.59.54.13,1.03.27,1.52.42,3.17,1,7.56,1.64,12.26,2.29-3.38-6.93-5.61-13.99-7.52-20.04-.3-.94-.59-1.87-.88-2.79-.09-.28-.17-.56-.25-.85-10.48-38.29-12.08-84.11-4.28-122.58.02-.08.17-.8.23-1.03-1.11,1.46-2.18,2.94-3.16,4.46-.08.13-.17.26-.26.39-4.51,6.81-8.27,14.81-11.18,23.76-4.2,12.91-6.7,27.71-7.24,42.79-.58,17.65,1.32,35.63,5.66,53.4h0l.05.19ZM1685.19,1112.36c-2.49,19.44-2.29,39.59.6,59.88,0,.07.02.14.03.21,1.32,10.21,4.23,17.17,8.2,19.6l.07.04c2.87,1.77,6.99,2.73,11.61,2.73,3.05,0,6.16-.43,8.99-1.23,7.66-2.2,12.71-11.56,15-27.81v-.03c2.62-19.79-1.19-51.83-13.15-57.18-6.51-2.53-17.19-5.46-26.09-5.46-1.52,0-2.63.1-3.39.21-.41,1.34-1.05,3.97-1.85,9.04ZM1700.86,1047.27c8.88,1.89,18.87,3.96,27.52,3.96,5.43,0,9.51-.83,11.81-2.41l.26-.19c2.95-2.16,2.77-3.54,2.63-4.54-.35-2.64-2.93-6.32-7.76-8.14-.3-.11-.57-.22-.84-.34h0c-5.56-2.38-11.13-3.64-16.11-3.64-5.31,0-8.03,1.55-9.38,2.86-3.02,3.03-6.05,7.97-8.13,12.45Z" style="fill: #fff;"/>
    <path d="M1945.95,1468.2c-9.01,0-19.04-6.79-23.17-13.08l-.06-.09c-9.73-14.57-15.01-47.2-14.84-91.86.02-5.52-4.28-10.13-9.79-10.49-.23-.01-.47-.02-.7-.02-5.25,0-9.71,3.93-10.38,9.14-3.17,24.72-9.4,46.02-18.52,63.3-.07.12-.13.24-.21.36-3.77,5.94-9.02,10.35-15.16,12.75-.03.01-.06.02-.08.03-6.8,2.7-16.98,4.01-31.08,4.01-6.34,0-12.4-.26-16.97-.48-27.42-1.2-35.13-19.42-43.04-45.02-.02-.05-.03-.1-.04-.15-13.07-47.33-14.3-101.9-3.38-149.72.83-3.65-.36-7.49-3.11-10.03-1.94-1.79-4.46-2.77-7.1-2.77-1.07,0-2.13.16-3.15.49-4.64,1.46-9.88,2.21-15.59,2.21-2.64,0-5.42-.16-8.27-.48-.14-.01-.51-.05-.52-.05-10.81-1.02-21.92-2.92-32.66-4.76,0,0-3.42-.58-3.47-.6-2.5-.51-5.02-.97-7.47-1.42l-.13-.02c-19.31-3.52-33.51-7.19-40.45-22.46-.08-.18-.15-.36-.21-.54-6.56-20.17-4.9-56.77,4.55-100.42,8.53-39.42,21.85-76.52,33.94-94.52,8.3-12.41,21.13-18.7,38.13-18.7,7.28,0,15.41,1.08,25.6,3.4,15.71,3.5,27.58,8.98,35.34,16.32l.2.18c7.75,6.95,12.9,16.7,14.5,27.46,1.6,10.69-.47,21.25-5.83,29.75l-.12.19c-2.07,3.43-4.31,6.55-6.47,9.57-3.11,4.33-6.05,8.41-7.53,12.25-.02.05-.04.11-.06.16-3.54,8.31-.45,17.67,2.83,27.57l.7,2.13c3.38,9.95,5.54,19.83,6.41,29.34,1.17,13.42.32,27.1-2.47,39.57-.8,3.59.36,7.38,3.04,9.9,1.95,1.84,4.5,2.85,7.18,2.85.97,0,1.94-.14,2.88-.4,2.67-.76,5.28-1.17,7.55-1.17,6.8,0,9.66,3.36,10.76,5.36,3.5,6.37-1.44,14.16-3.06,16.71-.03.05-.07.11-.11.16-18.77,27.26-26.23,64.77-22.17,111.48l.02.22c2.27,20.83,6.01,36.17,11.43,46.91,6.71,13.28,16.16,20.01,28.08,20.01.46,0,.91,0,1.37-.03.28-.01.57-.03.86-.07,8.16-1,15.09-5.8,20.61-14.25,8.94-13.69,14.21-37.05,14.85-65.78.59-26.63-2.91-50.26-6.64-61.86-.02-.07-.05-.15-.07-.22-3.08-11.27-8.38-22.78-15.31-33.27-.07-.1-.13-.21-.19-.31-.52-.92-1.17-1.93-1.8-2.92-3.54-5.52-6.51-10.95-3.99-16.67.1-.23.22-.46.36-.67,2.16-3.43,6.03-5.32,10.89-5.32,7.96,0,17.05,4.61,21.56,8.95.1.09.19.18.29.27.06.05.11.1.17.16,14.96,14.62,19.32,45.09,22.5,67.33l.23,1.57c.01.08.02.16.03.24,1.16,12.04,1.83,23.91,1.99,35.3.08,5.54,4.48,10.07,10.02,10.31.15,0,.31,0,.47,0,5.39,0,9.86-4.05,10.41-9.41,5.34-52.33,16.3-70.87,22.35-77.27.1-.1.2-.2.31-.3,10.47-9.4,23.77-11.32,40.51-11.32,1.8,0,3.58.02,5.35.03l1.83.02c16.12.01,30.23,3.51,40.79,10.11,12.9,8.07,20.25,20.23,21.85,36.14,0,.06.01.12.02.18.76,11.73-3.52,21.39-7.29,29.92-5.18,11.7-9.27,20.94-2.45,34.18,5.29,10.19,9.45,19.7,12.71,29.08,1.47,4.2,5.44,7.03,9.88,7.03.68,0,1.37-.07,2.04-.2,5.09-1.01,8.71-5.68,8.42-10.86-1.23-21.86-.63-48.88,1.6-72.28,4.46-46.78,13.84-67.85,20.93-77.29.15-.19.3-.38.47-.55,11.13-11.19,27.92-12.48,39.59-12.48,5.63,0,11.24.31,16.67.62,1.81.1,3.59.2,5.35.29,13.55.71,26.31,5.37,35.94,13.14,1.06.86,2.09,1.76,3.07,2.68,1.96,1.86,4.52,2.88,7.22,2.88,1.66,0,3.31-.4,4.79-1.16,3.95-2.03,6.2-6.36,5.58-10.77-3.69-26.38-1.07-55.1.83-69.87,4.39-34.29,16.3-82.35,35.39-104.95.04-.05.09-.1.13-.15,5.14-5.63,12.25-10.11,19.02-11.98l.22-.06c1.88-.56,3.87-.86,5.78-.86,5.31,0,8.12,2.14,9.54,3.94,1.75,2.21,2.31,5.11,1.59,8.16-.01.05-.02.1-.04.14-1.48,5.55-5.37,10.28-9.87,15.76-2.73,3.32-5.81,7.07-8.49,11.26-.02.04-.05.08-.08.12-5.3,8-9.69,17.29-13.04,27.6-4.64,14.28-7.4,30.55-7.99,47.07-.63,19.1,1.42,38.51,6.1,57.67,0,.04.02.07.03.11,4.45,18.76,12.18,27.8,26.7,31.2.13.03.25.06.37.1,4.71,1.48,10.2,2.23,16.01,3.03,0,0,.07,0,.07,0,2.94.4,5.98.82,9.03,1.36.6.11,1.22.16,1.83.16,3.62,0,6.93-1.83,8.86-4.89,2.28-3.62,2.15-8.2-.34-11.68-5.46-7.64-8.44-17.07-11.06-25.39-.3-.96-.6-1.91-.91-2.85-.02-.07-.04-.14-.06-.21-9.86-36.03-11.37-79.14-4.03-115.32,0-.03.01-.06.02-.09,3.12-14.12,6.3-26.5,13.6-34.86,9.05-10.38,22.66-12.55,34.79-13.3l.34-.02c7.02-.54,15-1.15,22.19-1.15,1.83,0,3.57.04,5.17.12,18.23.82,19.97,6.26,20.55,8.04.47,1.47,1.06,5.25-3.46,8.79-.19.15-.4.29-.61.41-8.07,4.66-17.92,5.8-27.45,6.9-6.47.75-13.17,1.52-18.72,3.42-3.46,1.19-6.09,4.15-6.85,7.73-.76,3.58.43,7.35,3.11,9.85.47.44.95.85,1.41,1.21,1.84,1.44,4.13,2.24,6.47,2.24.21,0,.42,0,.63-.02,3.81-.23,8.08-.77,12.6-1.36,6.42-.82,13.04-1.67,19.07-1.67,2.98,0,5.56.2,7.89.62,15.27,2.7,16.39,12.86,16.46,14.87.33,9.67-9.14,15.51-17.36,17.58l-1.38-5.03,1.3,5.05s-.07.02-.07.02c-6.29,1.65-14.13,2.37-21.65,2.9-.1,0-.2.02-.3.02-5.22.51-9.82.58-14.26.64-8.78.13-15.7.24-22.28,3.88-.5.28-.98.6-1.43.96-.69.55-1.31,1.08-1.85,1.6-2.27,2.15-3.46,5.17-3.26,8.28.08,1.28.27,2.81.5,4.66l.02.14c.19,1.51.39,3.08.55,4.85.02.23.05.47.09.71,5.62,33.98,13.99,54.59,24.87,61.26.13.08.27.16.4.24,4.21,2.33,10.03,3.42,18.31,3.42,4.55,0,9.2-.3,14.12-.62,4.82-.31,9.8-.64,14.51-.64,7.46,0,18.25.73,25.82,7.07.19.16.37.33.54.52l.13.14c2.77,3.11,3.73,6.9,2.72,10.68-1.24,4.65-5.7,9.08-11.1,11.02-.13.05-.26.1-.4.15-8.48,3.44-22.86,4.26-36.77,5.05h-.13c-4.35.26-8.45.49-12.33.8-.06,0-.12,0-.19.01-1.96.09-3.92.21-6,.34,0,0-.28.02-.29.02-3.87.25-7.87.5-11.87.5-1.88,0-3.68-.06-5.35-.18-.25-.02-.49-.03-.74-.03-3.67,0-7.11,1.96-8.99,5.11-2.04,3.41-1.98,7.62.15,10.97,2.58,4.07,2.96,8.54,1.06,12.59-1.5,3.22-5.83,8.84-17.91,10.39,0,0-.09.01-.1.01-2.54.35-5.37.52-8.64.52-7.15,0-15.09-.81-23.98-1.79-.07,0-.13-.02-.2-.03-4.17-.62-8.31-1.04-12.68-1.48-15.48-1.57-31.45-3.18-42.35-14.31-1.96-2-4.69-3.14-7.48-3.14-1.19,0-2.36.2-3.49.6-3.82,1.35-6.55,4.83-6.94,8.87-2.26,23.41-22.31,41.67-48.75,44.4-.11.01-.22.02-.32.04-8.3,1.13-16.78,1.37-24.97,1.6h-.44c-1.95.07-3.88.12-5.81.19l-.34-5.21.24,5.21c-5.76.26-12.33.69-17.49,2.55-5.03,1.81-7.97,4.8-9,9.15l-.03.1c-2.36,9.11-.46,24.52,1.45,36.92,0,.01.01.08.01.09,2.17,13.44,5.39,26.75,9.57,39.54.04.13.08.27.12.41.88,3.67,2.78,8.22,4.8,13.05,2.44,5.85,5.22,12.48,6.37,18.38,1.58,8.11.05,14.01-4.68,18.02-.11.09-.22.18-.33.26-2.92,2.1-6.46,3.21-10.23,3.21-6.04,0-12.74-2.76-18.39-7.57-.04-.03-.07-.06-.11-.1-4.36-3.92-7.76-9.26-10.39-16.32-1.52-4.07-5.46-6.81-9.8-6.81-.6,0-1.2.05-1.79.15-4.96.85-8.61,5.13-8.69,10.16-.28,17.87-3.83,29.33-11.52,37.13l-.27.28c-4.64,4.88-10.98,7.91-16.53,7.91-5.95,0-10.82-3.26-13.36-8.94-.02-.05-.04-.1-.06-.14-3.49-7.98-1.04-18.44,1.11-27.68.45-1.92.87-3.74,1.24-5.49,0-.03.01-.07.02-.1,3.69-16.28,3.75-35.71.16-51.99-4.19-18.98-12.87-32.58-25.1-39.32-.32-.18-.65-.34-.99-.48-7.86-3.31-16.95-5.13-25.59-5.13-7.2,0-13.67,1.29-18.69,3.74-.81.4-1.58.9-2.26,1.49-3.03,2.62-4.8,6.82-5.39,12.85-.7,7.01.3,15.12,1.17,22.27.32,2.64.62,5.1.83,7.36.02.18.04.37.06.55,2.15,14.92,5.47,28.82,10.16,42.49.03.07.05.15.07.23,1.22,4.16,2.92,8.2,4.56,12.1,3.45,8.21,7.01,16.68,5.92,26.04-.03.25-.08.5-.14.74-1.93,7.27-7.19,11.44-14.42,11.44ZM1977.99,1251.47c-19.61,0-33.36,13.54-37.71,37.16-1.02,5.53,2.48,10.85,7.96,12.11,3.36.77,7.87,1.15,13.78,1.15,1.41,0,2.76-.02,4.04-.03h.7c20.81-.48,33.48-3.83,39.82-10.55.02-.02.42-.44.42-.44,7.31-7.51,7.08-15.02,5.59-20-2.51-8.43-10.13-15.03-19.88-17.21-.08-.02-.17-.04-.25-.06-5.07-1.4-9.93-2.12-14.45-2.12ZM2137.32,1224.31c-4.06,0-7.97.5-11.61,1.49-.04,0-.07.02-.11.03-8.06,2.04-19.03,8.77-25.59,29.28-.77,2.4-1.34,4.55-1.69,6.42-.51,2.72.1,5.59,1.68,7.87,1.57,2.28,4.04,3.87,6.77,4.36,3.35.6,7.77.91,13.14.91,1.48,0,3.04-.02,4.77-.07,21.02-.48,33.73-3.86,40.04-10.63.03-.03.42-.44.46-.48,4.2-4.05,6.43-9.79,6.13-15.75-.3-5.98-3.12-11.5-7.74-15.14-6.7-5.27-16.26-8.29-26.24-8.29ZM1690.44,1087.46c-4.9,0-8.92.72-11.62,2.09-.61.31-1.19.67-1.72,1.09-3.78,2.95-5.5,7.47-7.37,19.34-.02.1-.03.2-.04.3-2.68,20.88-2.48,42.48.62,64.17,1.99,15.45,7.22,25.84,15.54,30.94l.09.05c5.37,3.3,12.19,5.03,19.78,5.03,4.48,0,9.08-.63,13.28-1.83,14.16-4.07,22.98-17.76,26.21-40.68,0,0,.01-.07.01-.08,2.08-15.61,2.44-62.65-22.35-73.63-.2-.09-.35-.15-.51-.21-8.13-3.18-20.78-6.58-31.91-6.58ZM1718.37,1016.31c-10.6,0-16.91,3.98-20.33,7.32l-.08.08c-6.52,6.52-11.83,16.94-14.01,23.87-1.64,5.22,1.06,10.88,6.16,12.89,1.63.64,3.54,1.22,5.66,1.72l1,.21c9.87,2.1,21.07,4.48,31.62,4.48,8.94,0,15.76-1.72,20.82-5.26l.42-.3c8.7-6.33,9.69-13.99,8.98-19.3-1.2-8.96-8.16-17.09-17.74-20.72-.07-.03-.14-.05-.21-.08-7.49-3.21-15.2-4.91-22.28-4.91Z" style="fill: #424242;"/>
    <path d="M1945.95,1462.98c-6.94,0-15.48-5.65-18.81-10.73-.02-.04-.05-.07-.07-.11-9.04-13.53-14.13-45.96-13.97-88.96.03-8.29-6.39-15.17-14.66-15.72-.35-.02-.7-.03-1.04-.03-7.83,0-14.54,5.82-15.55,13.7-3.09,24.1-9.13,44.8-17.96,61.53-3.17,5-7.55,8.69-12.66,10.69-.02,0-.05.02-.07.03-6.21,2.46-15.76,3.66-29.19,3.66-6.22,0-12.2-.25-16.71-.48-.03,0-.05,0-.08,0-24.07-1.05-30.5-16.32-38.23-41.34-12.84-46.53-14.05-100.17-3.32-147.17,1.25-5.48-.53-11.22-4.66-15.03-2.94-2.71-6.75-4.15-10.64-4.15-1.58,0-3.17.24-4.72.73-4.13,1.3-8.85,1.96-14.02,1.96-2.45,0-5.04-.15-7.68-.45-.12-.01-.63-.06-.63-.06-10.6-1-21.61-2.88-32.26-4.71l-3.3-.56c-2.54-.52-5.1-.98-7.57-1.44l-.14-.02c-18.3-3.33-30.73-6.49-36.63-19.48-6.28-19.31-4.57-54.92,4.69-97.7,8.4-38.82,21.43-75.22,33.17-92.72,7.38-11.04,18.43-16.39,33.8-16.39,6.88,0,14.65,1.04,24.44,3.27.02,0,.05.01.07.02,14.73,3.28,25.78,8.33,32.84,15.01.1.09.2.19.3.28,6.84,6.14,11.4,14.78,12.82,24.34,1.41,9.45-.39,18.76-5.08,26.2-.06.09-.11.18-.17.27-1.96,3.26-4.14,6.3-6.25,9.23-3.31,4.6-6.42,8.94-8.15,13.39-4.31,10.13-.76,20.87,2.68,31.25,0,0,.69,2.1.71,2.14,3.26,9.58,5.33,19.06,6.16,28.16,1.12,12.85.31,26-2.36,37.95-1.21,5.4.52,11.04,4.55,14.84,2.95,2.78,6.82,4.27,10.76,4.27,1.44,0,2.89-.2,4.32-.61,2.2-.63,4.32-.96,6.12-.96,2.16,0,4.98.46,6.19,2.66,1.34,2.43.36,6.27-2.9,11.4-19.47,28.29-27.23,66.94-23.07,114.89,0,.11.02.23.03.34,2.33,21.46,6.25,37.39,11.96,48.69,9.55,18.9,23.07,22.87,32.73,22.87.54,0,1.06-.01,1.58-.03.43-.02.86-.05,1.29-.11,9.75-1.2,17.94-6.78,24.34-16.58,9.46-14.49,15.04-38.83,15.7-68.51.6-27.24-3.02-51.56-6.89-63.57-3.23-11.8-8.75-23.83-15.99-34.77-.59-1.04-1.28-2.13-1.96-3.18-3.45-5.38-4.96-8.67-3.6-11.74,1.5-2.38,4.35-2.88,6.47-2.88,6.27,0,14.2,3.89,17.94,7.5.14.13.28.27.43.39,13.69,13.38,17.91,42.84,20.98,64.34l.23,1.57c1.14,11.9,1.81,23.63,1.97,34.88.12,8.31,6.7,15.09,15.01,15.45.23,0,.46.01.69.01,8.01,0,14.78-6.06,15.6-14.1,5.38-52.69,16.44-69.45,20.95-74.21,9.24-8.29,21.49-9.99,37.03-9.99,1.78,0,3.55.02,5.3.03,0,0,1.81.02,1.86.02,15.16,0,28.32,3.23,38.05,9.31,11.46,7.17,18,18.01,19.42,32.24.68,10.45-3.15,19.1-6.86,27.47-5.29,11.94-10.28,23.22-2.31,38.68,5.19,9.99,9.24,19.27,12.43,28.4,2.23,6.4,8.25,10.53,14.81,10.53,1.01,0,2.04-.1,3.06-.3,7.67-1.52,13.05-8.46,12.62-16.27-1.21-21.62-.62-48.34,1.58-71.49,4.34-45.57,13.22-65.75,19.9-74.66,9.76-9.81,25.16-10.94,35.89-10.94,5.47,0,11.01.31,16.38.61,1.82.1,3.62.2,5.39.29,12.43.65,24.14,4.91,32.92,11.99.95.77,1.88,1.58,2.75,2.4,2.98,2.83,6.87,4.31,10.81,4.31,2.44,0,4.9-.57,7.17-1.74,5.93-3.05,9.29-9.52,8.36-16.13-3.61-25.78-1.03-53.97.83-68.48,4.3-33.59,15.84-80.52,34.2-102.25,4.5-4.93,10.69-8.84,16.55-10.47.11-.03.23-.06.34-.1,1.37-.41,2.89-.64,4.27-.64,1.78,0,4.17.34,5.45,1.96.74.93.95,2.25.6,3.72-1.19,4.46-4.75,8.78-8.86,13.79-2.83,3.44-6.01,7.31-8.86,11.76,0,0,0,.01-.01.02-5.58,8.41-10.17,18.12-13.67,28.9-4.79,14.73-7.64,31.5-8.24,48.49-.65,19.65,1.46,39.57,6.28,59.23v-.06c4.9,20.73,14.04,31.2,30.57,35.08,5.13,1.61,10.83,2.4,16.87,3.22,2.92.4,5.93.81,8.9,1.34.91.16,1.83.24,2.74.24,5.32,0,10.36-2.71,13.27-7.32,3.4-5.39,3.2-12.31-.51-17.5-4.98-6.97-7.82-15.98-10.33-23.93-.31-.97-.61-1.93-.91-2.87-9.66-35.28-11.13-77.49-3.95-112.91,2.96-13.41,5.94-25.12,12.43-32.56,7.79-8.93,20.13-10.84,31.18-11.53.07,0,.4-.03.4-.03,6.94-.53,14.81-1.13,21.81-1.13,1.75,0,3.4.04,4.92.11,8.91.4,15.1,2.13,15.83,4.42.2.64.07,1.69-1.71,3.09-7.14,4.12-16.44,5.2-25.44,6.24-6.75.78-13.73,1.58-19.81,3.67-5.22,1.79-9.12,6.18-10.26,11.58-1.15,5.4.62,11,4.66,14.75.58.54,1.16,1.04,1.74,1.49,2.77,2.18,6.19,3.35,9.69,3.35.31,0,.62,0,.94-.03,4-.24,8.35-.8,12.97-1.39,6.26-.8,12.71-1.63,18.4-1.63,2.66,0,4.94.18,6.96.54,11.33,2,12.13,8.61,12.17,9.92.23,6.56-7.09,10.75-13.42,12.34-.05.01-.11.03-.16.04-5.92,1.55-13.46,2.24-20.73,2.75-.14,0-.28.02-.43.04-5.03.49-9.53.56-13.88.62-9.11.14-16.97.25-24.7,4.53-.75.42-1.47.9-2.15,1.43-.81.64-1.55,1.28-2.2,1.9-3.39,3.21-5.17,7.75-4.87,12.41.09,1.42.29,3.03.53,4.98v.07c.2,1.5.39,3.05.55,4.77.03.36.08.71.14,1.07,5.96,36.04,14.89,57.25,27.29,64.85.2.12.4.24.61.35,5.02,2.78,11.64,4.07,20.83,4.07,4.71,0,9.45-.31,14.46-.63,4.77-.31,9.63-.62,14.17-.62,6.64,0,16.2.61,22.47,5.85l.13.14c1.58,1.78,2.12,3.77,1.57,5.86-.68,2.55-3.59,5.93-7.83,7.45-.2.07-.4.15-.6.23-7.67,3.11-21.62,3.91-35.1,4.68-4.42.25-8.6.49-12.58.81-2.02.09-4.03.22-6.15.35h-.18c-3.81.26-7.74.51-11.6.51-1.76,0-3.44-.06-4.99-.16-.37-.03-.74-.04-1.1-.04-5.5,0-10.63,2.88-13.47,7.65-3.03,5.08-2.95,11.44.22,16.44,1.64,2.59,1.89,5.14.74,7.59-1.05,2.25-4.25,6.2-13.85,7.43-.05,0-.1.01-.15.02-2.31.32-4.9.47-7.93.47-6.87,0-14.67-.8-23.41-1.76-4.31-.64-8.51-1.07-12.97-1.52-15.19-1.54-29.53-2.98-39.11-12.77-3-3.06-7.06-4.71-11.21-4.71-1.75,0-3.51.29-5.22.9-5.75,2.03-9.81,7.21-10.39,13.29-2.02,20.91-20.15,37.24-44.09,39.71-.17.02-.33.04-.49.06-8.01,1.09-16.35,1.32-24.41,1.55h-.26c-2.02.07-4.03.12-6.03.19-.05,0-.1,0-.15,0-6.14.28-13.18.75-19.02,2.85-6.72,2.42-10.86,6.74-12.31,12.85-2.58,9.97-.77,25.33,1.35,39.03,0,.03.01.07.02.1,2.21,13.73,5.5,27.3,9.76,40.35.97,4.07,2.96,8.82,5.06,13.85,2.35,5.63,5.01,11.99,6.06,17.37,1.58,8.12-.92,11.33-2.94,13.05-2.03,1.46-4.51,2.23-7.19,2.23-4.75,0-10.36-2.36-15.01-6.32-3.72-3.35-6.66-8.01-8.99-14.26-2.32-6.22-8.24-10.21-14.69-10.21-.88,0-1.78.08-2.68.23-7.43,1.28-12.91,7.67-13.02,15.22-.26,16.43-3.35,26.78-10.02,33.55,0,0-.27.28-.32.33-3.64,3.83-8.65,6.3-12.76,6.3-4.95,0-7.41-3.18-8.6-5.85,0-.01-.01-.03-.02-.04-2.82-6.45-.58-16.01,1.39-24.46.46-1.96.89-3.82,1.26-5.63,3.85-16.99,3.91-37.28.17-54.27-4.52-20.49-14.09-35.28-27.68-42.77-.48-.27-.98-.51-1.49-.72-8.49-3.57-18.3-5.54-27.61-5.54-7.99,0-15.24,1.47-20.97,4.26-1.22.59-2.36,1.35-3.39,2.23-4.09,3.53-6.44,8.86-7.18,16.29-.75,7.58.28,16,1.19,23.42.32,2.58.61,5,.81,7.19.03.28.06.55.1.83,2.19,15.25,5.59,29.46,10.38,43.43,1.3,4.44,3.06,8.62,4.76,12.67,3.33,7.93,6.47,15.41,5.55,23.41-1.33,5.02-4.49,7.57-9.37,7.57ZM1977.99,1246.25c-22.04,0-38.06,15.49-42.84,41.43-1.52,8.26,3.73,16.26,11.92,18.14,3.75.86,8.64,1.28,14.94,1.28,1.43,0,2.81-.02,4.1-.03,0,0,.65,0,.7,0,22.64-.51,36.07-4.27,43.54-12.18l.37-.38c9.55-9.81,8.39-19.95,6.85-25.13-3.05-10.24-12.15-18.22-23.74-20.81-5.52-1.53-10.85-2.31-15.85-2.31ZM2124.3,1220.77c-9.33,2.36-21.97,9.96-29.25,32.74-.83,2.58-1.46,4.97-1.85,7.06-.76,4.11.14,8.35,2.52,11.79,2.37,3.44,6.02,5.79,10.14,6.53,3.65.66,8.38.99,14.06.99,1.53,0,3.13-.02,4.9-.07,22.8-.52,36.3-4.31,43.72-12.29,0,0,.27-.28.27-.28,5.28-5.1,8.09-12.3,7.72-19.76-.37-7.48-3.92-14.4-9.73-18.98-7.6-5.99-18.34-9.41-29.47-9.41-4.52,0-8.89.56-12.98,1.68h-.04ZM1683.24,1209.92c6.14,3.77,13.9,5.77,22.45,5.77,4.96,0,10.05-.7,14.71-2.03,16.34-4.69,26.41-19.82,29.95-44.98,0-.04.01-.08.02-.11,2.37-17.82,2.44-66.75-25.4-79.09l-.04-.02c-.22-.1-.44-.19-.67-.28-8.58-3.36-21.96-6.94-33.81-6.94-5.8,0-10.5.89-13.98,2.65-.91.46-1.78,1.01-2.58,1.64-5.57,4.35-7.44,10.77-9.31,22.63-.02.15-.04.3-.06.44-2.75,21.35-2.54,43.42.62,65.58,2.2,17.03,8.24,28.69,17.98,34.65.05.03.09.06.14.08ZM1718.37,1011.1c-12.36,0-19.86,4.79-23.97,8.8-.04.04-.09.09-.13.13-7.18,7.17-12.85,18.22-15.29,25.99-2.47,7.86,1.56,16.29,9.23,19.31,1.86.73,4.01,1.39,6.37,1.95.12.03.23.05.35.08l.77.16c10.13,2.15,21.61,4.59,32.7,4.59,10.05,0,17.84-2.03,23.81-6.21.04-.03.43-.31.47-.34,11.37-8.28,11.84-18.73,11.11-24.22-1.45-10.84-9.72-20.62-21.07-24.91-8.14-3.49-16.55-5.33-24.33-5.33Z" style="fill: #231f20;"/>
    <path d="M1945.95,1483.85c-15.13,0-29.69-10.14-36.26-20.15l-.02-.03c-9.09-13.66-13.67-36.13-15.8-59.28-3.18,10.13-7.03,19.49-11.53,28.01-.28.52-.56,1.02-.86,1.49-5.54,8.73-13.39,15.28-22.66,18.9-.02,0-.1.04-.1.04-8.79,3.46-20.47,5.07-36.75,5.07-6.65,0-12.93-.27-17.68-.5-40.53-1.79-50.61-34.43-57.28-56.04-.06-.18-.11-.36-.16-.53,0-.03-.01-.05-.02-.08-13-47.1-14.85-101.03-5.27-149.3-3.82.63-7.82.95-11.98.95-3.2,0-6.54-.19-9.94-.57l-.31-.03c-11.4-1.07-22.8-3.03-33.83-4.91q-3.62-.62-3.88-.67c-2.43-.49-4.87-.94-7.23-1.37h-.08c-17.37-3.18-41.08-7.5-51.95-31.41-.32-.69-.6-1.43-.84-2.16-7.5-23.07-6.03-61.63,4.13-108.59,9.05-41.83,22.94-80.12,36.24-99.93,11.21-16.76,28.89-25.63,51.13-25.63,8.47,0,17.7,1.2,29.03,3.78,18.42,4.1,32.74,10.88,42.58,20.14l.07.06c10.41,9.37,17.31,22.41,19.45,36.73,2.14,14.36-.7,28.68-8.02,40.34l-.03.06c-2.38,3.95-4.91,7.46-7.13,10.56-2.29,3.19-4.89,6.8-5.65,8.78-.09.24-.17.43-.25.62-1.23,2.88,1.17,10.13,3.29,16.52l.69,2.08c3.77,11.1,6.17,22.16,7.16,32.88,1.08,12.35.62,24.89-1.3,36.73,1.32-.14,2.63-.2,3.9-.2,9.62,0,17.72,3.86,22.72,10.7,5.17-7.15,13.52-11.21,23.18-11.21,12.79,0,25.45,6.66,32.36,13.27.22.2.44.4.65.61,17.4,17.05,22.76,47.17,26.24,70.96,4.83-19.72,11.31-33.94,19.39-42.48.4-.42.83-.84,1.27-1.23,14.96-13.42,33.32-15.28,50.92-15.28,1.85,0,3.69.02,5.52.04h1.74c19.04.04,35.99,4.36,49.02,12.5,13.46,8.42,22.57,20.55,26.81,35.52,4.46-25.21,11.19-43.91,20.08-55.76.6-.79,1.23-1.52,1.9-2.2,15.24-15.32,36.23-17.09,50.68-17.09,6.07,0,11.9.33,17.54.64,1.78.1,3.53.2,5.25.28,14.22.74,27.8,5.05,39.01,12.27-1.85-24.33.41-48.42,2.11-61.72,1.69-13.18,11.5-80.56,38.95-113.06.16-.19.35-.4.54-.61,7.12-7.8,16.71-13.8,26.31-16.48l.08-.02c3.29-.98,6.8-1.49,10.18-1.49,9.03,0,16.78,3.51,21.82,9.88,1.89,2.38,3.28,5.07,4.16,7.92.01-.02.03-.03.04-.05,12.89-14.77,31.08-17.72,45.52-18.63l.26-.02c7.27-.56,15.54-1.19,23.34-1.19,2.09,0,4.08.05,5.94.14,7.14.32,29.05,1.3,34.69,18.9,2.35,7.39,1.3,18.05-8.71,25.89-.76.59-1.58,1.15-2.42,1.64-.66.38-1.32.74-1.99,1.09,17.35,4.96,24.06,18.15,24.43,28.61.54,15.63-10.92,28.71-29.19,33.3-.02,0-.03,0-.05.01-7.51,1.96-16.17,2.77-24.42,3.35-5.81.56-10.95.64-15.47.71-6.29.09-10.23.2-13.11,1.14.03.21.1.83.11.84.18,1.48.39,3.16.58,5.05,6.9,41.57,16,49.24,17.47,50.23.98.49,3.7,1.41,10.63,1.41,4.02,0,8.42-.29,13.07-.59,5.11-.33,10.35-.67,15.57-.67,9.9,0,24.38,1.11,35.86,10.71.75.63,1.48,1.33,2.14,2.07l.14.16c6.32,7.1,8.56,16.26,6.18,25.15-2.58,9.66-10.55,17.95-20.83,21.68-10.87,4.38-26.52,5.28-41.67,6.14h-.18c-4.2.25-8.22.48-11.93.78-.25.02-.48.03-.71.05-1.83.08-3.7.2-5.69.33,0,0-.14,0-.31.01h0c-3.35.22-7.09.46-10.93.53,1.8,6.46,1.28,13.24-1.63,19.46-2.86,6.13-10.59,16.78-30.1,19.29,0,0-.02,0-.03,0-3.24.44-6.74.66-10.7.66-7.94,0-16.34-.85-25.7-1.89-.23-.02-.51-.06-.79-.1-3.81-.57-7.75-.97-11.93-1.39-13.99-1.41-30.86-3.12-44.74-12.8-6.73,26.34-30.59,46.02-61.02,49.2-9.09,1.23-17.95,1.48-26.52,1.72h-.48c-1.89.07-3.8.12-5.69.19,0,0-.01,0-.02,0-2.96.13-8.83.41-12.28,1.46-.83,5.22-.14,15.04,2.05,29.24v.06c2.05,12.63,5.07,25.11,8.99,37.1.16.5.32,1.04.45,1.59.59,2.48,2.34,6.66,4.03,10.69,2.74,6.55,5.83,13.96,7.29,21.42,3.4,17.4-3.52,27.53-9.92,32.96-.44.37-.88.71-1.32,1.03-5.59,4.02-12.29,6.15-19.37,6.15-9.84,0-19.97-4.01-28.54-11.29-.16-.14-.32-.28-.48-.42-2.18-1.97-4.19-4.15-6.02-6.55-2.21,12.85-6.9,22.5-14.48,30.22l-.18.18c-7.61,7.96-17.99,12.71-27.8,12.71-12.21,0-22.54-6.79-27.64-18.18-.05-.11-.1-.22-.14-.31-5.55-12.74-2.35-26.45.23-37.48.43-1.84.83-3.55,1.15-5.09,0,0,.08-.38.09-.41,3.16-13.93,3.21-31.23.14-45.16-2.21-10-6.97-23.09-17.14-28.85-5.85-2.42-12.85-3.8-19.26-3.8-4.97,0-8.33.8-10.37,1.54-.13.52-.29,1.31-.4,2.43-.52,5.28.36,12.47,1.13,18.82.33,2.69.64,5.24.87,7.72,2.01,13.89,5.1,26.81,9.45,39.5.1.29.19.59.28.89.97,3.32,2.43,6.79,3.97,10.45,3.83,9.12,8.6,20.47,7.04,33.91-.12,1.01-.31,2.01-.57,2.98-3.78,14.22-15.1,23.06-29.54,23.06ZM1797.8,1334.18c2.03,18.62,5.34,32.57,9.83,41.46,5.77,11.41,11.61,11.41,14.11,11.41.16,0,.34,0,.52,0,2.19-.31,5.45-1.48,9.21-7.25,7.26-11.11,11.74-32.09,12.31-57.56.55-24.68-2.67-46.7-5.89-56.71-.09-.28-.18-.57-.25-.85-2.66-9.74-7.25-19.69-13.28-28.81-.27-.41-.54-.84-.78-1.28-.28-.5-.83-1.36-1.32-2.11-.69-1.08-1.53-2.38-2.39-3.87-.64,1.21-1.36,2.45-2.17,3.72-.15.24-.31.47-.46.69-16.61,24.13-23.16,58.17-19.45,101.12v.05ZM2050.38,1309.92c-5.22,11.78-5.97,14.62-2.85,20.67.99,1.92,1.95,3.81,2.87,5.69.05-9.36.34-18.98.87-28.4-.31.7-.61,1.38-.9,2.04ZM1956.91,1286.1c1.4.08,3.08.13,5.1.13,1.33,0,2.62-.02,3.83-.03h.62c22.19-.52,27.59-4.45,28.72-5.65.04-.04.57-.59.57-.59,2.46-2.53,2.09-3.75,1.83-4.64-.88-2.96-4.14-5.47-8.3-6.4-.35-.08-.69-.16-1.03-.26-3.69-1.02-7.15-1.54-10.26-1.54-10.44,0-17.51,6.38-21.08,18.98ZM2115.24,1258.9c1.33.06,2.87.1,4.67.1,1.36,0,2.78-.02,4.37-.06,23.07-.53,28.18-4.79,28.98-5.64.31-.34.83-.86,1.04-1.06.96-.92,1.46-2.27,1.38-3.71-.07-1.47-.73-2.79-1.8-3.63-3.93-3.09-10.12-4.94-16.55-4.94-2.68,0-5.2.32-7.5.94l-.4.11c-7.28,1.84-11.7,10.54-14.18,17.89ZM2262.21,1188.21c3.74,15.76,8.81,18.13,15.05,19.59.54.13,1.03.27,1.52.42,3.17,1,7.56,1.64,12.26,2.29-3.38-6.93-5.61-13.99-7.52-20.04-.3-.94-.59-1.87-.88-2.79-.09-.28-.17-.56-.25-.85-10.48-38.29-12.08-84.11-4.28-122.58.02-.08.17-.8.23-1.03-1.11,1.46-2.18,2.94-3.16,4.46-.08.13-.17.26-.26.39-4.51,6.81-8.27,14.81-11.18,23.76-4.2,12.91-6.7,27.71-7.24,42.79-.58,17.65,1.32,35.63,5.66,53.4h0l.05.19ZM1685.19,1112.36c-2.49,19.44-2.29,39.59.6,59.88,0,.07.02.14.03.21,1.32,10.21,4.23,17.17,8.2,19.6l.07.04c2.87,1.77,6.99,2.73,11.61,2.73,3.05,0,6.16-.43,8.99-1.23,7.66-2.2,12.71-11.56,15-27.81v-.03c2.62-19.79-1.19-51.83-13.15-57.18-6.51-2.53-17.19-5.46-26.09-5.46-1.52,0-2.63.1-3.39.21-.41,1.34-1.05,3.97-1.85,9.04ZM1700.86,1047.27c8.88,1.89,18.87,3.96,27.52,3.96,5.43,0,9.51-.83,11.81-2.41l.26-.19c2.95-2.16,2.77-3.54,2.63-4.54-.35-2.64-2.93-6.32-7.76-8.14-.3-.11-.57-.22-.84-.34h0c-5.56-2.38-11.13-3.64-16.11-3.64-5.31,0-8.03,1.55-9.38,2.86-3.02,3.03-6.05,7.97-8.13,12.45Z" style="fill: #fff;"/>
    <path d="M1945.95,1468.2c-9.01,0-19.04-6.79-23.17-13.08l-.06-.09c-9.73-14.57-15.01-47.2-14.84-91.86.02-5.52-4.28-10.13-9.79-10.49-.23-.01-.47-.02-.7-.02-5.25,0-9.71,3.93-10.38,9.14-3.17,24.72-9.4,46.02-18.52,63.3-.07.12-.13.24-.21.36-3.77,5.94-9.02,10.35-15.16,12.75-.03.01-.06.02-.08.03-6.8,2.7-16.98,4.01-31.08,4.01-6.34,0-12.4-.26-16.97-.48-27.42-1.2-35.13-19.42-43.04-45.02-.02-.05-.03-.1-.04-.15-13.07-47.33-14.3-101.9-3.38-149.72.83-3.65-.36-7.49-3.11-10.03-1.94-1.79-4.46-2.77-7.1-2.77-1.07,0-2.13.16-3.15.49-4.64,1.46-9.88,2.21-15.59,2.21-2.64,0-5.42-.16-8.27-.48-.14-.01-.51-.05-.52-.05-10.81-1.02-21.92-2.92-32.66-4.76,0,0-3.42-.58-3.47-.6-2.5-.51-5.02-.97-7.47-1.42l-.13-.02c-19.31-3.52-33.51-7.19-40.45-22.46-.08-.18-.15-.36-.21-.54-6.56-20.17-4.9-56.77,4.55-100.42,8.53-39.42,21.85-76.52,33.94-94.52,8.3-12.41,21.13-18.7,38.13-18.7,7.28,0,15.41,1.08,25.6,3.4,15.71,3.5,27.58,8.98,35.34,16.32l.2.18c7.75,6.95,12.9,16.7,14.5,27.46,1.6,10.69-.47,21.25-5.83,29.75l-.12.19c-2.07,3.43-4.31,6.55-6.47,9.57-3.11,4.33-6.05,8.41-7.53,12.25-.02.05-.04.11-.06.16-3.54,8.31-.45,17.67,2.83,27.57l.7,2.13c3.38,9.95,5.54,19.83,6.41,29.34,1.17,13.42.32,27.1-2.47,39.57-.8,3.59.36,7.38,3.04,9.9,1.95,1.84,4.5,2.85,7.18,2.85.97,0,1.94-.14,2.88-.4,2.67-.76,5.28-1.17,7.55-1.17,6.8,0,9.66,3.36,10.76,5.36,3.5,6.37-1.44,14.16-3.06,16.71-.03.05-.07.11-.11.16-18.77,27.26-26.23,64.77-22.17,111.48l.02.22c2.27,20.83,6.01,36.17,11.43,46.91,6.71,13.28,16.16,20.01,28.08,20.01.46,0,.91,0,1.37-.03.28-.01.57-.03.86-.07,8.16-1,15.09-5.8,20.61-14.25,8.94-13.69,14.21-37.05,14.85-65.78.59-26.63-2.91-50.26-6.64-61.86-.02-.07-.05-.15-.07-.22-3.08-11.27-8.38-22.78-15.31-33.27-.07-.1-.13-.21-.19-.31-.52-.92-1.17-1.93-1.8-2.92-3.54-5.52-6.51-10.95-3.99-16.67.1-.23.22-.46.36-.67,2.16-3.43,6.03-5.32,10.89-5.32,7.96,0,17.05,4.61,21.56,8.95.1.09.19.18.29.27.06.05.11.1.17.16,14.96,14.62,19.32,45.09,22.5,67.33l.23,1.57c.01.08.02.16.03.24,1.16,12.04,1.83,23.91,1.99,35.3.08,5.54,4.48,10.07,10.02,10.31.15,0,.31,0,.47,0,5.39,0,9.86-4.05,10.41-9.41,5.34-52.33,16.3-70.87,22.35-77.27.1-.1.2-.2.31-.3,10.47-9.4,23.77-11.32,40.51-11.32,1.8,0,3.58.02,5.35.03l1.83.02c16.12.01,30.23,3.51,40.79,10.11,12.9,8.07,20.25,20.23,21.85,36.14,0,.06.01.12.02.18.76,11.73-3.52,21.39-7.29,29.92-5.18,11.7-9.27,20.94-2.45,34.18,5.29,10.19,9.45,19.7,12.71,29.08,1.47,4.2,5.44,7.03,9.88,7.03.68,0,1.37-.07,2.04-.2,5.09-1.01,8.71-5.68,8.42-10.86-1.23-21.86-.63-48.88,1.6-72.28,4.46-46.78,13.84-67.85,20.93-77.29.15-.19.3-.38.47-.55,11.13-11.19,27.92-12.48,39.59-12.48,5.63,0,11.24.31,16.67.62,1.81.1,3.59.2,5.35.29,13.55.71,26.31,5.37,35.94,13.14,1.06.86,2.09,1.76,3.07,2.68,1.96,1.86,4.52,2.88,7.22,2.88,1.66,0,3.31-.4,4.79-1.16,3.95-2.03,6.2-6.36,5.58-10.77-3.69-26.38-1.07-55.1.83-69.87,4.39-34.29,16.3-82.35,35.39-104.95.04-.05.09-.1.13-.15,5.14-5.63,12.25-10.11,19.02-11.98l.22-.06c1.88-.56,3.87-.86,5.78-.86,5.31,0,8.12,2.14,9.54,3.94,1.75,2.21,2.31,5.11,1.59,8.16-.01.05-.02.1-.04.14-1.48,5.55-5.37,10.28-9.87,15.76-2.73,3.32-5.81,7.07-8.49,11.26-.02.04-.05.08-.08.12-5.3,8-9.69,17.29-13.04,27.6-4.64,14.28-7.4,30.55-7.99,47.07-.63,19.1,1.42,38.51,6.1,57.67,0,.04.02.07.03.11,4.45,18.76,12.18,27.8,26.7,31.2.13.03.25.06.37.1,4.71,1.48,10.2,2.23,16.01,3.03,0,0,.07,0,.07,0,2.94.4,5.98.82,9.03,1.36.6.11,1.22.16,1.83.16,3.62,0,6.93-1.83,8.86-4.89,2.28-3.62,2.15-8.2-.34-11.68-5.46-7.64-8.44-17.07-11.06-25.39-.3-.96-.6-1.91-.91-2.85-.02-.07-.04-.14-.06-.21-9.86-36.03-11.37-79.14-4.03-115.32,0-.03.01-.06.02-.09,3.12-14.12,6.3-26.5,13.6-34.86,9.05-10.38,22.66-12.55,34.79-13.3l.34-.02c7.02-.54,15-1.15,22.19-1.15,1.83,0,3.57.04,5.17.12,18.23.82,19.97,6.26,20.55,8.04.47,1.47,1.06,5.25-3.46,8.79-.19.15-.4.29-.61.41-8.07,4.66-17.92,5.8-27.45,6.9-6.47.75-13.17,1.52-18.72,3.42-3.46,1.19-6.09,4.15-6.85,7.73-.76,3.58.43,7.35,3.11,9.85.47.44.95.85,1.41,1.21,1.84,1.44,4.13,2.24,6.47,2.24.21,0,.42,0,.63-.02,3.81-.23,8.08-.77,12.6-1.36,6.42-.82,13.04-1.67,19.07-1.67,2.98,0,5.56.2,7.89.62,15.27,2.7,16.39,12.86,16.46,14.87.33,9.67-9.14,15.51-17.36,17.58l-1.38-5.03,1.3,5.05s-.07.02-.07.02c-6.29,1.65-14.13,2.37-21.65,2.9-.1,0-.2.02-.3.02-5.22.51-9.82.58-14.26.64-8.78.13-15.7.24-22.28,3.88-.5.28-.98.6-1.43.96-.69.55-1.31,1.08-1.85,1.6-2.27,2.15-3.46,5.17-3.26,8.28.08,1.28.27,2.81.5,4.66l.02.14c.19,1.51.39,3.08.55,4.85.02.23.05.47.09.71,5.62,33.98,13.99,54.59,24.87,61.26.13.08.27.16.4.24,4.21,2.33,10.03,3.42,18.31,3.42,4.55,0,9.2-.3,14.12-.62,4.82-.31,9.8-.64,14.51-.64,7.46,0,18.25.73,25.82,7.07.19.16.37.33.54.52l.13.14c2.77,3.11,3.73,6.9,2.72,10.68-1.24,4.65-5.7,9.08-11.1,11.02-.13.05-.26.1-.4.15-8.48,3.44-22.86,4.26-36.77,5.05h-.13c-4.35.26-8.45.49-12.33.8-.06,0-.12,0-.19.01-1.96.09-3.92.21-6,.34,0,0-.28.02-.29.02-3.87.25-7.87.5-11.87.5-1.88,0-3.68-.06-5.35-.18-.25-.02-.49-.03-.74-.03-3.67,0-7.11,1.96-8.99,5.11-2.04,3.41-1.98,7.62.15,10.97,2.58,4.07,2.96,8.54,1.06,12.59-1.5,3.22-5.83,8.84-17.91,10.39,0,0-.09.01-.1.01-2.54.35-5.37.52-8.64.52-7.15,0-15.09-.81-23.98-1.79-.07,0-.13-.02-.2-.03-4.17-.62-8.31-1.04-12.68-1.48-15.48-1.57-31.45-3.18-42.35-14.31-1.96-2-4.69-3.14-7.48-3.14-1.19,0-2.36.2-3.49.6-3.82,1.35-6.55,4.83-6.94,8.87-2.26,23.41-22.31,41.67-48.75,44.4-.11.01-.22.02-.32.04-8.3,1.13-16.78,1.37-24.97,1.6h-.44c-1.95.07-3.88.12-5.81.19l-.34-5.21.24,5.21c-5.76.26-12.33.69-17.49,2.55-5.03,1.81-7.97,4.8-9,9.15l-.03.1c-2.36,9.11-.46,24.52,1.45,36.92,0,.01.01.08.01.09,2.17,13.44,5.39,26.75,9.57,39.54.04.13.08.27.12.41.88,3.67,2.78,8.22,4.8,13.05,2.44,5.85,5.22,12.48,6.37,18.38,1.58,8.11.05,14.01-4.68,18.02-.11.09-.22.18-.33.26-2.92,2.1-6.46,3.21-10.23,3.21-6.04,0-12.74-2.76-18.39-7.57-.04-.03-.07-.06-.11-.1-4.36-3.92-7.76-9.26-10.39-16.32-1.52-4.07-5.46-6.81-9.8-6.81-.6,0-1.2.05-1.79.15-4.96.85-8.61,5.13-8.69,10.16-.28,17.87-3.83,29.33-11.52,37.13l-.27.28c-4.64,4.88-10.98,7.91-16.53,7.91-5.95,0-10.82-3.26-13.36-8.94-.02-.05-.04-.1-.06-.14-3.49-7.98-1.04-18.44,1.11-27.68.45-1.92.87-3.74,1.24-5.49,0-.03.01-.07.02-.1,3.69-16.28,3.75-35.71.16-51.99-4.19-18.98-12.87-32.58-25.1-39.32-.32-.18-.65-.34-.99-.48-7.86-3.31-16.95-5.13-25.59-5.13-7.2,0-13.67,1.29-18.69,3.74-.81.4-1.58.9-2.26,1.49-3.03,2.62-4.8,6.82-5.39,12.85-.7,7.01.3,15.12,1.17,22.27.32,2.64.62,5.1.83,7.36.02.18.04.37.06.55,2.15,14.92,5.47,28.82,10.16,42.49.03.07.05.15.07.23,1.22,4.16,2.92,8.2,4.56,12.1,3.45,8.21,7.01,16.68,5.92,26.04-.03.25-.08.5-.14.74-1.93,7.27-7.19,11.44-14.42,11.44ZM1977.99,1251.47c-19.61,0-33.36,13.54-37.71,37.16-1.02,5.53,2.48,10.85,7.96,12.11,3.36.77,7.87,1.15,13.78,1.15,1.41,0,2.76-.02,4.04-.03h.7c20.81-.48,33.48-3.83,39.82-10.55.02-.02.42-.44.42-.44,7.31-7.51,7.08-15.02,5.59-20-2.51-8.43-10.13-15.03-19.88-17.21-.08-.02-.17-.04-.25-.06-5.07-1.4-9.93-2.12-14.45-2.12ZM2137.32,1224.31c-4.06,0-7.97.5-11.61,1.49-.04,0-.07.02-.11.03-8.06,2.04-19.03,8.77-25.59,29.28-.77,2.4-1.34,4.55-1.69,6.42-.51,2.72.1,5.59,1.68,7.87,1.57,2.28,4.04,3.87,6.77,4.36,3.35.6,7.77.91,13.14.91,1.48,0,3.04-.02,4.77-.07,21.02-.48,33.73-3.86,40.04-10.63.03-.03.42-.44.46-.48,4.2-4.05,6.43-9.79,6.13-15.75-.3-5.98-3.12-11.5-7.74-15.14-6.7-5.27-16.26-8.29-26.24-8.29ZM1690.44,1087.46c-4.9,0-8.92.72-11.62,2.09-.61.31-1.19.67-1.72,1.09-3.78,2.95-5.5,7.47-7.37,19.34-.02.1-.03.2-.04.3-2.68,20.88-2.48,42.48.62,64.17,1.99,15.45,7.22,25.84,15.54,30.94l.09.05c5.37,3.3,12.19,5.03,19.78,5.03,4.48,0,9.08-.63,13.28-1.83,14.16-4.07,22.98-17.76,26.21-40.68,0,0,.01-.07.01-.08,2.08-15.61,2.44-62.65-22.35-73.63-.2-.09-.35-.15-.51-.21-8.13-3.18-20.78-6.58-31.91-6.58ZM1718.37,1016.31c-10.6,0-16.91,3.98-20.33,7.32l-.08.08c-6.52,6.52-11.83,16.94-14.01,23.87-1.64,5.22,1.06,10.88,6.16,12.89,1.63.64,3.54,1.22,5.66,1.72l1,.21c9.87,2.1,21.07,4.48,31.62,4.48,8.94,0,15.76-1.72,20.82-5.26l.42-.3c8.7-6.33,9.69-13.99,8.98-19.3-1.2-8.96-8.16-17.09-17.74-20.72-.07-.03-.14-.05-.21-.08-7.49-3.21-15.2-4.91-22.28-4.91Z" style="fill: #1e1e1e;"/>
    <path d="M1945.95,1462.98c-6.94,0-15.48-5.65-18.81-10.73-.02-.04-.05-.07-.07-.11-9.04-13.53-14.13-45.96-13.97-88.96.03-8.29-6.39-15.17-14.66-15.72-.35-.02-.7-.03-1.04-.03-7.83,0-14.54,5.82-15.55,13.7-3.09,24.1-9.13,44.8-17.96,61.53-3.17,5-7.55,8.69-12.66,10.69-.02,0-.05.02-.07.03-6.21,2.46-15.76,3.66-29.19,3.66-6.22,0-12.2-.25-16.71-.48-.03,0-.05,0-.08,0-24.07-1.05-30.5-16.32-38.23-41.34-12.84-46.53-14.05-100.17-3.32-147.17,1.25-5.48-.53-11.22-4.66-15.03-2.94-2.71-6.75-4.15-10.64-4.15-1.58,0-3.17.24-4.72.73-4.13,1.3-8.85,1.96-14.02,1.96-2.45,0-5.04-.15-7.68-.45-.12-.01-.63-.06-.63-.06-10.6-1-21.61-2.88-32.26-4.71l-3.3-.56c-2.54-.52-5.1-.98-7.57-1.44l-.14-.02c-18.3-3.33-30.73-6.49-36.63-19.48-6.28-19.31-4.57-54.92,4.69-97.7,8.4-38.82,21.43-75.22,33.17-92.72,7.38-11.04,18.43-16.39,33.8-16.39,6.88,0,14.65,1.04,24.44,3.27.02,0,.05.01.07.02,14.73,3.28,25.78,8.33,32.84,15.01.1.09.2.19.3.28,6.84,6.14,11.4,14.78,12.82,24.34,1.41,9.45-.39,18.76-5.08,26.2-.06.09-.11.18-.17.27-1.96,3.26-4.14,6.3-6.25,9.23-3.31,4.6-6.42,8.94-8.15,13.39-4.31,10.13-.76,20.87,2.68,31.25,0,0,.69,2.1.71,2.14,3.26,9.58,5.33,19.06,6.16,28.16,1.12,12.85.31,26-2.36,37.95-1.21,5.4.52,11.04,4.55,14.84,2.95,2.78,6.82,4.27,10.76,4.27,1.44,0,2.89-.2,4.32-.61,2.2-.63,4.32-.96,6.12-.96,2.16,0,4.98.46,6.19,2.66,1.34,2.43.36,6.27-2.9,11.4-19.47,28.29-27.23,66.94-23.07,114.89,0,.11.02.23.03.34,2.33,21.46,6.25,37.39,11.96,48.69,9.55,18.9,23.07,22.87,32.73,22.87.54,0,1.06-.01,1.58-.03.43-.02.86-.05,1.29-.11,9.75-1.2,17.94-6.78,24.34-16.58,9.46-14.49,15.04-38.83,15.7-68.51.6-27.24-3.02-51.56-6.89-63.57-3.23-11.8-8.75-23.83-15.99-34.77-.59-1.04-1.28-2.13-1.96-3.18-3.45-5.38-4.96-8.67-3.6-11.74,1.5-2.38,4.35-2.88,6.47-2.88,6.27,0,14.2,3.89,17.94,7.5.14.13.28.27.43.39,13.69,13.38,17.91,42.84,20.98,64.34l.23,1.57c1.14,11.9,1.81,23.63,1.97,34.88.12,8.31,6.7,15.09,15.01,15.45.23,0,.46.01.69.01,8.01,0,14.78-6.06,15.6-14.1,5.38-52.69,16.44-69.45,20.95-74.21,9.24-8.29,21.49-9.99,37.03-9.99,1.78,0,3.55.02,5.3.03,0,0,1.81.02,1.86.02,15.16,0,28.32,3.23,38.05,9.31,11.46,7.17,18,18.01,19.42,32.24.68,10.45-3.15,19.1-6.86,27.47-5.29,11.94-10.28,23.22-2.31,38.68,5.19,9.99,9.24,19.27,12.43,28.4,2.23,6.4,8.25,10.53,14.81,10.53,1.01,0,2.04-.1,3.06-.3,7.67-1.52,13.05-8.46,12.62-16.27-1.21-21.62-.62-48.34,1.58-71.49,4.34-45.57,13.22-65.75,19.9-74.66,9.76-9.81,25.16-10.94,35.89-10.94,5.47,0,11.01.31,16.38.61,1.82.1,3.62.2,5.39.29,12.43.65,24.14,4.91,32.92,11.99.95.77,1.88,1.58,2.75,2.4,2.98,2.83,6.87,4.31,10.81,4.31,2.44,0,4.9-.57,7.17-1.74,5.93-3.05,9.29-9.52,8.36-16.13-3.61-25.78-1.03-53.97.83-68.48,4.3-33.59,15.84-80.52,34.2-102.25,4.5-4.93,10.69-8.84,16.55-10.47.11-.03.23-.06.34-.1,1.37-.41,2.89-.64,4.27-.64,1.78,0,4.17.34,5.45,1.96.74.93.95,2.25.6,3.72-1.19,4.46-4.75,8.78-8.86,13.79-2.83,3.44-6.01,7.31-8.86,11.76,0,0,0,.01-.01.02-5.58,8.41-10.17,18.12-13.67,28.9-4.79,14.73-7.64,31.5-8.24,48.49-.65,19.65,1.46,39.57,6.28,59.23v-.06c4.9,20.73,14.04,31.2,30.57,35.08,5.13,1.61,10.83,2.4,16.87,3.22,2.92.4,5.93.81,8.9,1.34.91.16,1.83.24,2.74.24,5.32,0,10.36-2.71,13.27-7.32,3.4-5.39,3.2-12.31-.51-17.5-4.98-6.97-7.82-15.98-10.33-23.93-.31-.97-.61-1.93-.91-2.87-9.66-35.28-11.13-77.49-3.95-112.91,2.96-13.41,5.94-25.12,12.43-32.56,7.79-8.93,20.13-10.84,31.18-11.53.07,0,.4-.03.4-.03,6.94-.53,14.81-1.13,21.81-1.13,1.75,0,3.4.04,4.92.11,8.91.4,15.1,2.13,15.83,4.42.2.64.07,1.69-1.71,3.09-7.14,4.12-16.44,5.2-25.44,6.24-6.75.78-13.73,1.58-19.81,3.67-5.22,1.79-9.12,6.18-10.26,11.58-1.15,5.4.62,11,4.66,14.75.58.54,1.16,1.04,1.74,1.49,2.77,2.18,6.19,3.35,9.69,3.35.31,0,.62,0,.94-.03,4-.24,8.35-.8,12.97-1.39,6.26-.8,12.71-1.63,18.4-1.63,2.66,0,4.94.18,6.96.54,11.33,2,12.13,8.61,12.17,9.92.23,6.56-7.09,10.75-13.42,12.34-.05.01-.11.03-.16.04-5.92,1.55-13.46,2.24-20.73,2.75-.14,0-.28.02-.43.04-5.03.49-9.53.56-13.88.62-9.11.14-16.97.25-24.7,4.53-.75.42-1.47.9-2.15,1.43-.81.64-1.55,1.28-2.2,1.9-3.39,3.21-5.17,7.75-4.87,12.41.09,1.42.29,3.03.53,4.98v.07c.2,1.5.39,3.05.55,4.77.03.36.08.71.14,1.07,5.96,36.04,14.89,57.25,27.29,64.85.2.12.4.24.61.35,5.02,2.78,11.64,4.07,20.83,4.07,4.71,0,9.45-.31,14.46-.63,4.77-.31,9.63-.62,14.17-.62,6.64,0,16.2.61,22.47,5.85l.13.14c1.58,1.78,2.12,3.77,1.57,5.86-.68,2.55-3.59,5.93-7.83,7.45-.2.07-.4.15-.6.23-7.67,3.11-21.62,3.91-35.1,4.68-4.42.25-8.6.49-12.58.81-2.02.09-4.03.22-6.15.35h-.18c-3.81.26-7.74.51-11.6.51-1.76,0-3.44-.06-4.99-.16-.37-.03-.74-.04-1.1-.04-5.5,0-10.63,2.88-13.47,7.65-3.03,5.08-2.95,11.44.22,16.44,1.64,2.59,1.89,5.14.74,7.59-1.05,2.25-4.25,6.2-13.85,7.43-.05,0-.1.01-.15.02-2.31.32-4.9.47-7.93.47-6.87,0-14.67-.8-23.41-1.76-4.31-.64-8.51-1.07-12.97-1.52-15.19-1.54-29.53-2.98-39.11-12.77-3-3.06-7.06-4.71-11.21-4.71-1.75,0-3.51.29-5.22.9-5.75,2.03-9.81,7.21-10.39,13.29-2.02,20.91-20.15,37.24-44.09,39.71-.17.02-.33.04-.49.06-8.01,1.09-16.35,1.32-24.41,1.55h-.26c-2.02.07-4.03.12-6.03.19-.05,0-.1,0-.15,0-6.14.28-13.18.75-19.02,2.85-6.72,2.42-10.86,6.74-12.31,12.85-2.58,9.97-.77,25.33,1.35,39.03,0,.03.01.07.02.1,2.21,13.73,5.5,27.3,9.76,40.35.97,4.07,2.96,8.82,5.06,13.85,2.35,5.63,5.01,11.99,6.06,17.37,1.58,8.12-.92,11.33-2.94,13.05-2.03,1.46-4.51,2.23-7.19,2.23-4.75,0-10.36-2.36-15.01-6.32-3.72-3.35-6.66-8.01-8.99-14.26-2.32-6.22-8.24-10.21-14.69-10.21-.88,0-1.78.08-2.68.23-7.43,1.28-12.91,7.67-13.02,15.22-.26,16.43-3.35,26.78-10.02,33.55,0,0-.27.28-.32.33-3.64,3.83-8.65,6.3-12.76,6.3-4.95,0-7.41-3.18-8.6-5.85,0-.01-.01-.03-.02-.04-2.82-6.45-.58-16.01,1.39-24.46.46-1.96.89-3.82,1.26-5.63,3.85-16.99,3.91-37.28.17-54.27-4.52-20.49-14.09-35.28-27.68-42.77-.48-.27-.98-.51-1.49-.72-8.49-3.57-18.3-5.54-27.61-5.54-7.99,0-15.24,1.47-20.97,4.26-1.22.59-2.36,1.35-3.39,2.23-4.09,3.53-6.44,8.86-7.18,16.29-.75,7.58.28,16,1.19,23.42.32,2.58.61,5,.81,7.19.03.28.06.55.1.83,2.19,15.25,5.59,29.46,10.38,43.43,1.3,4.44,3.06,8.62,4.76,12.67,3.33,7.93,6.47,15.41,5.55,23.41-1.33,5.02-4.49,7.57-9.37,7.57ZM1977.99,1246.25c-22.04,0-38.06,15.49-42.84,41.43-1.52,8.26,3.73,16.26,11.92,18.14,3.75.86,8.64,1.28,14.94,1.28,1.43,0,2.81-.02,4.1-.03,0,0,.65,0,.7,0,22.64-.51,36.07-4.27,43.54-12.18l.37-.38c9.55-9.81,8.39-19.95,6.85-25.13-3.05-10.24-12.15-18.22-23.74-20.81-5.52-1.53-10.85-2.31-15.85-2.31ZM2124.3,1220.77c-9.33,2.36-21.97,9.96-29.25,32.74-.83,2.58-1.46,4.97-1.85,7.06-.76,4.11.14,8.35,2.52,11.79,2.37,3.44,6.02,5.79,10.14,6.53,3.65.66,8.38.99,14.06.99,1.53,0,3.13-.02,4.9-.07,22.8-.52,36.3-4.31,43.72-12.29,0,0,.27-.28.27-.28,5.28-5.1,8.09-12.3,7.72-19.76-.37-7.48-3.92-14.4-9.73-18.98-7.6-5.99-18.34-9.41-29.47-9.41-4.52,0-8.89.56-12.98,1.68h-.04ZM1683.24,1209.92c6.14,3.77,13.9,5.77,22.45,5.77,4.96,0,10.05-.7,14.71-2.03,16.34-4.69,26.41-19.82,29.95-44.98,0-.04.01-.08.02-.11,2.37-17.82,2.44-66.75-25.4-79.09l-.04-.02c-.22-.1-.44-.19-.67-.28-8.58-3.36-21.96-6.94-33.81-6.94-5.8,0-10.5.89-13.98,2.65-.91.46-1.78,1.01-2.58,1.64-5.57,4.35-7.44,10.77-9.31,22.63-.02.15-.04.3-.06.44-2.75,21.35-2.54,43.42.62,65.58,2.2,17.03,8.24,28.69,17.98,34.65.05.03.09.06.14.08ZM1718.37,1011.1c-12.36,0-19.86,4.79-23.97,8.8-.04.04-.09.09-.13.13-7.18,7.17-12.85,18.22-15.29,25.99-2.47,7.86,1.56,16.29,9.23,19.31,1.86.73,4.01,1.39,6.37,1.95.12.03.23.05.35.08l.77.16c10.13,2.15,21.61,4.59,32.7,4.59,10.05,0,17.84-2.03,23.81-6.21.04-.03.43-.31.47-.34,11.37-8.28,11.84-18.73,11.11-24.22-1.45-10.84-9.72-20.62-21.07-24.91-8.14-3.49-16.55-5.33-24.33-5.33Z" style="fill: #892cdc;"/>
  </g>
  <g>
    <path d="M2053.07,908.29c1.89-1.36,10.46-8.37,11.74-7.6,2.01,1.2,11.16,15.24,12.74,18.11,49.08,89.66-.8,202.12-101.54,223.61-57.48,12.26-119.64-11.28-154.56-58.56-.4-2.18,9.49-7.18,11.2-8.38,60.94,80.62,187.23,73.99,234.41-18.53,19.6-38.44,19.53-80.74,3.51-120.61-.97-2.41-2.19-5.86-4.36-7.39-.67-1.69-1.54-3.52-2.38-5.14-.55-1.06-.78-2.18-2.09-2.6-.23-.72-.69-1.49-1.02-2.2-.51-1.11-.8-2.14-2.09-2.6-1.46-3.81-4.57-5.16-5.55-8.13Z" style="fill: #eb7f28;"/>
    <path d="M2053.07,908.29c.98,2.98,4.09,4.32,5.55,8.13.26.69-.83,4.49,2.09,2.6.33.71.79,1.48,1.02,2.2.3.95-.8,4.42,2.09,2.6.84,1.62,1.71,3.45,2.38,5.14,10.46,26.54,15.06,69.4,2.23,96.21-.67,1.4-.87,2.49-2.66,2.98,1.62-18.78-17.37-21.19-30.83-22.28-.26-.02-1.28-1.15-2.15-.79l-.73.34c-2.88-2.86-9.12-1.59-12.92-2.17-14.74-2.26-29.34-5.83-44.21-7.41-3.92-.42-10.14-1.71-13.49.39-2.11,1.33-3.68,5-3.14,7.43,1.3,5.92,20.99,25.84,26.16,31.83.65.75,1.36,1.4,1.75,1.86.17.2.17.54.34.73.63.74,1.46,1.5,1.75,1.86.17.2.18.53.34.73,1.03,1.3,1.56,3.23,3.51,3.73.15.22.19.52.34.73.76,1.06,1.36,1.06,1.41,1.13.3.4.38,1.08.68,1.47.76,1,1.36,1.06,1.41,1.13,1.95,2.49,4,4.73,5.94,7.06,6.37,7.61,11.86,17.81,22.01,20.58.94.26,5.43,1.29,5.94,1.25,1.42,1.92-.43,1.83-1.55,2.75-4.35,3.59-8.85,7.28-13.64,10.28-1.11.69-2.68,2.24-4.06,1.24.12-.72-.09-9.35-.36-10.18-1.63-4.88-3.41-6.29-6.28-9.94-.68-1.61-1.32-3.99-3.51-3.73-1.18-1.57-2.27-3.95-3.46-5.53-9.26-12.42-19.01-24.53-28.59-36.7-.69-.88-1.47-1.51-1.75-1.86-.3-.38-.38-1.08-.68-1.47-4.45-5.62-14.25-23.91-22.33-12.15-1.85,2.69-2.56,25.79-2.86,30.95-.75,12.97-1.03,26.07-1.53,39.06,0,.26-.37,2.24-.44,4.4-.27,8.36-2.24,20.33,4.21,26.85-.06,1.68-2.22,1.72-3.42,1.87-4.36.55-10.91-.6-15.28-1.57-1.35-.3-2.67.04-3.34-1.68,1.54-.95,3.23-2.76,4.35-4.2,4.92-6.33,4.74-19.82,5.67-28.09,2.39-21.41,4.65-42.85,6.52-64.34.55-5.31-5.71-9.79-10.29-6.88l-54.16,47.85c-1.1.79-1.53,2.13-2.3,3.11-10.47,6.63-16.47,15.87-10.25,27.93-1.73.92-2.38-.21-3.6-.99-3.81-2.43-7.86-6.36-11.11-9.57-1.24-1.22-4.06-5.38-4.38-5.52s-1.55.76-2.18.97c-1.5-2.13.57-1.77,1.83-2.65,72.37-50.72,140.23-108,211.93-159.68ZM2020.95,941c-.49.23-.99.43-1.47.68l-2.6,2.09c-13.92,8-38.48,23.79-50.1,34.34-5.74,5.21-2.86,11.81,3.9,13.51,6.06,1.53,17.04,1.01,23.72,1.8.72.08,1.76.32,2.88.45,7.43.88,29.89,5.16,35.72,3.96,12.01,2.51,32.99,4.91,37.53-10.31,2.28-7.65-5.82-36.35-9.25-44.23-8.07-18.57-28.56-15.5-40.35-2.31Z" style="fill: #fbe1a7;"/>
    <path d="M1832.65,1075.48c.37-.26,2.52-1.95,2.6-2.09l1.13-1.41c1-.37,1.93-1.03,2.94-1.36.63-.2,1.85-1.11,2.18-.97s3.14,4.3,4.38,5.52c3.26,3.21,7.3,7.14,11.11,9.57,1.22.78,1.87,1.91,3.6.99,5.5,10.65,33.61,23.87,45.36,26.71,5.77,1.39,9.85,1.14,15.09-2.1.68,1.73,1.99,1.38,3.34,1.68,4.37.97,10.91,2.12,15.28,1.57,1.21-.15,3.37-.19,3.42-1.87,9.02,9.11,26.6,3.56,37.34.39,10.11-2.98,28.16-7.86,30.23-20.1,1.38,1,2.95-.55,4.06-1.24,4.79-2.99,9.29-6.69,13.64-10.28,1.12-.93,2.97-.83,1.55-2.75,1.43-.11,5.8-1.72,7.19-2.51,8.39-4.72,27.86-37.52,28.69-47.1,1.79-.5,1.99-1.58,2.66-2.98,12.83-26.8,8.23-69.66-2.23-96.21,2.17,1.53,3.39,4.98,4.36,7.39,16.02,39.87,16.1,82.17-3.51,120.61-47.18,92.52-173.47,99.15-234.41,18.53Z" style="fill: #f9c96d;"/>
    <path d="M1919.72,984.32c-18.77-7.18-38.36-4.3-57.73-4.6-13.87-.22-34.28-4.74-31.04-23.4,4.07-23.49,33.11-15.57,47.47-8.08,15.81,8.25,31.03,21.66,41.31,36.08ZM1839.08,951.32c-1.94,1.57-1.01,4.88,1.67,4.94,6.25.13,1.84-7.76-1.67-4.94ZM1855.62,972.99c.7.02,2.9,1.1,4.33.65l.18-.5c-1.25-.79-2.88-.81-4.12-1.22-2.87-.97-5.03-1.8-7.37-4-3.16-2.96-5.4-9.93-9.45-9.27-4.95.81.35,8.66,2.82,10.75,4.33,3.67,8.75,3.43,13.61,3.6Z" style="fill: #f5ae27;"/>
    <path d="M1944.68,961.16c-2.34-1.01-3.93-27.43-3.82-31.56.35-12.68,5.04-34.64,14.78-43.34,12.2-10.89,29.68-4.59,30.01,12.23.25,12.85-19.62,29.01-27.43,39.31-5.75,7.58-7.71,13.3-11.85,21.25-.47.91-.27,1.85-1.7,2.11ZM1954.59,895.93c-.7,1.04-.51,1.44-.79,2.15-.42,1.06-.46,2.84-.84,3.96-.06.17-1.28.8-1.72,2.09-.42,1.23-.85,3.81-.31,5.09.74.28,2.8-4.16,3.28-5.05s-.22-1.65-.18-1.73c1.74-3.11,7.29-7.38,10.72-8.46,2.1-.66,10.59-.76,7.5-5.63-4.33-6.83-14.93,3.54-17.66,7.59Z" style="fill: #f5ae27;"/>
    <path d="M1935.25,973.56c-1.5,1.2-1.36.24-2.11-.15-14.15-7.25-35.11-32.65-40.49-47.48-9.34-25.74,23.62-39.32,33.87-15.65,7.49,17.3.03,45.03,8.73,63.28ZM1910.14,908.26c.93-2.56-1.94-5.16-4.7-3.92-5.67,2.55,2.96,8.69,4.7,3.92ZM1901.66,908.97c-10.73,4.31-4.1,19.53,1.45,25.96l-1.51-10.6c-.3-5.46,5.68-11.1.06-15.36Z" style="fill: #f5ae27;"/>
    <path d="M1885.58,939.49c-5.83-2.58-11.34-6.16-17.29-8.51-11.72-4.64-35.66-7.35-42.83-17.8-7.41-10.8-.34-24.46,12.74-24.77,14.8-.34,31.2,20.27,38.33,31.75,1.72,2.77,10.11,17.36,9.05,19.33ZM1831.36,899.56c-8.02,3.99-.91,13.49,4.62,16.48.82.09,6.05,2.59,6.45,1.51.23-.62-6.92-3.64-8.69-9.55-.84-2.81.5-6.34-2.38-8.43Z" style="fill: #eb7f28;"/>
    <path d="M1901.54,998.98c-5.81,1.47-12.98,4.6-18.31,7.6-10.32,5.81-28.27,25.78-40.49,17.27-7.64-5.33-8.21-15.97-1.53-22.32,12.23-11.62,41.58-10.05,56.6-4.85,1.36.47,3.23.71,3.72,2.3ZM1855.94,998.7c-4.61,1.98-8.7,2.16-12.31,6.14-2.14,2.37-4.63,9.59.09,9.81,3.32.16,3.37-6.22,5.02-8.54,1.51-2.13,4.12-3.48,6.1-5.1,1.07-.88,2.49-.25,1.1-2.31Z" style="fill: #eb7f28;"/>
    <path d="M1974.05,947.56c-1.98-.86,1.8-10.96,2.58-12.76,5.19-11.86,21.32-34.87,36.48-29.77,6.23,2.09,10.17,10.65,7.76,16.74-3.66,9.23-19.02,11.61-27.32,14.98-6.92,2.8-13.62,6.24-19.5,10.81ZM1994.52,916.66c3.01-1.21,5.78-3.11,9.01-3.78,2.52-.52,10.59,2.32,10.07-1.12-.9-6.03-11.6-2.09-14.51.19l-4.57,4.71Z" style="fill: #eb7f28;"/>
    <path d="M1974.57,869.73l.58-32.39c2.39-13.44,19.64-17.73,23.2-2.46,2.47,10.57-16.47,28.34-23.78,34.85ZM1978.76,838.36c-.37.68-2.58.03-.1,3.61,1.12-.59.81-2.55,1.18-3.22,2.57-4.62,8.03-5.53,9.12-7.32,1.41-2.34-1.08-3.31-3.4-2.52-6.52,2.22-4.61,5.39-6.8,9.45Z" style="fill: #eb7f28;"/>
    <path d="M1815.85,946.81c-10.36.68-24.59,6.56-34.66,3.94-16.57-4.32-12.82-25.43,6.01-21.35,5.34,1.16,22.68,11.23,26.81,14.96.82.74,1.54,1.31,1.84,2.46ZM1787.59,947.41c-1.77-1.48-4.84-1.43-6.44-3.2-1.99-2.22-2.26-7.41-5.97-5.31-1.44,6.84,6.97,9.99,12.4,8.51Z" style="fill: #eb7f28;"/>
    <path d="M1945.07,875.37c-.14.18-.55.15-.73.34-.6.62-.86,1.29-.79,2.15-.39.61-.93,1.08-1.13,1.41-3.07,5.17-6.08,10.89-7.38,16.8-.08.35.07,1.12-.05,1.81-1.33.42-1.17,2.74-2.37.67-6.86-11.84-6.9-20.26-6.1-32.42.14.5.61,1.02.68,1.47.08.48.76,1.27.68,1.47-.1.25-1.42.45-1.46.68-.35,1.86,2.28,2.83,3.21,1.18.13-.23-.7-1.12-.67-1.46.17-1.94.72-2.7,1.58-4.3.07-.14.78-.92,1.13-1.41.39-.55.7-.91,1.13-1.41,1.95-.84,5.39-2.32,5.93-4.53,1.65-6.8-8.3-2.37-9.83,1.88.07-.67-1.14-1.22-.15-3.4,4.65-10.17,22.95-3.94,18.9,11.19-.78,2.91-3.3,4.91-2.56,7.9Z" style="fill: #f5ae27;"/>
    <path d="M1926.52,866.13c.03-.42-2.27-5.69,1.13-1.41-.1.36-.34.69-.39,1.07l-.73.34Z" style="fill: #f5ae27;"/>
    <path d="M1835.01,984.32l.34.73c-6.37,1.07-15.9,6.24-21.29,9.86-1.49-.79-4.77.74-5.14,2.38-5.97,1.6-11.05,3.19-14.94-3.32-6.14-10.29,3.92-16.26,13.43-16.65,9.85-.41,19.14,2.88,27.6,6.99ZM1799.01,989.39c.7-1.92-4.49-5.03-3.99-1.16.46,3.57,3.63,2.15,3.99,1.16ZM1806.82,994.7c.73-.24,3.04-1.11,2.77-1.73-.88-.68-2.62.38-3.45.26-2.83-.39-5.54-2.64-8.28-1.55-3.14,1.25,2.3,3.77,4.07,3.88,1.22.07,3.67-.46,4.89-.86Z" style="fill: #f5ae27;"/>
    <path d="M1846.72,1040.42c-10.74,3.14-17.11,21.12-28.56,20.54-5.33-.27-8.89-5.43-8.25-10.58,1.36-10.95,18.82-12.91,27.67-12.45,1.05.05,9.99.63,9.14,2.49ZM1822.77,1042.62c-4.35.22-11.43,4.43-8.24,9.15l8.24-9.15ZM1816.96,1055.1c.76-2.08-4.43-3.46-3.77-.46.38,1.7,3.49,1.25,3.77.46Z" style="fill: #eb7f28;"/>
    <path d="M1895.74,890.19c-.76,1.47-16.55-12.1-17.94-13.38-6.95-6.44-15.8-14.65-15.67-24.85.16-13.01,16.96-16.75,23.52-6.5,8.39,13.12,6.6,30.11,10.09,44.74ZM1875.69,846.87c-1.38,1.52-2.8,2.68-4.46,3.85-2.82-5.85-6.4.34-4.39,6,.8,2.26,2.8,7.42,5.42,7.79-1.67-3.87-3.18-9.21-.69-13.05.77,2.29-.58,3.65-.4,5.05.38,2.99,3.44,8.05,3.24,9.7-.4,3.23-2.23.17-2.57.28-1.26.4-1.25.49-.58,1.56,1.33,2.13,18.63,17.74,19.96,17.91,3.28.43,1.22-2.78,1.03-4.67-.94-9.34-1.05-18.97-4.57-27.89-2.02-5.11-4.63-11.75-11.1-11.39-1.14,1.4.58,3.24.39,4.13-.11.54-1.07.51-1.27.74,1.47-2.83-5.37-4.44-4.85-.87.41,2.8,4.33,1.86,4.85.87Z" style="fill: #f9c96d;"/>
    <path d="M1934.99,897.88c-.28,1.64.64,4.53-1.97,5.37l-5.95-12.85c-3.35-7.23-4.56-25.85-.64-33.15,6.74-12.55,22.15-8.43,23.37,5.4.17,1.94-3.52,11.18-4.73,12.72-.74-2.99,1.78-4.99,2.56-7.9,4.06-15.13-14.25-21.37-18.9-11.19-1,2.18.22,2.73.15,3.4-.21,2.11-.74,3.21-1.24,5.03-3.39-4.27-1.1,1-1.13,1.41-.8,12.16-.76,20.58,6.1,32.42,1.2,2.07,1.04-.25,2.37-.67Z" style="fill: #f9c96d;"/>
    <path d="M1927.2,867.6c-.07-.45-.54-.97-.68-1.47l.73-.34c-.06.42.44,1.21-.05,1.81Z" style="fill: #f9c96d;"/>
    <path d="M1814.06,994.91c-.37.25-.66,1.32-2.18,2.02s-2.47.23-2.96.36c.37-1.64,3.65-3.17,5.14-2.38Z" style="fill: #fbe1a7;"/>
    <path d="M1942.42,879.27c.32,3.14-1.93,5.1-2.74,6.92-.41.92-.07,2.19-.55,3.14-1.13,2.27-3.4,4.13-4.1,6.74,1.3-5.91,4.31-11.62,7.38-16.8Z" style="fill: #f9c96d;"/>
    <path d="M1836.37,1071.97l-1.13,1.41c.08-.14-.56-1.01-.67-1.47.64-.66,1.72.08,1.8.05Z" style="fill: #fbe1a7;"/>
    <path d="M1835.01,984.32c.29.14,1.08-1.04,1.65-.31,1.59,2.04-1.05,1-1.31,1.04l-.34-.73Z" style="fill: #fbe1a7;"/>
    <path d="M1943.55,877.86c-.07-.86.18-1.53.79-2.15.1.91-.34,1.45-.79,2.15Z" style="fill: #f9c96d;"/>
    <path d="M2060.71,919.01c-2.92,1.9-1.83-1.91-2.09-2.6,1.3.45,1.58,1.49,2.09,2.6Z" style="fill: #f9c96d;"/>
    <path d="M2063.83,923.81c-2.9,1.82-1.79-1.65-2.09-2.6,1.31.41,1.55,1.54,2.09,2.6Z" style="fill: #f9c96d;"/>
    <path d="M1870.83,1057.8c.77-.98,1.19-2.32,2.3-3.11l54.16-47.85c4.58-2.91,10.83,1.57,10.29,6.88-1.87,21.49-4.13,42.93-6.52,64.34-5.13,4.19-4,10.64-9.24,14.59-2.72,2.05-6.65,4.6-9.72,2.22.31-.92,1.02-6.33-.16-7.07-2.59,2.6-5.22,6.1-5.71,9.79-1.57-.32-6.6,1.06-7.74-1.28-.53-1.08.19-2.69-.09-3.79-.64-2.45-7.17-7.81-10.27-7.06.59-1.05,2.61-7.69-.73-4.84-1.92,1.64-5.63,6.01-3.73,8.69-1.86.92-2.85,1.85-4.88.83-8.03-4.06-15.59-19.99-10.97-28.28.54-.96,2.2-2.99,3.03-4.07ZM1928.13,1054.44c.94,1,2.9-.05,3.14-1.11.5-2.27.14-7.78.5-10.66.82-6.6,4.77-24.92,2.8-30.12s-6.2-3.04-9.46-.35c-11.01,9.1-22.35,20.22-32.98,29.97-2.46,2.25-4.54,2.26.21,6,2.4,1.89,5.93,1.15,8.37,2.92-1.05,1.34-3.07,6.12-1.86,7.53,6.18,1.35,6.02-8.69,9.6-12.01,5.07,5.43,10.51,5.9,17.53,7.04-1.23,3.14-7.6,12.28-3.35,14.95,1.94,1.22,3.32-2.39,3.78-3.52,1.52-3.7.55-7.12,1.72-10.64ZM1887.87,1057.04l.34.73c.36-.47.25-.71-.34-.73ZM1887.11,1058.29c-2.87,1.65-13.56,10.62-8.39,13.74,2.49.75,4.34-2.39,5.47-4.15.68-1.06,4.3-9.14,2.92-9.59ZM1901.95,1082.62c6.77-2.06,5.95-10.17,7.87-15.69-4.28,3.27-11.12,10.06-7.87,15.69Z" style="fill: #ef8824;"/>
    <path d="M1984.46,1035.49c-5.16-6-24.86-25.92-26.16-31.83-.53-2.43,1.03-6.1,3.14-7.43,3.35-2.11,9.57-.81,13.49-.39,14.87,1.58,29.48,5.14,44.21,7.41,3.79.58,10.04-.69,12.92,2.17,2.74,2.72,5.05,5.23,7.71,8.07,2.45,2.63,6.55,3.73,4.81,9.32-.76-.24-6.34-1.2-4.93.95s6.68,6.04,9.45,4.98c-.04.16.77,1.87.68,2.97-.62,7.85-1.57,4.22-6.39,6.77-1.7.9-5.52,3.15-7,4.19-1.26.88-1.59,1.93-1.57,3.39-.82-.37-2.91-.63-3.95-.85.45,1.47,3.83,6.2,4.86,6.67.67,4.8-7.11,13.45-11.57,14.09-2.2.32-4.28-2.25-6.33-2.66-1.77-.36-3.73.62-5.44-.12-3.27-1.41-6.47-7.87-9.82-9.79l-.62,2.53c-1.95-2.32-3.99-4.57-5.94-7.06l-1.41-1.13c-.3-.39-.38-1.06-.68-1.47l-1.41-1.13c-.15-.21-.19-.52-.34-.73-.96-1.39-1.03-4.06-3.51-3.73-.16-.21-.17-.53-.34-.73l-1.75-1.86c-.17-.2-.17-.54-.34-.73l-1.75-1.86ZM1997.73,1027.56c2.48,2.06,6.31,7.46,9.74,7.51,3.98.06,3.44-2.02,1.01-4.42-1.04-1.03-7.95-4.01-9.62-4.5-.48-3.39,4.91-5.31,6.44-8.61.93-2.01.36-6.8.55-7.11.28-.46,2.41-.52,2.04-1.4-.64-1.51-3.34-1.25-3.74-2.27-.09-.24.68-1.42-.45-2.68-1.63-1.82-29.66-6.16-33.75-6.27-11.5-.33-9.12,5.7-4,12.56,6.37,8.53,15.23,16.43,21.99,24.78,3.32,2.13,8.3-4.91,9.79-7.58ZM2017.02,1023.99c1.17,3.13,12.59,13.2,15.18,8.61,2.5-4.43-12.31-8.24-15.18-8.61ZM2008.78,1045.63c3.3,4.63,7.03,10.83,13.42,10.73,1.47-6.79-8.36-9.37-13.42-10.73Z" style="fill: #ef8824;"/>
    <path d="M2020.95,941c8.19-3.88,20.78-7.4,24.14,3.98-1.17.22-5.79,2.49-6.99,3.24-3.74,2.34,4.23,1.76,5.57,1.49,1.64-.33,3.13-.93,4.59-1.73,4.14,6.55,6.31,11.79,5.57,19.72l-7,4.12,10.17-1.13c1.48,6.72,1.11,11.53-1.98,17.86-4.89,10.04-9.04,5.7-16.68,7.23-2.09.42-3.85,1.77-5.33,2.08-5.84,1.2-28.3-3.09-35.72-3.96l-2.88-.45c-6.68-.79-17.66-.27-23.72-1.8-6.76-1.71-9.64-8.3-3.9-13.51,11.62-10.55,36.19-26.34,50.1-34.34,1.23-.71,2.45-2.02,2.6-2.09.48-.25.98-.45,1.47-.68ZM2017.95,980.73c2.51-.33,4.73-1.08,6.94-2.33.28-.75-2.31-2.85-3.16-2.99.7-8.77-1.55-12.27-8.16-17.62,6.99-4.13-.99-7.03-5.71-2.71-.64-2.39-1.73-1.02-3.09-.24-9.64,5.54-27.48,17.5-35.69,24.71-5.39,4.73-2.86,7.44,3.17,8.63,14.69,2.9,31.41,2.13,46.26,5.33,4.91-2.75,1.47-8.86-.55-12.79ZM2040.24,961.48c.94-6.43-16.01,2.09-17.84,3.83l12.05-.45c1.28.07,5.71-2.8,5.79-3.38ZM2029.38,986.15c2.74,1.95,19.33,2.44,18.68-2.01-.81-5.61-15.96.37-18.68,2.01Z" style="fill: #ef8824;"/>
    <path d="M1966.01,1022.63c.3.38.38,1.08.68,1.47l1.75,1.86c9.58,12.17,19.33,24.28,28.59,36.7-3.9,2.55,1.49,6.08,3.12,8.91,2.04,3.53,2.84,6.11,1.21,10.06-2.14,5.19-5.92-2.74-8.94,1.89-.59-.75-1.68-2.85-2.82-2.26.77,2.99.5,7.07,1.87,9.83-3.41,2.07-5.92,5.45-9.6,7.19-3.15,1.49-6.31,1.24-9.89,2.72-.23-2.37-1.05-4.49-2.15-6.59-.57-1.09-.44-2.36-1.95-1.32-.15,3.11-.69,6.47,1.17,9.28-.09.03-.28,1-1.33,1.33-6.81,2.15-16.45,2.28-22.43-2.18-7.8-5.82-1.8-13.19-6-21.04.5-12.99.78-26.08,1.53-39.06,2.27-1.28,2.6-1.45,2.9,1.37.51,4.76-2.24,31.62-1.19,32.98.94,1.22,5.8.4,7.14-.3,6.01-3.16,1.05-7.55,6.73-10.04,1.44,5.66,5.98,6.43,5.43.16,2.97-1.06,7.05.97,9.54-1.02,2.43-1.93,2.97-9.46,6.04-11.55.88,2.07,2.17,6.22,4.69,6.32,4.34.18,1.43-4.66,1.81-5.77.06-.18,2.05-.4,1.04-1.76-5.36-9.35-16.18-18.56-20.98-27.8-1.05-2.03.94-1.58,2.04-1.39ZM1951.73,1076.51c-1.25,4.44-2.49,14.04,1.3,17.22,3.76,3.14,4.47-4.75,3.63-6.57l-4.93-10.65ZM1972.25,1068.79c.97,2.76,1.18,18.24,6.79,15.63,4.25-1.97-2.98-11.75-4.68-13.95-.56-.73-1.1-2.37-2.11-1.68Z" style="fill: #ef8824;"/>
    <path d="M1940.83,1041.43c.3-5.16,1.01-28.26,2.86-30.95,8.08-11.75,17.88,6.53,22.33,12.15-1.11-.19-3.1-.64-2.04,1.39,4.81,9.24,15.62,18.45,20.98,27.8,1.01,1.36-.98,1.58-1.04,1.76-2.99-2.4-4.66-6.31-8.46-7.67.5,2.37,1,4.86,1.96,7.11-3.07,2.09-3.61,9.62-6.04,11.55-2.5,1.98-6.57-.04-9.54,1.02-.34-3.84-2.54-7.15-4.03-10.61-1.89.42-1.08.77-1.21,1.7-.14,1.04-.34,8.15-.19,8.75-5.68,2.49-.72,6.88-6.73,10.04-1.34.7-6.2,1.52-7.14.3-1.04-1.35,1.71-28.21,1.19-32.98-.3-2.82-.63-2.65-2.9-1.37ZM1953.51,1016.83c-1.67-.66-1.13.85-1.06,1.74.39,4.74,2.03,9.67,5.33,13.23,5.42-2.05-2.49-14.26-4.27-14.96ZM1948.96,1035.88c-2.14.5-1.03,1.08-1.15,2.29-.24,2.48-.95,15.17,3.2,14.58,5.34-.75-.55-14.38-2.05-16.87Z" style="fill: #f5ae27;"/>
    <path d="M2034.94,1005.86c13.46,1.09,32.45,3.5,30.83,22.28-.83,9.58-20.3,42.38-28.69,47.1-1.39.79-5.76,2.4-7.19,2.51-.51.04-5.01-.99-5.94-1.25-10.14-2.77-15.64-12.98-22.01-20.58l.62-2.53c3.35,1.91,6.55,8.38,9.82,9.79,1.72.74,3.67-.24,5.44.12,2.05.41,4.13,2.98,6.33,2.66,4.46-.64,12.24-9.29,11.57-14.09.2.09,4.27.02,4.35-.23-.84-2.77-2.72-4.44-5.26-5.59-.02-1.46.31-2.5,1.57-3.39,1.48-1.04,5.3-3.29,7-4.19,4.82-2.55,5.77,1.07,6.39-6.77.09-1.09-.72-2.81-.68-2.97.06-.25,2.56-.13.22-3.01-.79-.97-3.57-2.55-4.75-2.92,1.74-5.59-2.36-6.69-4.81-9.32-2.66-2.85-4.97-5.35-7.71-8.07l.73-.34,2.15.79Z" style="fill: #eb7f28;"/>
    <path d="M1870.83,1057.8c-.84,1.08-2.5,3.11-3.03,4.07-4.61,8.29,2.94,24.22,10.97,28.28,2.03,1.02,3.01.09,4.88-.83,1.94-.96,3.37-1.89,4.46-3.85,3.1-.75,9.63,4.61,10.27,7.06.28,1.09-.44,2.7.09,3.79,1.14,2.34,6.18.96,7.74,1.28.28.06.92,2.24,2.83,1.39.88-.39,2.72-3.15,3.05-4.11,3.08,2.37,7-.17,9.72-2.22,5.25-3.95,4.11-10.4,9.24-14.59-.92,8.26-.75,21.76-5.67,28.09-1.12,1.44-2.81,3.25-4.35,4.2-5.24,3.24-9.32,3.49-15.09,2.1-11.75-2.84-39.86-16.06-45.36-26.71-6.22-12.06-.22-21.3,10.25-27.93Z" style="fill: #eb7f28;"/>
    <path d="M1939.3,1080.48c4.2,7.84-1.8,15.21,6,21.04,5.98,4.47,15.62,4.34,22.43,2.18,1.05-.33,1.24-1.3,1.33-1.33,1.3-.52,2.13-1.03,2.94-1.36,3.57-1.48,6.74-1.23,9.89-2.72,3.68-1.75,6.19-5.12,9.6-7.19,2.46,4.97,5.78,1.26,3.94-3.18-.53-1.27-2.07-3.22-2.99-4.4,3.02-4.62,6.8,3.31,8.94-1.89,1.63-3.95.83-6.53-1.21-10.06-1.63-2.83-7.02-6.37-3.12-8.91,1.18,1.59,2.27,3.96,3.46,5.53,1.28,1.7,2.75,2.77,3.51,3.73,2.87,3.65,4.64,5.06,6.28,9.94.28.83.48,9.46.36,10.18-2.07,12.24-20.12,17.12-30.23,20.1-10.74,3.17-28.32,8.72-37.34-.39-6.45-6.52-4.48-18.49-4.21-26.85.07-2.16.43-4.14.44-4.4Z" style="fill: #eb7f28;"/>
    <path d="M2033.01,997.84c1.48-.3,3.24-1.66,5.33-2.08,7.63-1.52,11.79,2.81,16.68-7.23,3.08-6.33,3.45-11.14,1.98-17.86-.5-2.29.53-2.38-3.17-2.99.75-7.93-1.43-13.16-5.57-19.72-.2-.32.28-3.64-3.17-2.99-3.36-11.38-15.95-7.86-24.14-3.98,11.78-13.19,32.28-16.26,40.35,2.31,3.42,7.88,11.53,36.58,9.25,44.23-4.54,15.22-25.52,12.82-37.53,10.31Z" style="fill: #eb7f28;"/>
    <path d="M2004,1071.92c-.76-.96-2.23-2.02-3.51-3.73,2.19-.27,2.83,2.11,3.51,3.73Z" style="fill: #ef8824;"/>
    <path d="M1992.16,1044.41c-1.95-.5-2.48-2.43-3.51-3.73,2.48-.34,2.55,2.34,3.51,3.73Z" style="fill: #eb7f28;"/>
    <path d="M2019.48,941.68c-.15.08-1.36,1.39-2.6,2.09l2.6-2.09Z" style="fill: #eb7f28;"/>
    <path d="M1986.21,1037.35c-.4-.46-1.11-1.11-1.75-1.86l1.75,1.86Z" style="fill: #eb7f28;"/>
    <path d="M1968.45,1025.96l-1.75-1.86c.28.35,1.06.98,1.75,1.86Z" style="fill: #f5ae27;"/>
    <path d="M1988.31,1039.95c-.3-.36-1.13-1.12-1.75-1.86l1.75,1.86Z" style="fill: #eb7f28;"/>
    <path d="M1993.91,1046.27c-.05-.07-.65-.07-1.41-1.13l1.41,1.13Z" style="fill: #eb7f28;"/>
    <path d="M1996,1048.87c-.06-.07-.65-.13-1.41-1.13l1.41,1.13Z" style="fill: #eb7f28;"/>
    <path d="M1997.29,993.87c-1.13-.13-2.16-.36-2.88-.45l2.88.45Z" style="fill: #f5ae27;"/>
    <path d="M2034.94,1005.86l-2.15-.79c.87-.36,1.89.77,2.15.79Z" style="fill: #ef8824;"/>
    <path d="M1856.02,971.91l-.39,1.07c-4.86-.17-9.28.07-13.61-3.6-2.47-2.09-7.77-9.94-2.82-10.75,4.05-.66,6.3,6.31,9.45,9.27,2.34,2.2,4.5,3.03,7.37,4Z" style="fill: #fffffe;"/>
    <path d="M1839.08,951.32c3.5-2.83,7.91,5.07,1.67,4.94-2.67-.06-3.61-3.37-1.67-4.94Z" style="fill: #fbe1a7;"/>
    <path d="M1855.62,972.99l.39-1.07c1.23.42,2.87.43,4.12,1.22l-.18.5c-1.43.45-3.62-.63-4.33-.65Z" style="fill: #fbe1a7;"/>
    <path d="M1954.59,895.93c2.73-4.05,13.33-14.42,17.66-7.59,3.09,4.87-5.4,4.97-7.5,5.63-3.43,1.08-8.98,5.35-10.72,8.46l-1.07-.39c.38-1.12.42-2.9.84-3.96l.79-2.15Z" style="fill: #fffffe;"/>
    <path d="M1952.96,902.04l1.07.39c-.04.08.63.87.18,1.73s-2.54,5.33-3.28,5.05c-.55-1.28-.11-3.86.31-5.09.44-1.28,1.66-1.91,1.72-2.09Z" style="fill: #fbe1a7;"/>
    <path d="M1953.81,898.08c.28-.71.08-1.11.79-2.15l-.79,2.15Z" style="fill: #fbe1a7;"/>
    <path d="M1901.66,908.97c5.62,4.26-.36,9.9-.06,15.36l1.51,10.6c-5.55-6.43-12.18-21.65-1.45-25.96Z" style="fill: #fffffe;"/>
    <path d="M1910.14,908.26c-1.74,4.77-10.37-1.36-4.7-3.92,2.77-1.25,5.64,1.36,4.7,3.92Z" style="fill: #fffffe;"/>
    <path d="M1831.36,899.56c2.88,2.09,1.54,5.63,2.38,8.43,1.77,5.92,8.92,8.93,8.69,9.55-.4,1.08-5.63-1.42-6.45-1.51-5.53-2.99-12.64-12.48-4.62-16.48Z" style="fill: #fffffe;"/>
    <path d="M1855.94,998.7c1.39,2.06-.03,1.43-1.1,2.31-1.98,1.62-4.59,2.97-6.1,5.1-1.65,2.32-1.71,8.7-5.02,8.54-4.72-.22-2.23-7.44-.09-9.81,3.61-3.99,7.7-4.16,12.31-6.14Z" style="fill: #fffffe;"/>
    <path d="M1994.52,916.66l4.57-4.71c2.91-2.27,13.61-6.22,14.51-.19.51,3.44-7.56.59-10.07,1.12-3.23.67-6,2.57-9.01,3.78Z" style="fill: #fffffe;"/>
    <path d="M1979.84,838.76l-1.07-.39c2.19-4.06.28-7.23,6.8-9.45,2.32-.79,4.81.19,3.4,2.52-1.08,1.79-6.55,2.7-9.12,7.32Z" style="fill: #fffffe;"/>
    <path d="M1978.76,838.36l1.07.39c-.37.66-.06,2.63-1.18,3.22-2.48-3.58-.27-2.93.1-3.61Z" style="fill: #fbe1a7;"/>
    <path d="M1787.59,947.41c-5.44,1.49-13.84-1.67-12.4-8.51,3.7-2.1,3.97,3.09,5.97,5.31,1.59,1.77,4.66,1.72,6.44,3.2Z" style="fill: #fffffe;"/>
    <path d="M1938.72,857.8c-3.54.79-4.14,2.46-5.93,4.53-.43.5-.74.87-1.13,1.41l-1.13,1.41c-.86,1.6-1.41,2.36-1.58,4.3l-1.07-.39c.08-.2-.6-.99-.68-1.47.5-.59,0-1.39.05-1.81.06-.38.3-.72.39-1.07.49-1.82,1.02-2.92,1.24-5.03,1.53-4.25,11.48-8.68,9.83-1.88Z" style="fill: #fffffe;"/>
    <path d="M1938.72,857.8c-.54,2.21-3.98,3.69-5.93,4.53,1.78-2.07,2.39-3.74,5.93-4.53Z" style="fill: #f9c96d;"/>
    <path d="M1927.88,869.06l1.07.39c-.03.35.8,1.23.67,1.46-.93,1.66-3.57.68-3.21-1.18.04-.23,1.36-.44,1.46-.68Z" style="fill: #f9c96d;"/>
    <path d="M1931.66,863.75c-.35.49-1.05,1.28-1.13,1.41l1.13-1.41Z" style="fill: #f9c96d;"/>
    <path d="M1806.14,993.23l.68,1.47c-1.22.4-3.67.93-4.89.86-1.77-.1-7.21-2.62-4.07-3.88,2.74-1.09,5.45,1.17,8.28,1.55Z" style="fill: #fffffe;"/>
    <path d="M1799.01,989.39c-.36.99-3.53,2.41-3.99-1.16-.5-3.87,4.7-.76,3.99,1.16Z" style="fill: #fbe1a7;"/>
    <path d="M1806.14,993.23c.83.11,2.57-.94,3.45-.26.27.62-2.05,1.49-2.77,1.73l-.68-1.47Z" style="fill: #fbe1a7;"/>
    <path d="M1822.77,1042.62l-8.24,9.15c-3.2-4.72,3.89-8.93,8.24-9.15Z" style="fill: #fbe1a7;"/>
    <path d="M1816.96,1055.1c-.29.78-3.4,1.24-3.77-.46-.66-2.99,4.53-1.61,3.77.46Z" style="fill: #fbe1a7;"/>
    <path d="M1875.69,846.87c.2-.22,1.16-.19,1.27-.74.19-.89-1.53-2.72-.39-4.13,6.47-.36,9.08,6.28,11.1,11.39,3.52,8.93,3.63,18.56,4.57,27.89.19,1.89,2.25,5.1-1.03,4.67-1.33-.17-18.62-15.78-19.96-17.91-.67-1.07-.68-1.17.58-1.56.33-.11,2.17,2.95,2.57-.28.2-1.65-2.85-6.71-3.24-9.7-.18-1.41,1.17-2.77.4-5.05-.08-.25-.23-.5-.34-.73,1.66-1.17,3.08-2.33,4.46-3.85Z" style="fill: #f5ae27;"/>
    <path d="M1871.23,850.72c.11.24.26.49.34.73-2.5,3.85-.99,9.18.69,13.05-2.62-.37-4.62-5.53-5.42-7.79-2-5.66,1.57-11.85,4.39-6Z" style="fill: #fffffe;"/>
    <path d="M1875.69,846.87c-.52,1-4.44,1.93-4.85-.87-.52-3.58,6.33-1.97,4.85.87Z" style="fill: #fbe1a7;"/>
    <path d="M1900.72,1051.09c-2.44-1.78-5.97-1.03-8.37-2.92-4.75-3.73-2.67-3.74-.21-6,10.64-9.75,21.98-20.87,32.98-29.97,3.26-2.69,7.42-5.02,9.46.35s-1.98,23.52-2.8,30.12c-.36,2.88,0,8.39-.5,10.66-.24,1.06-2.2,2.11-3.14,1.11l-.74-1.31c-.54-.19-1.19.55-1.41.52-7.02-1.14-12.46-1.61-17.53-7.04-.4-.43-.33-1.7-1.06-1.3-1.77,1.97-5.15,3.83-6.68,5.78ZM1931.47,1015.45c-1.83-.62-9.78,13.19-5.91,16.1,5,.38,7.47-15.58,5.91-16.1ZM1915.21,1026.55c-4.21,2.98-12.82,8.32-9.48,14.19,6.15-1.64,7.33-9.03,9.48-14.19Z" style="fill: #f5ae27;"/>
    <path d="M1887.11,1058.29c1.38.45-2.23,8.53-2.92,9.59-1.13,1.76-2.98,4.9-5.47,4.15-5.17-3.11,5.52-12.09,8.39-13.74Z" style="fill: #f9c96d;"/>
    <path d="M1901.95,1082.62c-3.25-5.63,3.59-12.42,7.87-15.69-1.92,5.52-1.1,13.63-7.87,15.69Z" style="fill: #f9c96d;"/>
    <path d="M1925.99,1053.65c.22.04.88-.71,1.41-.52l.74,1.31c-1.17,3.53-.2,6.94-1.72,10.64-.47,1.13-1.85,4.74-3.78,3.52-4.25-2.67,2.12-11.81,3.35-14.95Z" style="fill: #f9c96d;"/>
    <path d="M1900.72,1051.09c1.53-1.95,4.91-3.81,6.68-5.78.73-.39.66.87,1.06,1.3-3.58,3.32-3.41,13.36-9.6,12.01-1.21-1.42.81-6.2,1.86-7.53Z" style="fill: #f9c96d;"/>
    <path d="M1906.21,1097.6c.5-3.69,3.12-7.19,5.71-9.79,1.18.74.47,6.15.16,7.07s-2.16,3.71-3.05,4.11c-1.91.85-2.55-1.33-2.83-1.39Z" style="fill: #f5ae27;"/>
    <path d="M1883.65,1089.32c-1.89-2.68,1.81-7.05,3.73-8.69,3.34-2.85,1.32,3.79.73,4.84-1.09,1.96-2.52,2.89-4.46,3.85Z" style="fill: #f5ae27;"/>
    <path d="M1887.87,1057.04c.59.02.7.27.34.73l-.34-.73Z" style="fill: #f9c96d;"/>
    <path d="M2004.14,1006.75c-4.12,1.05-1.03,3.22,1.7,3.67-.19.31.38,5.09-.55,7.11-1.53,3.3-6.92,5.23-6.44,8.61-2.72-.81-1.05,1.28-1.13,1.41-1.49,2.67-6.47,9.71-9.79,7.58-6.77-8.35-15.63-16.25-21.99-24.78-5.12-6.86-7.5-12.89,4-12.56,4.09.12,32.12,4.46,33.75,6.27,1.13,1.26.36,2.44.45,2.68ZM1970.75,1009.73c2.66,4.56,6.14,11.64,12.34,10.34,3.97-2.88-9.43-10.79-12.34-10.34ZM1982.84,1005.03c-.38,1.14,11.99,11.76,14.86,6.98,1.82-3.04-5.85-5.27-7.67-5.83-.89-.27-6.95-1.88-7.19-1.15Z" style="fill: #f5ae27;"/>
    <path d="M2017.02,1023.99c2.87.37,17.68,4.18,15.18,8.61-2.59,4.6-14.01-5.48-15.18-8.61Z" style="fill: #f9c96d;"/>
    <path d="M2008.78,1045.63c5.05,1.36,14.89,3.94,13.42,10.73-6.38.11-10.12-6.1-13.42-10.73Z" style="fill: #f9c96d;"/>
    <path d="M1998.86,1026.14c1.67.5,8.58,3.47,9.62,4.5,2.43,2.4,2.97,4.48-1.01,4.42-3.43-.05-7.26-5.46-9.74-7.51.08-.14-1.59-2.22,1.13-1.41Z" style="fill: #f9c96d;"/>
    <path d="M2044.57,1022.8c1.17.37,3.96,1.95,4.75,2.92,2.34,2.88-.16,2.76-.22,3.01-2.78,1.07-8.1-2.93-9.45-4.98s4.17-1.19,4.93-.95Z" style="fill: #f5ae27;"/>
    <path d="M2034.83,1046.05c2.54,1.15,4.42,2.82,5.26,5.59-.08.26-4.15.32-4.35.23-1.04-.46-4.41-5.19-4.86-6.67,1.04.21,3.13.48,3.95.85Z" style="fill: #f5ae27;"/>
    <path d="M2004.14,1006.75c.4,1.02,3.1.77,3.74,2.27.37.88-1.76.94-2.04,1.4-2.73-.45-5.82-2.62-1.7-3.67Z" style="fill: #f9c96d;"/>
    <path d="M2017.95,980.73c2.02,3.93,5.46,10.04.55,12.79-14.84-3.2-31.57-2.42-46.26-5.33-6.03-1.19-8.57-3.9-3.17-8.63,8.21-7.21,26.05-19.17,35.69-24.71,1.36-.78,2.45-2.16,3.09.24l-7.06,5.93c3.84-1.27,9.32-1.19,12.77-3.23,6.61,5.36,8.87,8.85,8.16,17.62-3.49-.55-9.27,2.52-12.42,3.98,2.2,1.12,6.28,1.65,8.65,1.34ZM1974.88,980.16c.59.27,13.39-2.24,10.85-5.44-1.74-2.21-9.34,2.14-11.44,3.04-.79.31.47,2.35.59,2.4ZM1990.95,987.88c1.25.58,16.12,1.88,15.8-2.43-.66-4.66-13.72-.7-16.11.8-.61.38.13,1.55.31,1.63Z" style="fill: #f5ae27;"/>
    <path d="M2029.38,986.15c2.72-1.64,17.87-7.61,18.68-2.01.64,4.45-15.95,3.96-18.68,2.01Z" style="fill: #f9c96d;"/>
    <path d="M2040.24,961.48c-.08.57-4.51,3.45-5.79,3.38l-12.05.45c1.83-1.73,18.78-10.26,17.84-3.83Z" style="fill: #f9c96d;"/>
    <path d="M2007.86,955.09c4.72-4.33,12.7-1.42,5.71,2.71-3.45,2.04-8.93,1.96-12.77,3.23l7.06-5.93Z" style="fill: #f9c96d;"/>
    <path d="M2021.73,975.42c.86.13,3.45,2.24,3.16,2.99-2.22,1.25-4.43,1.99-6.94,2.33-2.36.31-6.45-.22-8.65-1.34,3.16-1.46,8.94-4.53,12.42-3.98Z" style="fill: #f9c96d;"/>
    <path d="M2045.09,944.98c3.45-.65,2.97,2.67,3.17,2.99-1.46.8-2.95,1.41-4.59,1.73-1.35.27-9.31.85-5.57-1.49,1.2-.75,5.83-3.02,6.99-3.24Z" style="fill: #f5ae27;"/>
    <path d="M2053.82,967.69c3.7.61,2.67.7,3.17,2.99l-10.17,1.13,7-4.12Z" style="fill: #f5ae27;"/>
    <path d="M1951.73,1076.51l4.93,10.65c.84,1.82.13,9.71-3.63,6.57-3.8-3.18-2.56-12.78-1.3-17.22Z" style="fill: #f9c96d;"/>
    <path d="M1972.25,1068.79c1-.69,1.55.96,2.11,1.68,1.7,2.2,8.92,11.98,4.68,13.95-5.61,2.6-5.82-12.87-6.79-15.63Z" style="fill: #f9c96d;"/>
    <path d="M1983.92,1053.58c-.38,1.1,2.53,5.95-1.81,5.77-2.52-.1-3.81-4.26-4.69-6.32-.96-2.25-1.46-4.74-1.96-7.11,3.8,1.36,5.48,5.27,8.46,7.67Z" style="fill: #f9c96d;"/>
    <path d="M1956.41,1065.42c-.15-.6.05-7.71.19-8.75.13-.93-.68-1.28,1.21-1.7,1.49,3.47,3.69,6.78,4.03,10.61.55,6.27-3.99,5.5-5.43-.16Z" style="fill: #f9c96d;"/>
    <path d="M1992.43,1083.52c.92,1.18,2.46,3.13,2.99,4.4,1.84,4.43-1.48,8.15-3.94,3.18-1.37-2.76-1.1-6.84-1.87-9.83,1.13-.59,2.23,1.5,2.82,2.26Z" style="fill: #f5ae27;"/>
    <path d="M1969.06,1102.37c-1.85-2.8-1.32-6.17-1.17-9.28,1.51-1.04,1.38.24,1.95,1.32,1.11,2.11,1.92,4.22,2.15,6.59-.81.34-1.63.84-2.94,1.36Z" style="fill: #f5ae27;"/>
    <path d="M1948.96,1035.88c1.5,2.49,7.4,16.12,2.05,16.87-4.15.59-3.45-12.11-3.2-14.58.12-1.21-.99-1.79,1.15-2.29Z" style="fill: #f9c96d;"/>
    <path d="M1953.51,1016.83c1.79.7,9.69,12.91,4.27,14.96-3.3-3.56-4.95-8.48-5.33-13.23-.07-.89-.61-2.39,1.06-1.74Z" style="fill: #f9c96d;"/>
    <path d="M1931.47,1015.45c1.56.53-.91,16.49-5.91,16.1-3.87-2.92,4.08-16.72,5.91-16.1Z" style="fill: #f9c96d;"/>
    <path d="M1915.21,1026.55c-2.15,5.16-3.33,12.55-9.48,14.19-3.34-5.87,5.27-11.21,9.48-14.19Z" style="fill: #f9c96d;"/>
    <path d="M1982.84,1005.03c.24-.73,6.3.87,7.19,1.15,1.82.56,9.49,2.78,7.67,5.83-2.87,4.79-15.24-5.84-14.86-6.98Z" style="fill: #f9c96d;"/>
    <path d="M1970.75,1009.73c2.91-.45,16.31,7.46,12.34,10.34-6.2,1.3-9.68-5.78-12.34-10.34Z" style="fill: #f9c96d;"/>
    <path d="M1990.95,987.88c-.18-.08-.92-1.25-.31-1.63,2.39-1.5,15.45-5.46,16.11-.8.31,4.31-14.55,3.01-15.8,2.43Z" style="fill: #f9c96d;"/>
    <path d="M1974.88,980.16c-.11-.05-1.37-2.09-.59-2.4,2.1-.9,9.69-5.25,11.44-3.04,2.53,3.2-10.26,5.72-10.85,5.44Z" style="fill: #f9c96d;"/>
  </g>
</svg>