<?xml version="1.0" encoding="UTF-8"?>
<svg id="orange" xmlns="http://www.w3.org/2000/svg" viewBox="0 0 876.9 944.72">

<defs>
<style>
  #orange_outside{
    transform-box: fill-box;
    transform-origin: center;
    transition: all 0.5s ease-in-out;
  }

  #orange:hover #orange_outside{
    animation: fadeOutObject 2s forwards;
  }

  @keyframes fadeOutObject {
    from { opacity: 1; }
    to { opacity: 0.3; }
  }
</style>
</defs>

  <g id="orange_inside">
    <path id="inside_orange" d="M755.73,297.35C510.73,76.46,123.73,264.56,142.39,593.2c14.73,259.5,292.56,420.95,527.18,308.23,234.4-112.62,279.72-429.57,86.17-604.08Z" style="fill: #f58b01;"/>
    <path id="inside_light" d="M266.36,348.72c154.74-171.7,435.64-132.24,536.35,75.15,119.59,246.25-97.94,519.66-364.55,461.55-241.35-52.6-338.13-352.14-171.8-536.7ZM618.93,443.27c44.18-48.85,133.24-83.15,35.73-139.35-39.99-23.05-131.9-64.61-143.33,9.27,4.74,57.33,1.66,119.23,8.05,176,6.9,61.28,40.8,22.39,62.48-1.47,12.96-14.26,24.15-30.18,37.06-44.46ZM481.99,286.1c-10.11-10.07-27.72-15.58-41.84-14.09-10.35,1.09-93.99,38.27-104.69,45.31-30.67,20.18-26.5,52.15-3.62,76.43,14.29,15.16,136.94,125.89,147.25,128.75,29.33,8.15,26.48-23.15,26.31-42.31-.27-30.57-3.92-155.83-12.55-177.45-1.76-4.41-7.56-13.35-10.86-16.64ZM656.77,425.12c-21.59,23.02-73.62,74.55-88.04,98.47-19.96,33.12,9.4,35.29,34.18,35.18,28.69-.13,145.34-3.64,165.85-12.15,55.43-23.01,11.15-103.48-9.2-138.6-34.15-58.96-74.37-13.2-102.79,17.1ZM357.92,436.15c-30.46-26.78-82.22-82.76-114.73-19.11-7.15,14.01-39.07,99.29-38.9,111.16.49,34.53,28.4,47.42,58.63,47.57,50.07.24,126.63-2.92,175.93-9.07,17.96-2.24,35.99-7.93,26.06-30.01-6.14-13.65-89.63-85.28-106.98-100.53ZM787.82,579.24c-7.59-7.42-17.21-12.35-27.93-13.54-34.21-3.8-127.5,2.79-164.01,7.06-36.92,4.31-38.98,20.97-15.05,46,15.82,16.55,116.07,108.29,130.55,113.45,33.66,11.98,52.13-7.7,63.99-35.96,13.53-32.25,41.34-88.73,12.44-117ZM413.96,673.32c19.76-22.27,99.96-91.17,23.87-92.63-47.81-.92-134.75,2.84-181.68,9.31-66.14,9.12-43.06,71.02-25.26,111.7,14.08,32.17,38.45,86.63,82.26,72.29,21.84-7.15,82.21-79.7,100.82-100.67ZM572.99,630.09c-19.33-15.39-38.46-25.72-45.37,7.39,5.57,55.99.98,118.49,7.77,173.71,3.59,29.21,21.48,49.04,52.44,46.5,10.09-.83,84.76-39.31,95.02-46.98,18.82-14.07,25.6-38.77,16.36-60.35-6.66-15.56-106.76-104.77-126.23-120.27ZM373.77,738.12c-21.88,25.25-56.7,58.37-18.87,90.56,8.51,7.24,95.31,37.4,108.04,38.96,46.62,5.74,58.73-30.64,58.46-68.46-.19-27.13-3.96-149.45-11.25-167.75-7.01-17.61-20.7-15.15-33.79-5.22-26.74,20.29-78.27,83.85-102.59,111.9Z" style="fill: #fcfcf4;"/>
    <path d="M413.96,673.32c-18.6,20.97-78.98,93.52-100.82,100.67-43.81,14.34-68.17-40.12-82.26-72.29-17.8-40.68-40.88-102.58,25.26-111.7,46.93-6.47,133.87-10.23,181.68-9.31,76.09,1.46-4.11,70.36-23.87,92.63Z" style="fill: #fca901;"/>
    <path d="M357.92,436.15c17.35,15.26,100.84,86.88,106.98,100.53,9.93,22.08-8.1,27.77-26.06,30.01-49.29,6.16-125.85,9.31-175.93,9.07-30.23-.14-58.14-13.04-58.63-47.57-.17-11.87,31.75-97.15,38.9-111.16,32.51-63.65,84.27-7.67,114.73,19.11Z" style="fill: #fca901;"/>
    <path d="M481.99,286.1c3.3,3.29,9.1,12.23,10.86,16.64,8.63,21.62,12.28,146.88,12.55,177.45.17,19.16,3.02,50.46-26.31,42.31-10.31-2.86-132.96-113.59-147.25-128.75-22.88-24.28-27.05-56.25,3.62-76.43,10.7-7.04,94.34-44.22,104.69-45.31,14.12-1.49,31.73,4.02,41.84,14.09Z" style="fill: #fca901;"/>
    <path d="M618.93,443.27c-12.91,14.27-24.1,30.2-37.06,44.46-21.68,23.86-55.58,62.75-62.48,1.47-6.39-56.77-3.31-118.68-8.05-176,11.44-73.89,103.34-32.32,143.33-9.27,97.51,56.2,8.45,90.5-35.73,139.35Z" style="fill: #fca901;"/>
    <path d="M373.77,738.12c24.31-28.05,75.85-91.62,102.59-111.9,13.1-9.94,26.79-12.39,33.79,5.22,7.28,18.3,11.06,140.62,11.25,167.75.27,37.82-11.84,74.2-58.46,68.46-12.73-1.57-99.52-31.72-108.04-38.96-37.83-32.19-3.01-65.32,18.87-90.56Z" style="fill: #fca901;"/>
    <path d="M572.99,630.09c19.47,15.5,119.57,104.71,126.23,120.27,9.24,21.58,2.45,46.28-16.36,60.35-10.26,7.67-84.93,46.15-95.02,46.98-30.96,2.54-48.86-17.29-52.44-46.5-6.78-55.22-2.19-117.72-7.77-173.71,6.91-33.11,26.04-22.78,45.37-7.39Z" style="fill: #fca901;"/>
    <path d="M656.77,425.12c28.42-30.29,68.64-76.06,102.79-17.1,20.34,35.12,64.63,115.59,9.2,138.6-20.51,8.51-137.16,12.03-165.85,12.15-24.78.11-54.15-2.06-34.18-35.18,14.42-23.92,66.45-75.45,88.04-98.47Z" style="fill: #fca901;"/>
    <path id="inside_light_orange" d="M787.82,579.24c28.9,28.28,1.09,84.75-12.44,117-11.86,28.26-30.33,47.94-63.99,35.96-14.49-5.16-114.73-96.89-130.55-113.45-23.93-25.03-21.87-41.69,15.05-46,36.5-4.26,129.8-10.86,164.01-7.06,10.72,1.19,20.34,6.12,27.93,13.54Z" style="fill: #fca901;"/>
  </g>
  <g id="orange_outside">
    <ellipse id="outside" cx="511.86" cy="573.72" rx="365" ry="371" style="fill: #f58b01;"/>
  </g>
  <g id="orange_leaf">
    <path id="leaf" d="M344.36,10.72c1.73,6.06.12,11.1,0,17-.03,1.33.03,2.67,0,4-.08,3.99.11,8.02,0,12-.08,2.66.06,5.34,0,8-.17,7.6-.99,15.27-1,23,0,6.32-.1,12.69,0,19,.15,9.94.47,20.08,1,30,.09,1.66-.1,3.34,0,5,.28,4.52.48,9.55,1,14,.24,2.01.67,4,1,6,.05,2.33-.07,4.67,0,7,.02.66-.05,1.34,0,2,.07.82.11,1.62,1,2-.06,1.64-.09,3.36,0,5,.36,6.43,2.03,12.55,2.01,18.99,2.28-4.98.38-11.68.99-16.99,5.86-50.88,52.68-100.01,104.47-104.03,11.94-.93,30.82-3.35,36.28,8.78,14.29,31.67-3.15,112.49-33.75,132.25-9.47,6.12-46.3,11.77-60.96,16.54-47.64,15.5-93.9,44.2-131.04,77.46-3.22.64-6.28,2.94-9,4-83.3,32.57-195.25-2.88-241.17-80.33-18.5-31.2-23.92-38.38,5.71-63.63,31.96-27.25,88.1-52.23,129.99-56.01,77.94-7.04,129.37,35,179.47,87.97-13.31-21.8-21.13-181.1-9.88-188.87,4.6-3.18,20.78,3.18,23.89,9.88Z" style="fill: #79a92d;"/>
  </g>
</svg>