<?xml version="1.0" encoding="UTF-8"?>
<svg id="strawberry_full" xmlns="http://www.w3.org/2000/svg" viewBox="0 0 788.76 1049.78">

<defs>
<style type="text/css">
#Strawberry_outside_group{
  transform-box: fill-box;
    transform-origin: bottom;
    transition: all 0.5s ease-in-out;
}

 #strawberry_full:hover #Strawberry_outside_group{
  transform: rotate(60deg);
  }
</style>
</defs>
  <g id="strawberry">
  <g id="Strawberry_leaf_2">
    <path id="leaf_light_2" d="M193.16,136.23c-6.45-6.61-19.3-52.61-16.22-58.41,2.69-5.07,52.64,2.06,60.81,3.82,16.84,3.63,34.08,8.89,48.18,18.8,1.39-18.05,2.01-36.26,5.3-54.11,1.16-6.32,9.1-41.17,12.83-42.68,3.17-1.29,28.85,11.6,33.59,14.23,29.78,16.49,60.73,41.22,75.52,72.54C430.19,44.49,465.29,14.72,511.86,0c11.36,31.82,13.25,65.61,13.05,98.89.56,1.42,1.48,1.53,2.58.86,24.82-17.48,55.76-26.81,85.92-28.17,7.7,21.7,6.59,45.08,6.99,67.63-2.66,5.48-13.28,4.92-15.48-.84l-4.13-2.83c1-13.75.26-27.1-2.23-40.06-6.4-9.02-78.73,24.01-87.48,35.42-3.27.73-5.31-1.18-6.95-4.01,5.64-33.29,3.23-67.49-1.3-100.9-44.73,16.72-67.16,51.58-85.8,92.12l-4.7.68c-6.68.58-16.48-19.55-12.51-24.93-1.19,1.15-2.51,1.52-3.99.94-13.67-17.03-52.74-51.32-73.73-52.57-3.03-.18-13.09,52.65-13.38,59.12,3.73,24.08-5.46,27.87-27.59,11.36-19.31-6.86-54.61-15.97-74.62-14.01-2.3.23,2.88,29.49,5.12,32.04l-2.16,3.75c-5.3.69-11.11.78-16.33,1.74Z" style="fill: #4fa538;"/>
    <path id="leaf_dark_2" d="M209.49,134.49c-4.33-4.55-9.88-37.89-6.02-39.83,27.79,1.85,56.27,4.32,82.03,15.73,3.87,1.71,17.23,12.4,19.34,8.52.43-.79-.27-14.67.07-17.9.93-8.76,9.77-61.29,15.99-63.15,22.71,6.51,46.52,21.87,63.22,38.58,3.11,3.11,14.36,14.73,15.71,17.42l12.51,24.93,22.73-43.31c16.56-25.49,39.94-43.15,69.09-52.25,6.91,21.44,6.2,44.22,7.87,66.36l-4.25,39.4c9.74-12.82,82.59-47.17,93.13-36.67,6.43,6.41,2.49,36.25,4.02,46.04-32.63-2.8-62.55-.75-93.68,10.42-21.3,7.64-40.84,19.58-62.47,26.45-69.59,22.09-92.02-14.87-150.74-35.68-31.49-11.16-55.88-9.33-88.55-5.07Z" style="fill: #399120;"/>
  </g>
  <g id="Strawberry_inside">
    <path id="inside_very_dark" d="M620.41,139.21c-3.57-.55-60.32-10.53-122.82,12.12,7.25,2.48,10.08-1.33,21.4.03l9.15,1.21c163.87-28.57,270.68,129.68,199.6,384.18-23.39,83.74-66.33,150.5-111.77,225.38-43,70.86-92.17,140.28-146.67,201.28-48.43,54.2-92.41,84.88-155.95,30.19-70.42-60.61-122.51-166.49-163.23-249.39C57.45,555.51-87.15,207.3,225.37,146.96c21.17-1.51,42.24-3.12,63.21-4.82,8.11-.91,7.48.32,26.21.68-32.58-12.09-62.44-19.09-121.64-6.6-362.02,66.57-107.76,555.7,1.71,736.19,33.6,55.4,119.82,192.75,197.11,174.53,69.27-16.33,153.62-138.39,194.04-196.41,70.9-101.78,127.5-205.93,169.17-322.72,11.46-32.11,25.58-65.38,27.34-99.8,24.43-124.57-21.42-267.07-162.11-288.81Z" style="fill: #dc1e20;"/>
    <path id="inside_dark" d="M288.59,142.15c.06,6.1-19.14,15.5-24.05,12.07-55.46,13.88-106.12,46.86-122.52,103.17l-5.39,1.9-3.37,3.92-29.56-.12c-32.13,1.33,14.17,11.48,23.1,10.95l2.13,4.18c.91,0,1.78.09,2.53.45,3.56,1.68-6,70.14-7.77,77.76l-4.08,1.79c1.38,3.46-.35,4.69-3.58,5.29l-41.27,1.44c-8.03-.67-12.12,3.93-3.54,6.7l46.93,5.76,2.35,4.03,3.95.91c5.02,50.97,7.53,76.46,7.53,76.46l-3.61,2.61c-6.14,6.4-14.81,10.11-26.01,11.12-72.37,7.42.2,11.19,24.13,5.38l5.35,3.27,5.94.82c8,25.53,15.33,51.53,21.98,78.01-1.32,1.93-3.13,3.46-5.42,4.58l-4.05,5.46c-61.39,18.26-23.17,14.47,7.54,9.28l3.43,3.31,4.06-.05c8.24,23.23,16.48,46.46,24.72,69.7l-2.86,3.43c1.28,3.52-.54,6.56-5.46,9.13-.4-1.32-39.47,20.52-32.22,18.85,10.81-4.7,21.37-6.58,31.7-5.61,3.54-1.91,7.26-3.06,11.17-3.45-.33-1.71.27-1.96,1.72-.86,1.37-.59,3.59-1.19,4.04-.35,6.83,12.81,23.91,49.25,27.06,62.08l-2.62,3.61.58,4.26-21.03,14.46c-11,8.19-4,6.81,21.02-4.14l3.75,2.61c1.52-.32,3.83-.76,4.42.23,10.31,17.15,19.66,38.78,26.46,57.46,6.21,5.54,6.57,10.38,1.05,14.52l.54,4.37c-2.17.81-26.5,17.52-24.72,19.49,1.09,1.21,27.42-8.77,30.83-10.18l3.7,2.65c7.82,7.5,14.09,16.86,18.79,28.08,7.62,9.67,12.56,19.79,14.84,30.36l2.02,3.92c-28.75,34.76-27.05,38.92,5.09,12.48l4.1,1.66,4.27-1.16,33.89,34.25c6.76,1.43,11.26,4.71,13.49,9.86,1.71-.28,1.97.31.86,1.72l.87,6.02c3.65-.03,6.41,3.83,8.29,11.58-.52-7.74,1.3-12.46,5.46-14.17,1.5-5.16,6.03-7.45,13.58-6.86,15.1-8.86,28.77-19.79,40.99-32.8l4.68,3.47,2.29-1.22c12.64,17.15,14.33,15.51,5.06-4.94l2.95-3.31-.66-12.25c10.53-18.23,22.39-35.02,35.57-50.37l7.97,6.67,4.14-1.12c18.5,21.82,17.74,14.85-2.28-20.91l2.4-3.77-.71-6.19c12.18-19.77,24.36-39.55,36.54-59.32l4.46.1,4.05-1.98c41.11,28.61,29.81,11.93,4.06-10.37l.46-4.87-2.16-3.56c11.22-24.31,22.73-48.53,34.54-72.65l4.45-.38,3.91-2.19c20.83,10.7,18.47.83,3.71-10.71l.95-4.31-2.9-3.09c12.9-32,25.8-64.01,38.71-96.03l4.43-.69,3.26-3.23,20.41,3.47c61.3,5.21,4.76-11.61-14.79-15.5-3.44-1.66-4.76-3.33-2.9-7.1-1.43-.42-3.53-1.43-3.32-2.35,4.67-19.8,12.36-47.01,19.42-65.88.61-6.46,2.93-9.82,6.97-10.06l2.98-3.73c13.66.21,27.42-.1,41.03-1.52,22.17-7.01,14.14-10.49-24.1-10.46-7.05-.06-11.7-2.28-13.94-6.67l-4.7-2.39c2.28-26.16,4.86-52.08,7.72-77.76l7.15-2.43c.52-6.28,18.54-9.62,22.34-4.75-.3-6.88,20.91-17.22,26.63-13.36-3.06,1.72-4.58.6-5.38-2.43-14.05,4.19-27.93,8.02-42.82,6.43l-3.38-3.94-4.17-1.62-12.36-73.3c.03-3.27,2.34-6.1,6.93-8.49l-.17-4.12c34.68-18.62,11.27-14.71-8.65-8.1l-3.24-3.26-5.55-1.52c-4.18-13.66-10.2-25.17-19.59-36.65-28.15-34.39-60.16-42.25-100.52-49.43-4.2,3.78-9.11,1.36-8.6-4.29,51.23-13.43,122.48-12.6,157.94,26.91,217.94,242.87-88.87,650.88-183.65,763.23-35.09,41.6-91.3,108.75-150.66,77.19-91.69-48.74-178.09-232.59-220.3-325.08-61.18-134.05-158.33-374.15-24.59-493.83,48.97-43.82,126.11-65.84,190.87-57.64Z" style="fill: #f03a39;"/>
    <path id="inside_piink" d="M665.31,258.71c6.71-2.83,27.97-12.65,19.24-21.25-3.17-3.12-24.56,4.72-31.3,5.78-4.36-5.12-5.03-13.84-7.69-18.73-18.43-33.9-47.59-58.13-85.33-65.86-4.4-.9-12-3.28-14.54-3.6-4.26-.53-12.8,1.36-18.1.59,28.8,17,47.49,47.43,56.87,79.06,3.47,11.69,4.21,24.05,5.22,36.12,1.44,17.26,1.93,36.06.95,53.32-.54,9.53-2.17,22.13-3.38,31.83-2.28,18.16-6.18,38.88-10.22,56.78-2.5,11.07-5.22,23.67-8.54,34.41-5.27,17.1-12.66,34.3-19.68,50.76-4.29,10.05-9.98,20.25-14.56,30.98-8.04,18.83-14.03,33.91-20.54,53.35-4.8,14.33-9.03,29.42-12.82,43.02-6.64,23.82-12.54,47.24-17.93,71.4-2.88,12.9-5.97,25.73-8.53,38.71-2.92,14.84-4.8,29.93-7.66,44.73-3.05,15.74-4.95,31.64-8.51,47.31-4.59,20.18-9.94,42.3-18.81,61.08-3.42,7.25-9.84,18.78-14.95,25.77-.48.45-.93,1.03-1.33,1.77-3.71,4.67-11.82,13.49-16.52,16.71-5.4,3.71-12.81,5.57-17.82,9.12-8.94.64-18.04,1.88-26.65-1.69-13.48-5.59-24.77-21.29-31.86-33.51-4.65-8-10.25-19-13.8-27.51-5.57-13.34-10.27-30.57-13.83-44.71-2.98-11.85-5.6-24.92-7.8-36.97-3.96-21.67-5.63-44.3-9.57-66.21-2.01-11.21-3.83-22.32-6.08-33.54-3.64-18.2-7.91-36.09-12.13-54.17-2.69-11.53-5.79-22.91-8.66-34.39-3.66-14.63-7.54-29.23-11.25-43.85-.17-.87-.4-1.68-.65-2.47-3.29-12.45-7.41-24.7-10.59-37.09-4.72-18.34-10.21-36.67-14.71-55.03-2.99-12.19-5.27-24.68-7.8-36.97-3.57-17.35-8.48-37.64-10.41-55.03-1.04-9.34-1.48-23.79-1.78-33.54-.57-18.97.98-38.84,3.34-57.63,1.46-11.62,3.31-23.87,5.96-35.27,7.69-33.12,24.53-78.3,53.99-98.11-3.22-2.73-4.33-1.49-7.62-.7-27.66,6.66-55.2,19.44-77.08,37.74-13.36,11.18-32.84,40.52-40.23,57.86-1.37,3.21-.05,7.34-2.98,10.16-12.21.42-28.57-.76-39.51.37-5.91.61-11.89,2.23-7.42,9.11,3.81,5.86,31.24,8.22,39.23,9.45l-9.32,80c-1.32.11-3.34,1.57-5.54,1.74-8.06.64-47.11-.31-49.92,3.38-2.62,3.44-1.25,8.4,2.14,10.89,2.95,2.17,47.14,6.81,54.22,7.21l7.88,79.98c-8.14,2.06-16.23,5.13-24.5,6.94-7.2,1.57-27.02,2.17-31.52,4.38-5.07,2.48-3.9,9.58,1.29,11.29.84.28,15.08.68,17.65.69,12.82.05,27.68-2.13,40.55-3.52,3.68,1.79,4.27,4.58,5.35,8.12,6.38,21.03,10.16,44.02,16.77,65.84.99,3.26,4.01,6.11.38,9.44-14,5.01-28.51,8.44-41.83,14.75.19,3.64,1.15,7.28,5.3,8.02,6.6,1.17,35.22-3.24,43.44-4.71l25.92,73.08c-2.68,1.61-5.08,4.5-8.47,6.48-5.98,3.5-33.18,14.53-33.78,18.88-.35,2.59,1.73,5.1,2.74,7.35,11.12-3.57,22.42-6.65,33.52-10.35.56-.31,1.13-.58,1.7-.85-.59.33-1.16.63-1.7.85,3.5-1.17,6.91-1.9,11.17-3.45.6-.22,1.12-.64,1.72-.86l28.48,65.33c-4.88,3.42-31.87,20.78-31.29,23.53.28,1.32,2.05,4.74,3.1,5.39,2.1,1.3,27.61-9.73,32.52-11.72l22.96,45.6c1.94,4.15,2.26,8.74,4.06,12.94,2.39,5.59,9.74,8.27,4.91,13.67-5.9,4.75-34.23,19.54-27.03,27.53,2.42,2.68,32.08-8.99,37.37-11.2,9.17,20.81,20.89,39.77,33.63,58.45-5.48,8.64-18.65,23.1-22.19,30.28-1.53,3.1,2.69,8.53,5.95,7.73,1.65-.4,24.04-17.14,27.44-19.97l35.99,36.2,15.67,6.74c.12.6.71,1.11.86,1.72-1.93,1.97.15,4.09.87,6.02,2.02,5.41,4.02,19.68,11.16,15.73,1.1-.61,2.05-15.42,2.59-18.32,4.42-3.66,10.1-1.69,14.66-3.17,11.83-3.85,27.98-20.16,37.24-29.1,2.31-2.23,3.01-5.01,7.35-3.91,3.08,3.92,14.04,23.48,18.05,14.62.52-1.15-6.58-20.31-7.75-24.09l1.4-8.84c11.79-12.74,21.43-37.93,33.45-49.08,4.86-4.51,3.87.45,8.03,1.96,3.38,3.73,20.73,25.08,22.43,12.47.51-3.77-15.07-31.93-18.18-38.27l40.29-65.41c4,2.51,26.85,17.47,28.52,17.57,6.59.38,8.26-5.48,4.48-10.98-3.05-4.44-18.99-18.5-24.44-23.79l36.83-76.59c5.78,3.36,18.63,10.63,22.95,2.61,2.99-5.54-10.35-16.1-14.38-19.82l40.23-99.81c8.52,1.96,44.85,8.39,50.68,4.75,3.6-2.25,4.54-7.22,2.31-10.8-2.32-3.71-33.8-9.61-40.64-11.88-3.5-1.16-5.65-4.18-6.36-4.44l23.07-78.29c9.78.57,48.37.03,55.11-3.76,6.36-3.57,5.85-12.48-.36-14.55-3.81-1.27-23.94.11-30.57-.65-6.03-.7-12.21-2.44-18.21-3.4-4.11-10.15,2.08-24.14,3.32-35.43,1.35-12.24-.14-29.19,1.55-39.59.69-4.2.52-5.96,5.3-7.55,3.09-.54,21.32-4.24,22.34-4.75l26.63-13.36c-1.25-1.7-2.18-5.98-3.55-6.59-1.14-.51-20.24,5.5-24.22,6.11-8.47,1.29-15.5.73-23.81.54l-12.94-76.71,3.34-6.71Z" style="fill: #f75b5c;"/>
    <path id="inside_light" d="M288.63,142.55c46.41-11.22,76.37,45.67,146.23,30.13,46.76-9.45,72.08-44.1,116.77-3.25,25.86,23.79,37.98,54.6,40.91,89.08,5.22,35.29,2.21,71.3-2.04,106.58-2.93,19.87-7.68,40.49-12.56,59.85-3.11,13-5.88,25.97-10.77,38.55-6.82,18.94-16.19,37.41-24.29,55.85-11.81,28.49-23.36,57.13-32.62,86.63-6.56,20.16-10.93,40.86-16.01,61.4-9,29.87-14.67,60.26-20.32,90.87-8.68,45.96-12.35,94.22-33.83,136.48-5.93,10.84-12,21.62-20.76,30.81-16.56,17.8-44.11,27.02-66.04,13.04-28.28-18.31-45.48-66.43-53.43-98.37-8.59-37.24-14.69-75.46-19.09-113.39-2.6-18.35-7.51-35.98-11.2-54.26-9.19-42.8-20.19-84.85-31.8-127.04-10.35-33.17-18.79-67.46-26.27-101.3-4.52-18.87-9.32-38.12-11.83-57.38-2.78-29.31-3.97-58.39-.28-87.8,7.11-60.24,21.17-138.5,89.05-156.43l.18-.04Z" style="fill: #f67270;"/>
    <path id="inside_pink_2" d="M375.22,892.15c-18.5-4.35-31.99-47.82-35.99-64.86-12.53-53.34-3.68-105.35-13.92-156.48-17.82-88.92-97.01-270.31-71.72-351.9,27.05-87.25,174.31-104.1,241.24-57.88,97.07,67.03,16.59,211.17-7.84,295.87-22.98,79.67-35.01,164.14-59.22,243.93-5.39,17.75-25.96,81.45-40.4,89.54-2.3,1.29-9.62,2.38-12.15,1.78Z" style="fill: #f75b5c;"/>
    <path id="inside_dark_2" d="M421.02,334.68c93.98,25.19,37.58,160.11,23.52,221.01-15.94,69.04-21.63,157.54-46.55,222.35-16.56,43.06-30.46-1.11-35.25-23.17-7.4-34.08-2.64-66.07-5.71-99.32-6.7-72.51-65.93-222.5-33.06-284.61,17.12-32.35,63.32-45.3,97.05-36.26Z" style="fill: #eb302b;"/>
  </g>
  <g id="Strawberry_leaf">
    <path id="leaf_light" d="M422.19,52.18c6.7-7.17,15.58-13.53,23.23-20.02,12.02-10.39,24.78-18.22,39.28-24.83,12.61-5.96,21.97-8.86,26.08,7.77,6.3,24.1,8.78,49.23,9.18,74.17.31,3.76.53,8.63,3.06,10.89,4.69,3.58,12.45-2.27,17.17-4.47,10.16-5.57,20.96-10.18,31.79-13.71,45.43-14.4,47.7-3.85,48.47,39.03-.13,4.99-1.79,15.63-3.75,18.16-3.75,4.85-12.26,2.47-15.96-3.35-4.97-7.12.07-25.3-5.39-32.12-8.75-13.39-64.31,20.29-77.26,27.24-5.18,2.62-21.51,20.59-23.21,10.94-1.21-7.38,5.37-25.89,5.6-34.56.96-17.58.66-41.63-1.1-58.1-1.02-7.26-1.53-17.19-7.02-17.57-5.28-.32-11.24,3.55-16.36,6.32-7.71,4.51-15.08,9.53-21.72,15.18-17.28,14.92-29.63,34.47-39.02,55.29-3.09,6.1-4.13,24.91-12.89,19.76-5.43-3.87-13.09-13.89-17.29-19.31-15.09-20.77-53.22-58.86-76.49-59.6-5.46.39-8.55,9.03-10.02,15-4.1,15.44-7.44,36.71-8.9,53.03-.69,4.56,2.1,14.37-1.38,17.32-7.42,4.86-22.36-7.68-30.58-10.52-17.79-6.96-36.84-11.26-55.7-12.25-14.95-.9-10.31,10.24-11.82,26.06-.88,8.55-10.98,15.55-20.12,10.19-7.56-4.56-13.8-23.91-15.85-32.62-1.87-9.03-5.27-22.94,5.4-27.41,5.54-2.31,14.26-1.27,22.34-.65,21.32,1.78,42.72,5.04,62.49,12.93,12.49,5.13,21.15,8.04,22.78-8.81,1.91-18.91,4.84-65.48,17.69-78.42,6.08-5.58,15.09-2.81,21.99.31,28.07,12.24,51.9,31.9,75.07,51.26,6.11,4.97,11.98,15.25,18.79,15.81,6.01-.11,9.98-12.56,13.35-17.32,2.3-3.91,4.85-7.55,7.93-10.9l.13-.14Z" style="fill: #4fa538;"/>
    <path id="leaf_dark" d="M186.11,146.09c1.85-6.84-7.73-35.98-4.98-40.47,2.13-3.47,30.63-.65,36.28.07,26.25,3.36,48.4,10.26,70.96,24.17-.34-13.53-.13-28.3,2.36-41.63,1.72-9.23,7.04-33.19,10.55-40.74,3.78-8.13,17.75.75,24.24,3.74,32.88,15.17,61.68,44.28,76.83,76.96,13.12-39.68,34.95-75.24,73.62-93.65,19.16-9.12,19.71-10.76,23.91,10.55,5.48,27.77,5.46,61.77-1.98,89.06,3.07,1.67,4.21-.3,6.57-1.36,10.21-4.6,22.49-16.15,34.71-21.88,10.55-4.95,46.1-18.14,55.97-13.82,6.77,2.96,5.27,30.91,5.57,38.72-22.72-2.29-47.19.13-69.4,4.88-62.48,13.35-115.67,65.88-183.44,32.04-17.16-8.57-34.21-19.02-52.43-25.97-33.74-12.87-74.26-7.2-109.36-.67Z" style="fill: #399120;"/>
  </g>
  <g id="Strawberry_outside_group">
  <g id="Strawberry_outside">
    <path id="outside_very_dark" d="M311.37,1022.96c-8.29-6.46-9.78-9.7-15.18-15.53,104.76.78,216.3-150.62,221.21-159.2,14.74-23.14,28.14-45.29,43.79-67.57.31-.44.59-.9.85-1.37,5.44-9.99,43.32-87.79,56.64-122.65,48.41-132.87,133.56-390.47-16.6-491.08-20.68-13.02-76.64-27.61-76.25-27.71,29.19-7.42,55.99-9.34,57.58-8.34,7.73.86,15.02,1.38,22.67,2.98,9.52,1.87,19.84,5.82,29.6,8.51,155.01,39.99,172.87,223.32,130.67,353.65-53.15,167.82-170.79,374.43-293.07,501.45-52.16,52.46-97.19,75.54-161.47,27.19-.14-.1-.29-.21-.44-.33Z" style="fill: #c41a1a;"/>
    <path id="outside_dark" d="M687.49,311.92c13.26,120.63-40.08,302.52-115.5,456.02-54.06,110.01-183.8,252.02-275.79,239.49-59.52-55.11-114.18-150.76-153.59-222.17C46.1,610.36-136.24,217.43,169.45,142.67c37.69-12.28,130-13.12,174.37,23.3,32.96,20.14,70.84,16.01,104.96,1.46,25.06-11.61,50.74-21.47,77.05-29.59,109.84,3.16,152.53,91.06,161.65,174.08Z" style="fill: #db1d1d;"/>
    <path id="outside_light" d="M331.55,203.82c114.54,2.56,212.86,40.92,221.03,169.36,3.74,54.99-5.91,115.6-17.9,170.5-16.78,75.91-42.41,148.22-79.53,216-26.4,46.52-63.53,113.66-117.61,127.36-59.37,13.23-110.76-55.68-141-98.44-31.06-45.17-59.54-97.18-79.41-149.19-27.94-71.32-49.94-144.98-59.05-221.14-8.34-87.81,23.62-157,109.44-188.79,52.41-19.38,108.45-26.54,163.85-25.66h.19Z" style="fill: #ee2d2e;"/>
  </g>
  <g id="Strawberry_seeds">
    <path id="seeds_42" d="M277.02,284.22c19.31-.73,21.87,34.97,6.76,44.9-21.06,13.84-24.01-44.25-6.76-44.9Z" style="fill: #f5b62e;"/>
    <path id="seeds_41" d="M187.37,509.25c21.39-15.37,25.47,38.4,11.19,42.55-16.9,4.92-26.68-31.43-11.19-42.55Z" style="fill: #f5b62e;"/>
    <path id="seeds_40" d="M386.52,380.45c18.89-.4,17.03,44.78,3.96,45.84-22.82,1.85-20.17-45.5-3.96-45.84Z" style="fill: #f5b52f;"/>
    <path id="seeds_39" d="M299.6,509.29c10.28,17.16-7.01,49.41-21.63,30.03-13.43-17.8,7.17-54.18,21.63-30.03Z" style="fill: #f5b62e;"/>
    <path id="seeds_38" d="M165.72,396.04c16.22,1.61,12.16,44.3,0,44.74-19.47.71-22.76-47,0-44.74Z" style="fill: #f5b62e;"/>
    <path id="seeds_37" d="M254.95,627.51c16.96,1.06,14.38,42.65-2.8,39.84-14.13-2.31-16.2-41.03,2.8-39.84Z" style="fill: #f5b630;"/>
    <path id="seeds_36" d="M279.73,434.83c-17.93,10.64-24.93-35.49-4.6-36.94,18.98-1.35,14.39,31.13,4.6,36.94Z" style="fill: #f5b62e;"/>
    <path id="seeds_35" d="M502,385.65c28.24-16.57,25.07,52.98-1.1,40.07-11.48-5.66-10.05-33.52,1.1-40.07Z" style="fill: #f5b52e;"/>
    <path id="seeds_34" d="M194.21,287.39c5.08,36-24.42,38.83-27.23,9.52-2.42-25.33,23.49-36.01,27.23-9.52Z" style="fill: #f5b52f;"/>
    <path id="seeds_33" d="M379.79,736.03c16.02-.68,21.2,36.23,7.42,40.45-22.78,6.98-25.28-39.69-7.42-40.45Z" style="fill: #f6b72e;"/>
    <path id="seeds_32" d="M404.6,529.37c-2.12,7.23-4.69,12.47-6.92,18.87-31.22,7.97-22.42-47.43-1.24-39.62,6.87,2.54,6.43,14.9,8.15,20.74Z" style="fill: #f5b62e;"/>
    <path id="seeds_31" d="M151.91,650.57c12.66.04,23.7,38.52,7.9,41.58-16.59,3.21-29.13-41.65-7.9-41.58Z" style="fill: #f4b42e;"/>
    <path id="seeds_30" d="M366.15,622.74c1.63,9.56-5.02,33.61-17.65,28.5-8.73-3.53-11.7-36,1.18-41.18,6.89-2.77,15.37,6.19,16.47,12.68Z" style="fill: #f5b62e;"/>
    <path id="seeds_29" d="M487.6,276.38c19.93-.7,17.94,38.72,3.49,39.43-20.61,1-18.17-38.91-3.49-39.43Z" style="fill: #f5b52e;"/>
    <path id="seeds_28" d="M477.01,539.12c-11.56-15.86,10.54-48.1,21.13-28.07,9.29,17.57-7.13,47.29-21.13,28.07Z" style="fill: #f5b52f;"/>
    <path id="seeds_27" d="M454.83,612.87c17.03-.6,14.78,40.21-2.17,38.36s-14-37.79,2.17-38.36Z" style="fill: #f4b42d;"/>
    <path id="seeds_26" d="M404.18,297.98c.55,4.06-.28,7.29-2.49,9.69-.29.62-.19,1.43-.5,1.94-9.77,16.15-24.09-2.89-22.19-18.09,2.64-21.22,25.01-21.37,25.18,6.47Z" style="fill: #f6b630;"/>
    <path id="seeds_25" d="M286.87,751.59c17.37,2.7,17.67,40.1-.28,38.28-16.01-1.62-14.38-40.56.28-38.28Z" style="fill: #f5b52e;"/>
    <path id="seeds_24" d="M548.17,626.68c22.25,3.27,9.81,49.68-9.7,44.69-17.54-4.48-8.35-47.34,9.7-44.69Z" style="fill: #f5b62e;"/>
    <path id="seeds_23" d="M290.2,886.12c-.47,7.41-4.46,22.75-13.6,22.99-16.86.46-21-31.83-8.59-41.09,11.73-8.75,22.92,6.68,22.19,18.09Z" style="fill: #f6b72f;"/>
    <path id="seeds_22" d="M586.81,516.96c8.63,13.39-3.95,48.84-19.49,33.68-14.69-14.34,1.82-61.1,19.49-33.68Z" style="fill: #f6b62e;"/>
    <path id="seeds_21" d="M601.33,392.51c5.59-3.3,14.05.88,17.39,6.19,10.81,17.21-7.85,50.71-20.46,31.79-4.99-7.49-4.88-33.29,3.07-37.98Z" style="fill: #f5b62e;"/>
    <path id="seeds_20" d="M84.89,536c16.96-17.08,37.95,38.63,7.97,41.28-14.79-5.64-16.67-32.53-7.97-41.28Z" style="fill: #f5b72e;"/>
    <path id="seeds_19" d="M90.99,271.18c.28,9.24-4.79,27.79-16.65,24.63-17.47-4.65-12.41-49.91,9.39-41,5.83,2.38,7.1,10.87,7.27,16.37Z" style="fill: #f5b52e;"/>
    <path id="seeds_18" d="M202.51,212.51c-20.35,15.14-30.56-32.95-12.69-36.75,19.78-4.21,25.55,27.18,12.69,36.75Z" style="fill: #f5b52e;"/>
    <path id="seeds_17" d="M60.3,438.82c-16.73,6.13-18.89-22.18-14.03-33.42,2.16-5,7.25-6.82,8.5-9.3,19.74-.34,18.84,37.85,5.54,42.72Z" style="fill: #f5b52d;"/>
    <path id="seeds_16" d="M323.26,211.11c-5.89,23.58-24.84,18.66-26.18-2.6-.09-1.43,1.57-12.55,2.16-14.41,6.74-21.07,29.51-4.98,24.02,17Z" style="fill: #e8a420;"/>
    <path id="seeds_15" d="M615.05,278.49c5.44,8.51,2.22,26.91-6.64,32.87-17.94,12.06-20.27-31.82-9.82-38.82,5.21-3.49,13.48,1.29,16.47,5.95Z" style="fill: #f5b52d;"/>
    <path id="seeds_14" d="M392.43,978.48c2.01,2.5,4.85,18.97,4.26,22.99-3.82,25.94-30.96,12.44-28.11-10.53.71-5.74,2.01-7.09,4.92-11.12,5.01-1.83,10.03-2.6,15.05-2.33.99.64,3.42.44,3.87,1Z" style="fill: #e7a421;"/>
    <path id="seeds_13" d="M556.6,797.65c.89-7.61,4.7-13.93,7.41-20.81,30.76-12.69,20.04,40.5.2,35.37-9.24-2.39-6.79-9.05-7.61-14.56Z" style="fill: #e8a521;"/>
    <path id="seeds_12" d="M601.84,169.47c14.9,1.48,12.84,35.86.1,36.45-24.93,1.15-18.48-38.28-.1-36.45Z" style="fill: #f4b52d;"/>
    <path id="seeds_11" d="M471.39,749.29c17.25-.59,14,41.35-4.11,37.75-17.24-3.42-10.28-37.26,4.11-37.75Z" style="fill: #f7b630;"/>
    <path id="seeds_10" d="M382.84,868.94c16.61-.23,18.68,47.79-2.85,37.28-14.07-6.87-10.66-37.09,2.85-37.28Z" style="fill: #f5b52e;"/>
    <path id="seeds_9" d="M216.97,809.48c-4.29-.75-7.87,2.21-13.77-2.54-2.55-2.05-8.15-13.96-7.93-17.49,2.29-36.86,40.45-2.14,21.7,20.03Z" style="fill: #f5b52d;"/>
    <path id="seeds_8" d="M482.39,224.59c-16.37,8.77-23.92-36.6-4.52-36.9,15.9-.25,16.72,30.36,4.52,36.9Z" style="fill: #e6a21f;"/>
    <path id="seeds_7" d="M479.75,903.86c-.35-.43-.71-3.25-.94-4.37,5.21-8.86,10.86-17.71,16.94-26.54l4.58-.97c.58.38,1.59.13,1.94.5,12.74,13.63-7.62,49.61-22.52,31.38Z" style="fill: #e7a220;"/>
    <path id="seeds_6" d="M500.33,871.98c-3.1,10.12-12.79,21.35-21.52,27.51-2.92-14.03,4.93-38.4,21.52-27.51Z" style="fill: #f4b22d;"/>
    <path id="seeds_5" d="M388.55,977.48l-14.86,9.61-.19-7.29c6.08-8.41,6.88-7.56,15.05-2.33Z" style="fill: #f4b02a;"/>
    <path id="seeds_4" d="M644.72,644.98c18.38-1.12,15.76,32.4-.51,41-23.95,12.66-14.07-40.1.51-41Z" style="fill: #e7a421;"/>
    <path id="seeds_3" d="M725.49,393.79c12.68,3.89,12.37,43.64-2.67,41.89-21.81-2.54-15.06-47.34,2.67-41.89Z" style="fill: #e7a420;"/>
    <path id="seeds_2" d="M682.32,539.13c18.66-.77,12.98,38.42,1.55,38.89-23.03.96-14.75-38.35-1.55-38.89Z" style="fill: #e8a421;"/>
    <path id="seeds" d="M702.64,259.38c16.92,1.69,14.29,41.01-2.2,38.44-12.79-1.99-17.28-40.38,2.2-38.44Z" style="fill: #e8a421;"/>
  </g>
  </g>
  </g>
</svg>